<svg width="128" height="128" viewBox="0 0 128 128" fill="none" xmlns="http://www.w3.org/2000/svg">
<g clip-path="url(#clip0_100_1469)">
<path d="M124 0H4C1.79086 0 0 1.79086 0 4V124C0 126.209 1.79086 128 4 128H124C126.209 128 128 126.209 128 124V4C128 1.79086 126.209 0 124 0Z" fill="#D62E2E"/>
<path d="M77.633 21.0816C77.5213 21.1873 76.3292 21.3636 75.0253 21.4341C73.6841 21.5046 71.8587 21.6456 70.9646 21.7865C70.0705 21.8923 68.7293 22.0685 68.0215 22.139C67.3137 22.1742 66.0471 22.3505 65.2275 22.4562C64.4079 22.562 62.7314 22.7382 61.5021 22.8439C57.6649 23.1259 55.5787 23.3726 54.4238 23.6194C53.8277 23.7251 52.3748 23.8661 51.2572 23.9013C48.4259 24.0071 46.526 24.3948 46.0044 25.0292C45.7064 25.3112 45.5201 26.7916 45.4828 28.6244C45.4456 30.3162 45.2966 31.9023 45.1848 32.0785C45.0358 32.29 44.4397 32.5368 43.8437 32.6425C43.2476 32.7835 42.6515 33.1359 42.5398 33.4884C42.13 34.8983 42.1672 40.573 42.6143 41.2074C42.7633 41.4541 43.6201 41.7009 44.5142 41.8419C45.4083 41.9476 46.2279 42.1238 46.3397 42.1943C46.4887 42.3706 46.5632 46.7764 46.4514 49.3142C46.4142 50.3363 46.2652 50.442 44.8495 50.6888C43.9554 50.8298 42.726 50.9355 42.13 50.9003C41.4967 50.865 40.4908 51.006 39.8947 51.2175C39.3359 51.429 37.8085 51.6757 36.5791 51.7814C35.3125 51.8872 33.8223 52.0986 33.189 52.2396C32.2204 52.5216 29.8362 52.7331 28.1597 52.6978C27.8617 52.6978 26.7068 52.9093 25.6637 53.1913C23.652 53.72 23.5402 53.861 23.6893 55.8348L23.7265 56.7159H19.7031C16.313 56.6807 15.4561 56.7864 14.1895 57.4209C13.3699 57.8438 12.6248 58.4783 12.5876 58.8307C12.4013 59.7824 11.9542 60.1349 10.7621 60.2406C3.31131 61.016 3.01328 61.0865 2.15644 62.2144C1.89566 62.5316 0.96431 62.9898 0.107468 63.2013C-2.16503 63.73 -4.62379 64.6464 -4.62379 64.8932C-4.62379 65.1046 -6.44924 67.1842 -7.79038 68.5236C-8.27468 69.017 -8.05116 70.0039 -5.70416 78.0401L-3.05912 86.9928L-0.786628 87.169C3.2368 87.4157 6.58966 87.3452 6.85044 86.9928C6.99946 86.7813 7.59552 86.3936 8.19159 86.1116C9.42097 85.5124 10.0915 84.2083 10.4641 81.7058C10.7621 79.4852 11.0229 79.2033 13.1464 78.9566C14.115 78.8508 15.0836 78.5688 15.2698 78.2869C16.2384 77.0532 17.6168 75.4319 18.7345 74.1983C19.405 73.4933 19.9639 72.7884 19.9639 72.6122C19.9639 72.4712 20.8579 72.3654 21.9383 72.3654H23.9128L23.8383 85.9001C23.7638 96.7561 23.8755 99.5758 24.2481 100.105C24.6206 100.598 25.2539 100.809 26.5206 100.88C27.5264 100.915 28.9421 101.091 29.6871 101.268L31.0283 101.62L33 102L35.5 102.5L39 103C39.8568 103.423 37.5 103 42 104C43.7137 103.542 46.2177 104.07 47 104C47.8196 103.894 47.4941 104.898 48.5 104.616C49.5059 104.334 45.7097 103 52.2097 104.616C53.8862 103.209 51.9646 104.933 52.7097 104.616C54.6097 103.77 58.9175 105.797 58.2097 104C57.4646 102.167 51.4435 103.77 56.8453 104.616C57.3669 104.687 59.5276 105.004 61.6883 105.321C63.8491 105.603 65.9353 105.92 66.3451 105.991C68.8783 106.414 70.0332 106.555 72.8645 106.766C74.6155 106.872 76.1056 107.013 76.2174 107.083C76.4037 107.189 80.8369 107.718 81.8055 107.718C82.2898 107.718 102.146 102.607 105.536 101.585C106.728 101.232 107.064 100.704 107.324 98.8356C107.399 98.3069 107.921 97.1085 108.442 96.1569C109.187 94.888 109.485 93.7954 109.634 91.7863C109.821 89.2838 109.895 89.0723 110.64 89.0723C111.72 89.1076 111.944 87.6625 110.901 87.3452C110.342 87.2042 110.081 86.7108 109.895 85.4772C109.56 83.3271 109.448 80.7541 109.709 80.2959C109.895 79.9787 110.081 78.6393 110.23 76.8418C110.268 76.2073 111.124 75.8196 112.913 75.6786C118.165 75.2909 119.767 75.6081 121.854 77.5467C123.791 79.309 125.02 79.8377 127.591 80.014C128.932 80.1197 130.31 80.1902 130.608 80.1902C130.906 80.1549 131.689 80.2254 132.322 80.3312C133.44 80.4722 133.551 80.6484 134.296 83.1861C135.041 85.9001 136.196 87.5215 137.314 87.5215C137.649 87.5215 138.059 87.6625 138.283 87.8387C138.692 88.2264 142.343 89.2133 143.647 89.2838C145.845 89.46 147 89.2838 147 88.7551C147 88.4731 144.839 80.8951 142.157 71.872C139.512 62.8489 137.314 55.4118 137.314 55.3766C137.314 55.3061 135.414 55.3413 133.142 55.4471C129.304 55.5881 123.12 55.5528 119.805 55.4118C119.097 55.3413 117.495 55.3766 116.265 55.4471C113.36 55.5881 112.652 55.5176 112.875 55.1298C112.987 54.9889 112.875 54.5659 112.615 54.2487C112.168 53.6495 109.783 53.2265 104.866 52.7683C103.674 52.6626 102.295 52.5216 101.848 52.4159C101.364 52.3101 100.507 52.2044 99.8737 52.1339C98.7933 52.0281 96.8189 51.7109 94.8444 51.3585C94.3228 51.2527 93.3915 51.147 92.7582 51.0765C92.1249 51.0412 91.4543 50.865 91.2308 50.7593C91.0072 50.6183 90.0759 50.4421 89.1818 50.3363C86.2015 50.0543 84.227 49.7724 83.1094 49.4199C82.5133 49.2437 81.5075 49.0674 80.9486 49.0322C79.4212 48.9264 79.1232 48.3272 79.1977 45.86C79.384 40.291 79.384 40.2558 82.7741 39.5508C84.4133 39.1984 84.7858 38.9869 84.8231 38.3877C84.9348 35.8499 85.1583 32.854 85.3074 31.5498C85.4936 29.999 85.3446 29.8228 83.8545 29.6113C83.4447 29.576 82.9231 29.3998 82.6623 29.2588C82.4388 29.1178 81.9918 29.1178 81.6565 29.2236C80.8741 29.5055 80.7251 29.0121 80.5761 25.2055C80.5016 23.4079 80.2781 21.7865 80.0918 21.6103C79.6448 21.1873 77.9311 20.8349 77.633 21.0816ZM76.8507 25.9456C76.9625 26.0866 76.8507 26.1924 76.5527 26.2276C76.2546 26.2276 75.6213 26.2981 75.0998 26.3686C74.5782 26.4391 73.0881 26.6153 71.7469 26.7211C70.4058 26.8268 68.8411 27.003 68.2078 27.0735C67.6117 27.144 65.6 27.3203 63.7373 27.426C61.9119 27.5317 59.9747 27.6727 59.4531 27.7785C58.261 27.9899 53.2317 28.4129 52.0023 28.4129C50.4376 28.3776 50.1396 28.3072 50.1396 27.9899C50.1396 27.8137 51.4435 27.6022 53.0454 27.4965C54.6101 27.3908 56.5845 27.2145 57.4041 27.1088C58.2237 27.003 60.2354 26.8268 61.8746 26.7211C63.5138 26.6506 65.451 26.4743 66.1588 26.3686C66.8666 26.2629 68.3568 26.1219 69.4744 26.0161C70.592 25.9456 71.5606 25.7694 71.6351 25.6989C71.8959 25.4522 76.5527 25.6989 76.8507 25.9456Z" fill="white"/>
<path d="M46.6025 54.2361C45.7885 54.6431 45.5172 55.1364 44.9128 57.3194C44.4688 58.8981 44.2715 60.5014 44.2715 62.4994C44.2715 64.9784 44.4688 66.2241 45.3445 69.1471C45.6652 70.2571 46.4545 70.9108 47.5275 70.9848C48.2058 71.0341 48.4032 70.9724 52.5472 69.2334C54.9152 68.2344 56.9625 67.3711 57.0982 67.3094C59.2318 66.3474 59.6142 66.2734 59.7252 66.8038C59.7745 67.0381 60.2308 67.3958 60.7365 67.5808C61.3162 67.7904 64.1035 67.7904 64.6955 67.5808C64.9422 67.4944 65.3738 67.1984 65.6452 66.9148L66.1508 66.4091L66.9278 66.7298C67.3595 66.9024 69.8262 67.9384 72.4162 69.0361C77.5715 71.1944 77.7935 71.2561 78.8172 70.7628C79.3598 70.4914 79.8655 69.8501 80.0752 69.1471C80.9508 66.2241 81.1482 64.9784 81.1482 62.4994C81.1482 59.9958 80.9015 58.5281 80.0505 55.7778C79.9395 55.4324 79.6805 54.9761 79.4708 54.7418C78.6322 53.8661 77.6578 53.7674 76.1162 54.4088C73.8098 55.3831 67.6432 57.9731 66.9155 58.2814L66.1262 58.6021L65.8425 58.2568C65.6328 58.0224 65.4108 57.9114 65.1148 57.8991C64.7572 57.8744 64.7202 57.8498 64.8805 57.7264C65.2258 57.4674 64.8065 57.3811 63.0305 57.3318C61.2668 57.2948 60.2678 57.4428 60.4405 57.7141C60.5022 57.8004 60.4652 57.8251 60.3418 57.7758C60.2185 57.7388 60.0335 57.8374 59.8608 58.0348C59.7005 58.2074 59.6635 58.2814 59.7868 58.1951C59.9718 58.0471 59.9965 58.0471 59.9348 58.1951C59.8978 58.2938 59.7498 58.4294 59.5895 58.4911C59.3305 58.6144 58.6892 58.4048 57.0982 57.6894C56.9625 57.6278 54.9275 56.7644 52.5718 55.7778C47.8975 53.8168 47.6015 53.7428 46.6025 54.2361ZM63.9432 57.5661C63.9432 57.6401 63.3142 57.6771 62.3522 57.6648C61.4765 57.6401 60.8228 57.5908 60.8845 57.5414C61.1065 57.4181 63.9432 57.4428 63.9432 57.5661ZM64.5598 57.5661C64.7202 57.6771 64.7202 57.6894 64.5598 57.6894C64.4612 57.6894 64.2885 57.6278 64.1898 57.5661C64.0295 57.4551 64.0295 57.4428 64.1898 57.4428C64.2885 57.4428 64.4612 57.5044 64.5598 57.5661ZM59.9595 59.2558C59.9102 59.2928 59.8362 59.2928 59.7868 59.2558C59.7498 59.2064 59.7868 59.1694 59.8732 59.1694C59.9595 59.1694 59.9965 59.2064 59.9595 59.2558ZM59.9595 59.7491C59.9102 59.7861 59.8732 59.7491 59.8732 59.6628C59.8732 59.5764 59.9102 59.5394 59.9595 59.5764C59.9965 59.6258 59.9965 59.6998 59.9595 59.7491Z" fill="#D62E2E"/>
<path d="M59.854 59.7939C59.8874 59.6605 60.048 59.6197 60.14 59.5395C60.3491 59.3569 60.5041 59.1102 60.742 58.9623C61.166 58.6988 61.6665 58.6045 62.16 58.5701C62.5452 58.5432 62.9433 58.5404 63.3301 58.5426C63.7566 58.5449 64.2008 58.5876 64.6155 58.6895C65.0515 58.7966 65.4276 59.0211 65.8079 59.2535C66.692 59.7938 67.4575 60.4794 68.1887 61.2106" stroke="#D62E2E" stroke-width="3" stroke-linecap="round"/>
<rect y="22" width="24" height="88" fill="#D62E2E"/>
<rect x="106" y="20" width="24" height="88" fill="#D62E2E"/>
<rect y="93" width="128" height="20" fill="#D62E2E"/>
<path d="M25.6353 55.7363C23.2072 55.7363 23.7352 59.1052 23.6946 60.6905C23.5762 65.3064 22.9736 69.9287 22.5145 74.5195C22.2065 77.5995 21.6945 80.7401 21.7831 83.8428C21.8313 85.5307 21.9489 87.2034 21.9489 88.8945C21.9489 89.5526 21.5789 90.8324 22.456 90.845C23.1091 90.8543 27.4408 91.2715 27.7418 90.6694" stroke="white" stroke-width="5" stroke-linecap="round"/>
<path d="M22.8264 91.5472C25.6871 92.5306 28.6246 92.5542 31.6328 92.5907C37.129 92.6573 42.6006 91.9203 48.0851 91.635C57.4906 91.1457 66.9338 90.9407 76.3476 91.1571C79.7173 91.2346 83.0903 91.1961 86.4608 91.1961C90.5827 91.1961 94.6439 91.8983 98.7586 91.8983C100.591 91.8983 102.37 91.9435 104.161 91.5082C105.352 91.2189 105.573 90.6625 105.858 89.5382C106.698 86.226 107.486 82.7272 107.702 79.3177C107.938 75.5759 107.789 71.7931 107.789 68.0439C107.789 64.4368 107.52 60.2972 105.946 56.9847C104.944 54.8743 103.394 54.332 101.119 54.332" stroke="white" stroke-width="5" stroke-linecap="round"/>
<rect x="19" y="72" width="92" height="27" rx="7" fill="white"/>
<path d="M21.4539 76.9216C21.4539 74.0296 22.1055 71.1695 22.3855 68.2888C22.5798 66.2907 23.0053 64.3089 23.3469 62.3321C23.6271 60.7109 23.8801 59.0994 24.1299 57.4756" stroke="white" stroke-width="5" stroke-linecap="round"/>
<path d="M108.515 76.921C108.46 76.089 108.337 75.257 108.337 74.4233C108.337 72.6353 108.586 70.8565 108.674 69.0712C108.759 67.3247 108.312 65.6903 107.712 64.066C106.865 61.7702 105.894 59.5565 104.769 57.3857" stroke="white" stroke-width="5" stroke-linecap="round"/>
</g>
<defs>
<clipPath id="clip0_100_1469">
<rect width="128" height="128" fill="white"/>
</clipPath>
</defs>
</svg>
