<svg width="250" height="150" viewBox="0 0 214 118" fill="none" xmlns="http://www.w3.org/2000/svg">
<path d="M94.3416 10.4813C94.1512 11.0965 93.9476 12.5166 93.8392 13.6291C93.6572 16.2861 93.491 16.6054 92.0292 16.5912L90.8277 16.6069L90.2536 20.2044C89.9247 22.1924 89.7739 23.9321 89.9039 24.0566C90.0397 24.2167 90.927 24.5081 91.8736 24.7168C92.8499 24.8842 93.5654 25.2405 93.5354 25.5008C93.4995 25.7257 93.2714 27.6606 93.0312 29.7435L92.6105 33.6075L90.2606 33.7397C87.9108 33.8719 80.9387 34.0734 75.6535 34.106C72.6705 34.1602 71.7646 34.4191 71.9052 35.2716C71.9521 35.5558 71.9155 36.2186 71.7844 36.751C71.6112 37.6917 71.5757 37.6976 70.1736 37.3816C69.3808 37.2205 68.3159 36.9583 67.8131 36.7858C67.3162 36.6489 65.8602 36.6701 64.617 36.8752C62.5214 37.2209 62.2548 37.3743 61.685 38.344L61.1031 39.4616L56.8477 39.5433L52.5923 39.625L51.8687 40.5471C51.4179 41.1322 50.9203 41.4333 50.5416 41.3498C50.0564 41.2839 49.9319 41.4139 50.0257 41.9822C50.1253 42.586 50.3618 42.6929 51.2498 42.5465C52.0313 42.4175 52.4158 42.5366 52.6458 43.0459C52.8699 43.5198 53.2602 43.6743 54.0061 43.5512C54.7876 43.4223 55.2252 43.642 55.9517 44.5073C56.4893 45.1119 57.0092 45.6099 57.1158 45.5923C57.6841 45.4986 59.6582 43.5311 60.2873 42.4786C60.6553 41.8341 61.2896 41.2552 61.7099 41.1494C62.3848 41.038 62.379 41.0025 61.5093 40.8176C60.6751 40.6268 60.4202 40.8513 59.0082 42.9085C57.5369 45.0485 57.3769 45.1844 56.8155 44.6567C56.5083 44.3425 56.1835 43.9218 56.1483 43.7087C56.1132 43.4956 55.309 43.0444 54.3449 42.7292C53.3807 42.4139 52.6179 41.9924 52.6538 41.7676C52.7852 41.0162 55.3431 40.3753 57.0707 40.6741C59.2067 41.015 59.6684 40.9388 58.6633 40.3749C57.9005 39.9534 57.9005 39.9534 58.6402 40.0138C60.4924 40.1826 62.7825 40.3522 63.6229 40.3595C64.5047 40.3965 64.5047 40.3965 63.7774 39.9691C63.1329 39.6011 63.0798 39.5004 63.5123 39.2466C64.3417 38.745 67.0753 39.1697 67.1749 39.7735C67.2921 40.4839 66.4865 40.9087 65.5164 40.5579C65.055 40.4151 64.7295 40.4323 64.7529 40.5744C64.7764 40.7165 65.3736 41.0193 66.0599 41.198C66.9057 41.4598 67.284 41.7623 67.3305 42.2654C67.3239 42.6679 67.399 43.7866 67.4565 44.7987C67.6353 47.6517 67.5968 49.4094 67.3899 49.2611C67.3013 49.1662 66.1636 50.0106 64.9189 51.0916C63.6387 52.1785 62.0682 53.4957 61.3867 54.0094C60.7408 54.5173 60.219 55.1142 60.2483 55.2918C60.2834 55.505 60.1648 55.6705 59.9516 55.7056C59.774 55.7349 59.5554 55.5156 59.5086 55.2314C59.3972 54.5565 59.19 54.6272 57.7501 55.6309C56.9976 56.1564 56.3865 57.0964 55.9939 58.2558C55.2565 60.4207 54.4494 61.7214 53.7745 61.8327C53.5259 61.8737 53.3538 62.1575 53.4006 62.4417C53.5061 63.081 53.9027 63.0521 54.9514 62.3318C55.4432 61.9953 56.0785 60.7594 56.5901 59.2156L57.4111 56.672L59.2757 56.4739C60.9272 56.3109 61.2648 56.1458 62.4388 54.8575C65.5279 51.4655 66.3159 50.9342 67.9908 50.9133C70.3641 50.9231 70.4882 51.0121 70.2187 52.9174C70.1166 53.8464 69.8105 56.4145 69.5641 58.6808C68.8848 64.9591 68.6706 65.6512 67.3725 66.8504C65.8492 68.2328 64.7876 69.539 64.8521 69.9297C64.8755 70.0718 65.6094 70.0967 66.4974 69.9502C67.3854 69.8037 68.1133 69.7931 68.1368 69.9352C68.1661 70.1128 68.0456 71.3732 67.9189 72.8171C67.7864 74.2254 67.737 75.4741 67.8197 75.5334C68.2335 75.83 68.4898 74.7296 68.6835 72.1436C68.763 70.6346 69.0094 68.3683 69.2067 67.1316C70.9006 55.7238 71.0083 55.0493 70.9958 51.877C70.9943 49.2138 71.6065 44.0776 72.136 42.4214C72.3561 41.7648 72.5062 40.463 72.4959 39.5161C72.456 38.6105 72.7068 37.2556 72.9921 36.5518C73.4912 35.3749 73.6571 35.2745 75.0006 35.2353C75.7996 35.213 77.0424 35.2269 77.7466 35.2932C79.9599 35.4389 89.3291 35.1704 91.1051 34.8774C93.2363 34.5259 94.5274 33.948 93.865 33.6924C93.5102 33.532 93.4574 33.2123 93.761 32.1771C94.2612 30.3433 94.4366 28.0887 94.282 24.9398C94.178 23.4246 94.3666 20.3651 94.6957 18.1581C95.2413 13.9451 95.5083 13.5727 97.0931 14.3329C98.1576 14.814 101.821 15.1219 105.301 14.9857C106.863 14.9469 109.201 14.9626 110.527 15.0358C111.852 15.109 113.651 15.1771 114.557 15.1372C115.462 15.0973 117.137 15.0764 118.309 15.102C119.451 15.169 120.955 14.994 121.612 14.7761C122.27 14.5582 122.915 14.4882 123.051 14.6483C123.281 14.9386 123.195 17.0691 122.872 18.8737C122.794 19.2878 122.531 20.7907 122.334 22.2463C122.095 23.6722 121.618 25.6481 121.196 26.6299C119.942 29.6462 119.452 32.8649 119.969 34.8958L120.198 35.8431L115.281 35.4503C109.446 35.0263 107.321 34.9754 107.735 35.272C108.06 35.4738 118.99 36.4803 119.807 36.3455C120.091 36.2987 124.989 37.6799 130.715 39.4353C136.471 41.1494 141.878 42.7386 142.783 42.9176C148.036 44.0213 148.35 44.152 148.934 45.4787C149.228 46.1598 149.696 46.3381 151.211 46.4531C152.282 46.5318 153.542 46.6523 154.069 46.7478C154.595 46.8434 155.447 46.9217 156.033 46.9346C157.69 47.0261 157.245 47.6468 155.434 47.7266C153.268 47.8651 150.995 47.8021 150.12 47.5817C149.741 47.4982 149.463 47.5806 149.486 47.7227C149.668 48.6048 150.544 48.8252 153.337 48.7293C158.451 48.5425 160.476 47.9895 160.289 46.8529C160.166 46.1069 157.894 45.606 153.278 45.2728C150.142 45.0605 149.946 44.9832 149.605 44.0179C149.275 43.1237 148.879 42.9337 144.862 42.0274C142.442 41.5144 138.478 40.4899 136.094 39.752C133.681 39.0555 129.155 37.7223 126.05 36.8116C121.3 35.4425 120.353 35.0148 120.485 34.4824C120.687 33.5003 121.947 26.7613 121.93 26.6548C121.918 26.5837 122.984 26.408 124.304 26.2267L126.66 25.911L127.305 22.5209C127.616 20.6452 127.979 18.8703 128.069 18.5272C128.17 18.0362 127.81 17.8403 126.307 17.5774C125.259 17.4217 124.307 17.1775 124.213 17.0471C124.083 16.9226 124.042 16.236 124.108 15.5319C124.505 11.9637 124.55 9.80361 124.225 9.60184C124.054 9.44768 122.539 9.33271 120.864 9.3536C119.189 9.37449 114.265 9.38406 109.956 9.36506C105.653 9.38158 100.984 9.38565 99.5634 9.40104C98.1784 9.41058 96.5035 9.43147 95.8466 9.43037C94.8582 9.41098 94.6627 9.55269 94.3416 10.4813ZM102.37 12.0394C104.087 12.0482 106.424 12.0639 107.596 12.0895C108.726 12.0855 110.591 12.1063 111.691 12.1437C112.786 12.1455 114.615 12.1722 115.716 12.2095C116.811 12.2114 118.639 12.2381 119.776 12.2695C120.906 12.2655 121.9 12.3204 121.983 12.3797C122.06 12.4036 122.095 12.8357 122.023 13.2853C121.956 14.2085 121.678 14.2909 119.856 14.0807C119.146 13.9789 117.092 13.9163 115.269 13.9251C112.245 13.9497 104.859 13.8545 99.4733 13.7213C97.7511 13.677 97.1418 13.5221 97.0715 13.0959C96.925 12.2079 97.2747 11.8948 98.3458 11.9735C98.8665 12.0336 100.66 12.0661 102.37 12.0394ZM94.1875 17.7311C94.1933 17.7666 94.1391 18.3228 94.0553 18.9205C93.9714 19.5181 93.8451 20.743 93.7074 21.6778C93.4552 23.9087 93.3365 24.0742 92.231 23.3444C91.5748 22.9053 91.3269 22.5084 91.4107 21.9108C91.4883 21.4966 91.537 20.6859 91.5499 20.1C91.5872 18.9992 92.5301 17.8585 93.5247 17.6945C93.8799 17.6359 94.1757 17.6601 94.1875 17.7311ZM125.098 18.6525C126.369 19.063 126.457 19.5958 125.926 22.3469C125.538 24.1987 125.366 24.4825 124.3 24.8773C123.649 25.1307 123.003 25.2006 122.879 25.1117C122.383 24.7557 123.293 18.1109 123.79 18.2479C123.909 18.3013 124.488 18.4976 125.098 18.6525ZM65.5871 37.226C65.9419 37.3864 66.9064 37.4827 67.7113 37.4959C69.0666 37.5277 69.108 37.5574 68.1723 37.8576C66.9881 38.1989 63.9583 37.969 63.8821 37.5073C63.8118 37.081 64.7412 36.9642 65.5871 37.226ZM71.5241 40.2602C71.4146 42.0296 71.3256 42.1537 70.4794 42.1109C68.3313 41.9179 68.1537 41.9472 68.7034 42.4038C68.9989 42.647 69.6082 42.8019 70.07 42.7257C70.6383 42.632 70.9576 42.7982 71.0221 43.1889C71.2213 44.3966 70.2348 50.3607 69.8441 50.4251C68.6364 50.6244 68.3541 49.5763 68.0615 44.0422C67.9816 42.231 68.0717 41.4499 68.5459 41.0068C68.8897 40.6582 69.0384 40.2324 68.9025 40.0723C68.5422 39.6575 69.402 38.6764 69.9165 38.9199C70.1472 38.9913 70.6031 38.8797 70.8876 38.6138C71.2135 38.3776 71.5156 38.2183 71.557 38.248C71.6339 38.2718 71.6028 39.1891 71.5241 40.2602Z" fill="#FF0000"/>
<path d="M96.631 18.1669C96.6182 18.7528 96.486 19.9422 96.3483 20.877C95.9111 23.9775 95.8697 23.9479 98.3316 24.0526C101.492 24.188 102.161 24.0412 102.038 23.2953C101.938 22.6914 102.369 19.5554 102.763 17.9581C102.87 17.5026 102.693 17.3129 102.172 17.2528C101.545 17.2104 101.456 17.3345 101.698 17.9149C101.874 18.3236 101.878 19.673 101.716 20.9037L101.428 23.1404L99.54 23.4154C96.7932 23.7955 96.3505 23.1023 97.0667 19.4815C97.2817 18.3514 97.6442 17.4525 97.8394 17.5297C98.0404 17.6425 98.1649 17.5125 98.1356 17.3349C98.1005 17.1218 97.7515 16.9969 97.3608 17.0614C96.899 17.1375 96.6676 17.5041 96.631 18.1669Z" fill="#FF0000"/>
<path d="M113.565 20.8467C113.284 22.681 113.009 24.3317 112.973 24.5566C112.907 24.8228 113.659 24.9542 115.103 24.8619C116.299 24.8107 117.731 24.8663 118.293 24.956C119.423 25.171 119.672 24.911 119.751 23.4019C119.777 22.4491 119.735 22.4194 119.562 23.1412C119.289 24.135 117.684 24.5821 115.335 24.2764C113.992 24.0966 113.944 24.0314 114.035 23.0314C114.119 22.4338 114.114 21.9603 114.007 21.9779C113.936 21.9896 114.008 21.5399 114.163 20.9306C114.573 19.6588 114.654 17.4928 114.298 17.5514C114.156 17.5748 113.817 19.0539 113.565 20.8467Z" fill="#FF0000"/>
<path d="M119.977 19.2419C119.7 22.2066 119.753 22.3073 120.325 20.2427C120.944 18.0243 120.974 17.545 120.442 17.6329C120.264 17.6622 120.056 18.3898 119.977 19.2419Z" fill="#FF0000"/>
<path d="M98.3144 27.2663C98.4199 27.9056 98.6389 27.906 99.5928 27.2743C99.9542 27.0322 100.073 26.8667 99.8242 26.9077C99.6052 26.9074 99.1614 26.8711 98.8242 26.8173C98.41 26.7397 98.25 26.8755 98.3144 27.2663Z" fill="#FF0000"/>
<path d="M101.788 27.3133C102.096 27.6275 103.848 27.6304 103.795 27.3107C103.771 27.1686 103.274 27.0317 102.694 27.0544C102.079 27.0829 101.694 27.1829 101.788 27.3133Z" fill="#FF0000"/>
<path d="M104.901 27.6028C105.108 27.7511 105.617 27.7401 106.067 27.5929C106.76 27.3692 106.712 27.304 105.694 27.326C104.967 27.3366 104.653 27.4248 104.901 27.6028Z" fill="#FF0000"/>
<path d="M97.4101 30.1888C97.2951 31.7037 97.4189 32.0117 98.2714 31.8711C98.6976 31.8008 98.68 31.6942 98.2545 31.3266C97.8704 30.9886 97.8059 30.5979 97.9198 29.7399C98.0392 29.1364 97.9927 28.6333 97.8506 28.6567C97.673 28.686 97.4943 29.3722 97.4101 30.1888Z" fill="#FF0000"/>
<path d="M108.996 27.8762C111.138 28.0336 113.316 27.9662 112.441 27.7458C112.021 27.6326 110.778 27.6187 109.695 27.688C108.174 27.7565 108.037 27.8154 108.996 27.8762Z" fill="#FF0000"/>
<path d="M113.955 28.0798C114.364 28.1219 114.861 28.2588 115.103 28.4013C115.31 28.5496 115.689 28.6331 115.973 28.5862C116.399 28.5159 116.381 28.4093 115.956 28.0417C115.66 27.7985 114.915 27.7026 114.311 27.8022C113.571 27.9608 113.476 28.0494 113.955 28.0798Z" fill="#FF0000"/>
<path d="M94.9353 34.2091C95.3491 34.5057 104.267 35.2603 105.113 35.0842C105.782 34.9373 103.019 34.554 98.7587 34.1622C94.9419 33.8067 94.3205 33.7997 94.9353 34.2091Z" fill="#FF0000"/>
<path d="M115.322 32.1597C115.232 32.5028 114.942 32.7331 114.64 32.6734C114.339 32.6138 114.244 32.7024 114.38 32.8624C114.74 33.2773 115.095 33.2187 115.783 32.5215C116.15 32.096 116.222 31.8653 115.873 31.7404C115.636 31.6335 115.376 31.8224 115.322 32.1597Z" fill="#FF0000"/>
<path d="M96.2186 41.9877C96.0937 42.3367 95.4463 47.2597 95.4086 48.5794C95.3544 49.1356 95.7386 49.4736 96.7203 49.8955C97.5069 50.24 98.3824 50.4605 98.7021 50.4077C99.8388 50.2202 103.909 47.907 104.004 47.3804C104.07 47.1142 103.692 46.3738 103.19 45.7634C102.688 45.1529 102.245 44.4598 102.21 44.2466C102.169 43.998 101.72 43.4883 101.247 43.0554C100.775 42.6226 100.449 42.4208 100.556 42.6222C100.692 42.7823 101.27 43.6355 101.855 44.5242C103.496 46.9535 103.495 47.3914 101.961 48.2648C99.366 49.7874 98.2649 49.9691 96.7452 49.1616C96.1007 48.7936 96.0714 48.616 96.3362 46.0183C96.7452 42.0833 96.7755 41.6039 96.5624 41.6391C96.4559 41.6567 96.3017 41.828 96.2186 41.9877Z" fill="#FF0000"/>
<path d="M112.439 43.2162C113.16 43.608 113.189 43.7856 113.057 45.4129C112.96 46.3775 112.62 48.0755 112.299 49.2231C111.941 50.5956 111.892 51.4063 112.141 51.5843C112.637 51.9402 112.572 52.2064 113.273 47.1651C113.782 43.6149 113.794 43.467 113.072 43.0752C112.676 42.8851 112.215 42.7423 112.002 42.7775C111.824 42.8068 112.001 42.9965 112.439 43.2162Z" fill="#FF0000"/>
<path d="M105.515 46.1457C104.952 46.713 104.424 47.2743 104.335 47.3985C104.122 47.6526 106.373 50.2368 106.763 50.1723C106.905 50.1489 107.248 50.4572 107.496 50.8541C108.027 51.6422 109.222 52.2478 109.483 51.8399C109.572 51.7158 108.621 50.8146 107.367 49.8537C106.073 48.8632 105.003 47.9086 104.962 47.6599C104.927 47.4468 105.408 46.8203 106.012 46.2827C106.617 45.7451 107.115 45.2251 107.103 45.1541C107.05 44.8344 106.523 45.1768 105.515 46.1457Z" fill="#FF0000"/>
<path d="M96.4349 42.0867C96.5109 42.0382 96.5614 41.93 96.616 41.8602C96.6877 41.7686 96.7545 41.6625 96.8381 41.5813C97.0564 41.3694 97.2663 41.3259 97.5656 41.3312C97.7874 41.3351 98.007 41.354 98.2198 41.4199C98.4557 41.4929 98.6721 41.6161 98.9064 41.693C99.2862 41.8175 99.6431 42.0084 99.97 42.2405C100.18 42.3897 100.395 42.5516 100.59 42.7192C100.676 42.7924 100.757 42.8721 100.836 42.9517C100.935 43.0507 101.052 43.1202 101.157 43.2106C101.224 43.2681 101.271 43.3445 101.33 43.4095C101.403 43.4909 101.489 43.5576 101.563 43.6363C101.674 43.7546 101.764 43.8809 101.88 43.9951" stroke="#FF0000" stroke-width="0.3" stroke-linecap="round"/>
<path d="M96.4126 43.2526C96.4532 42.7914 96.5024 42.3329 96.7858 41.9506C96.8992 41.7975 97.0524 41.6609 97.2193 41.5683C97.4152 41.4596 97.6541 41.4211 97.8742 41.3847" stroke="#FF0000" stroke-width="0.3" stroke-linecap="round"/>
<path d="M97.5988 41.3403C97.4216 41.3695 97.2473 41.3517 97.0716 41.4015C96.8634 41.4604 96.7407 41.5698 96.5753 41.6979C96.4517 41.7936 96.4101 42.0053 96.3622 42.1461C96.2905 42.3573 96.2275 42.6284 96.2393 42.8517" stroke="#FF0000" stroke-width="0.3" stroke-linecap="round"/>
<path d="M106.279 49.6348C106.466 49.676 106.594 49.8933 106.729 50.0101C107.02 50.2614 107.286 50.5326 107.566 50.7957C108.089 51.2888 108.665 51.693 109.323 51.9825C109.575 52.0935 109.815 52.157 110.093 52.1524C110.413 52.147 110.673 52.0893 110.951 51.9349C111.507 51.6263 112.04 51.3456 112.405 50.7991" stroke="#FF0000" stroke-width="0.3" stroke-linecap="round"/>
<path d="M112.467 51.3644C112.47 51.5407 112.246 51.7404 112.109 51.8127C111.848 51.9503 111.561 52.0611 111.271 52.1175C111.008 52.1687 110.74 52.205 110.474 52.2369C110.304 52.2573 110.136 52.2716 109.965 52.2467C109.696 52.2074 109.418 52.1304 109.175 52.0076C108.944 51.8908 108.743 51.7319 108.528 51.5895C108.411 51.5114 108.295 51.4505 108.203 51.341C108.142 51.2681 108.071 51.2035 108.002 51.1377" stroke="#FF0000" stroke-width="0.3" stroke-linecap="round"/>
<path d="M108.654 51.5117C108.932 51.5827 109.189 51.7217 109.454 51.8286C109.615 51.8934 109.787 51.9312 109.95 51.9911C110.056 52.0302 110.161 52.0518 110.276 52.0494C110.616 52.0424 110.977 51.9853 111.301 51.8795C111.455 51.8293 111.61 51.772 111.735 51.668C111.853 51.571 111.959 51.4575 112.068 51.3516C112.115 51.3066 112.481 50.8447 112.425 50.8275" stroke="#FF0000" stroke-width="0.3" stroke-linecap="round"/>
<path d="M112.329 51.1851C112.265 51.3305 112.197 51.481 112.114 51.6159C112.076 51.6759 111.996 51.7179 111.938 51.7553C111.753 51.8743 111.526 51.8838 111.32 51.9419" stroke="#FF0000" stroke-width="0.3" stroke-linecap="round"/>
<path d="M112.494 50.6771C112.511 50.9983 112.505 51.404 112.329 51.6848C112.294 51.7395 112.248 51.8188 112.187 51.8463C111.935 51.9603 111.691 52.0822 111.417 52.1408C111.151 52.1975 110.854 52.2 110.583 52.1946C110.326 52.1895 110.072 52.1876 109.819 52.1437C109.515 52.0913 109.227 51.997 108.953 51.8567C108.77 51.7632 108.638 51.6174 108.468 51.5121" stroke="#FF0000" stroke-width="0.3" stroke-linecap="round"/>
<path d="M106.622 45.4028C106.99 45.2057 107.31 44.876 107.638 44.6199C107.999 44.3381 108.394 44.1024 108.774 43.8473C109.13 43.6081 109.51 43.3987 109.878 43.1795C110.112 43.0411 110.347 42.9428 110.617 42.9063C111.062 42.8461 111.499 42.9056 111.943 42.8978C112.204 42.8932 112.437 42.971 112.682 43.062" stroke="#FF0000" stroke-width="0.3" stroke-linecap="round"/>
<path d="M112.983 43.3148C112.784 43.338 112.522 43.2253 112.332 43.1638C112.092 43.0857 111.815 43.0083 111.563 42.9974C111.283 42.9853 111.005 42.9421 110.729 43.0196C110.439 43.1012 110.123 43.2204 109.869 43.3862C109.609 43.5564 109.324 43.6803 109.045 43.8178C108.623 44.0264 108.203 44.2665 107.799 44.5089C107.48 44.7001 107.178 44.9505 106.912 45.2103C106.707 45.4111 106.525 45.6553 106.277 45.8054" stroke="#FF0000" stroke-width="0.3" stroke-linecap="round"/>
<path d="M97.7042 17.3418C98.4962 17.5066 99.3241 17.5521 100.129 17.5945C100.835 17.6316 101.588 17.833 102.293 17.7166" stroke="#FF0000" stroke-width="0.3" stroke-linecap="round"/>
<path d="M97.2792 17.2891C99.0061 17.1806 100.694 17.4527 102.4 17.6722" stroke="#FF0000" stroke-width="0.3" stroke-linecap="round"/>
<path d="M102.257 17.8712C101.981 17.9167 101.71 17.9321 101.429 17.9299C100.948 17.926 100.485 17.847 100.013 17.7655C99.4615 17.6703 98.8998 17.6315 98.3444 17.5633C98.1079 17.5343 97.8553 17.5017 97.619 17.4978C97.557 17.4968 97.4911 17.4881 97.4307 17.498" stroke="#FF0000" stroke-width="0.3" stroke-linecap="round"/>
<path d="M97.5306 17.2188C98.3483 17.0839 99.2144 17.2389 100.022 17.3599C100.482 17.4286 100.941 17.4743 101.399 17.5355C101.723 17.5787 102.046 17.6507 102.371 17.6773" stroke="#FF0000" stroke-width="0.3" stroke-linecap="round"/>
<path d="M102.286 17.5161C101.444 17.3582 100.585 17.3961 99.7312 17.2977C99.022 17.2159 98.2403 17.3065 97.535 17.4229" stroke="#FF0000" stroke-width="0.3" stroke-linecap="round"/>
<path d="M120.184 19.5957C119.892 20.5366 119.657 21.4976 119.418 22.4526C119.29 22.9667 119.159 23.483 119.039 23.9992C119.012 24.1147 118.972 24.2409 118.962 24.3585" stroke="#FF0000" stroke-width="0.3" stroke-linecap="round"/>
<path d="M120.234 19.5693C120.234 19.6944 120.165 19.8155 120.128 19.9325C120.038 20.2172 119.974 20.5193 119.899 20.8085C119.843 21.0255 119.804 21.2419 119.742 21.4578C119.672 21.6994 119.583 21.9376 119.528 22.1834C119.447 22.5465 119.342 22.9125 119.298 23.2826C119.276 23.4623 119.256 23.6298 119.218 23.8057" stroke="#FF0000" stroke-width="0.3" stroke-linecap="round"/>
<path d="M119.36 23.8913C119.586 23.4556 119.671 22.9417 119.784 22.4681C119.926 21.8718 119.964 21.2517 120.056 20.6463C120.109 20.2994 120.148 19.9454 120.23 19.604C120.289 19.3531 120.371 19.0787 120.365 18.8174" stroke="#FF0000" stroke-width="0.3" stroke-linecap="round"/>
<path d="M120.285 19.3232C120.166 19.9082 120.058 20.4973 119.926 21.0793C119.824 21.5275 119.66 21.965 119.577 22.417C119.524 22.703 119.47 22.9894 119.42 23.276C119.399 23.4009 119.39 23.5323 119.363 23.6554C119.345 23.7375 119.35 23.8182 119.283 23.8674" stroke="#FF0000" stroke-width="0.3" stroke-linecap="round"/>
<path d="M114.282 19.9853C114.301 20.3698 114.213 20.7385 114.135 21.1123C114.094 21.3125 114.054 21.5123 113.999 21.7094C113.945 21.9065 113.866 22.1048 113.846 22.3095C113.83 22.4679 113.843 22.6436 113.803 22.7981C113.775 22.9067 113.795 23.0893 113.732 23.1777" stroke="#FF0000" stroke-width="0.3" stroke-linecap="round"/>
<path d="M120.58 17.9069C119.973 18.007 119.36 17.9741 118.747 17.9679C118.23 17.9628 117.711 17.9691 117.196 17.9259C116.944 17.9048 116.698 17.8846 116.445 17.8997C116.004 17.9259 115.568 17.9028 115.127 17.9215C114.843 17.9335 114.549 17.9445 114.267 17.9082" stroke="#FF0000" stroke-width="0.3" stroke-linecap="round"/>
<path d="M114.286 17.6865C114.384 17.6739 114.473 17.6948 114.571 17.7023C114.901 17.7275 115.24 17.7246 115.57 17.7321C115.83 17.7379 116.087 17.7135 116.346 17.7054C116.62 17.6968 116.891 17.7237 117.163 17.7429C117.588 17.7729 118.015 17.7886 118.441 17.7937C118.877 17.799 119.312 17.8321 119.747 17.8347C120.017 17.8363 120.294 17.85 120.559 17.8923" stroke="#FF0000" stroke-width="0.3" stroke-linecap="round"/>
<path d="M120.545 17.8025C120.221 17.8261 119.898 17.8766 119.573 17.8998C119.056 17.937 118.527 17.941 118.007 17.9535C117.439 17.9671 116.867 17.9331 116.298 17.9273C115.879 17.923 115.462 17.8952 115.043 17.8981C114.849 17.8994 114.636 17.9192 114.443 17.8926C114.392 17.8856 114.34 17.8896 114.303 17.8559C114.219 17.7777 114.232 17.5262 114.331 17.4612C114.411 17.408 114.597 17.4279 114.683 17.4386C115.132 17.4949 115.579 17.4494 116.03 17.4849C116.436 17.5168 116.836 17.5266 117.243 17.517C117.527 17.5102 117.81 17.5389 118.094 17.5459C118.337 17.5518 118.576 17.5642 118.817 17.5959C119.042 17.6255 119.3 17.6667 119.516 17.735C119.794 17.8231 120.112 17.7614 120.388 17.8466" stroke="#FF0000" stroke-width="0.3" stroke-linecap="round"/>
<path d="M97.9979 31.957C97.9979 31.957 115.842 32.2303 114.458 32.9937" stroke="#FF0000" stroke-width="0.3"/>
<path d="M98.3379 31.9605C98.3057 31.9347 98.2439 31.9507 98.2051 31.9519C98.1388 31.9541 98.071 31.9347 98.0139 31.902C97.9144 31.845 97.8201 31.7712 97.7451 31.684C97.6517 31.5755 97.6184 31.4253 97.5839 31.29" stroke="#FF0000" stroke-width="0.3" stroke-linecap="round"/>
<path d="M99.4691 31.9917C99.2533 31.9713 99.0535 31.884 98.8511 31.8119C98.6451 31.7385 98.4243 31.6783 98.2358 31.5648C98.1386 31.5064 98.0502 31.435 97.9534 31.3764C97.9095 31.3499 97.8655 31.3096 97.8202 31.2891" stroke="#FF0000" stroke-width="0.3" stroke-linecap="round"/>
<path d="M101.094 32.0358C100.847 32.0765 100.593 32.1095 100.343 32.1219C100.191 32.1294 100.044 32.1105 99.8928 32.1068C99.7038 32.1022 99.5109 32.1002 99.3219 32.1069C99.1941 32.1114 99.0667 32.1116 98.939 32.1154C98.8182 32.1189 98.6977 32.0864 98.5773 32.0799C98.4263 32.0717 98.2486 32.0395 98.109 31.9789C98.021 31.9407 97.937 31.8969 97.8479 31.8616C97.7724 31.8318 97.7273 31.7895 97.6869 31.7179C97.6367 31.6288 97.6296 31.5316 97.607 31.434C97.5874 31.3494 97.5614 31.2692 97.5471 31.1826" stroke="#FF0000" stroke-width="0.3" stroke-linecap="round"/>
<path d="M97.8702 28.9799C97.89 28.6208 98.0439 28.2642 98.2268 27.9584C98.3144 27.8122 98.4345 27.6903 98.5478 27.5641C98.6122 27.4922 98.6993 27.4332 98.7547 27.356" stroke="#FF0000" stroke-width="0.3" stroke-linecap="round"/>
<path d="M98.663 27.1544C98.6122 27.1764 98.57 27.241 98.5386 27.2835C98.4666 27.3811 98.3949 27.4792 98.333 27.5837C98.2503 27.7234 98.1762 27.8897 98.1309 28.0457C98.109 28.1209 98.1006 28.1992 98.0805 28.2749C98.055 28.3712 98.0203 28.4648 97.9941 28.561C97.9652 28.6671 97.9681 28.7772 97.9445 28.8846C97.9233 28.9811 97.9051 29.0782 97.8819 29.1743C97.8575 29.2747 97.8314 29.3755 97.8178 29.478C97.8101 29.5367 97.7991 29.5912 97.7798 29.6467" stroke="#FF0000" stroke-width="0.3" stroke-linecap="round"/>
<path d="M97.7171 29.8735C97.7053 29.6466 97.7578 29.4316 97.7998 29.2103C97.8467 28.9631 97.9305 28.7152 98.0149 28.478C98.0725 28.316 98.1183 28.1491 98.1633 27.9831C98.2059 27.826 98.2556 27.6685 98.2854 27.5083C98.3002 27.4291 98.3226 27.3538 98.3456 27.2767C98.363 27.2182 98.3659 27.1518 98.3919 27.0964C98.4191 27.0386 98.4548 26.99 98.4974 26.9427C98.5168 26.921 98.5465 26.9225 98.574 26.9179" stroke="#FF0000" stroke-width="0.3" stroke-linecap="round"/>
<path d="M115.341 32.7602C115.276 32.8172 115.214 32.8642 115.137 32.9047C115.073 32.9383 115.011 32.9761 114.944 33.0027C114.736 33.0856 114.524 33.1308 114.299 33.0987C114.166 33.0797 114.038 33.0517 113.912 33.0046C113.742 32.9414 113.576 32.8685 113.412 32.7903C113.248 32.7122 113.077 32.6272 112.899 32.5879" stroke="#FF0000" stroke-width="0.3" stroke-linecap="round"/>
<path d="M113.208 32.6504C113.423 32.7087 113.637 32.7711 113.854 32.8206C113.919 32.8355 113.985 32.8517 114.051 32.8615C114.126 32.8725 114.201 32.8747 114.276 32.8794C114.339 32.8833 114.4 32.8955 114.463 32.9038C114.532 32.913 114.597 32.9077 114.666 32.8989C114.751 32.8879 114.819 32.8769 114.885 32.8222" stroke="#FF0000" stroke-width="0.3" stroke-linecap="round"/>
<path d="M113.41 32.6946C113.342 32.6898 113.278 32.6738 113.211 32.66C113.137 32.6445 113.062 32.6345 112.987 32.6245C112.905 32.6136 112.823 32.6028 112.742 32.5861C112.649 32.567 112.558 32.5493 112.467 32.5206C112.408 32.5021 112.348 32.4975 112.29 32.4795" stroke="#FF0000" stroke-width="0.3" stroke-linecap="round"/>
<path d="M115.703 32.3638C115.657 32.4485 115.59 32.5149 115.519 32.5789C115.495 32.6013 115.473 32.6268 115.447 32.6468C115.43 32.6593 115.412 32.6717 115.398 32.6873C115.377 32.711 115.344 32.7238 115.324 32.7486C115.316 32.7587 115.291 32.7619 115.288 32.7729" stroke="#FF0000" stroke-width="0.3" stroke-linecap="round"/>
<path d="M115.687 28.3796C115.687 28.3796 115.85 29.3662 116.013 30.3529C116.176 31.3396 115.764 31.9143 115.764 31.9143" stroke="#FF0000" stroke-width="0.3"/>
<path d="M115.918 32.0478C116.024 31.9926 116.051 31.8465 116.08 31.7415C116.141 31.5202 116.13 31.2837 116.107 31.0573C116.096 30.9448 116.082 30.8338 116.063 30.7223C116.056 30.6805 116.05 30.6408 116.048 30.599" stroke="#FF0000" stroke-width="0.3" stroke-linecap="round"/>
<path d="M116.001 30.5957C115.976 30.7883 115.934 30.9775 115.891 31.1669C115.861 31.2981 115.832 31.4324 115.783 31.5578C115.727 31.7051 115.642 31.8403 115.586 31.9878C115.558 32.0601 115.521 32.1312 115.5 32.2056C115.487 32.2509 115.482 32.2973 115.474 32.3436" stroke="#FF0000" stroke-width="0.3" stroke-linecap="round"/>
<path d="M116.062 30.3266C116.014 30.0199 116.035 29.7179 116.062 29.41C116.066 29.3577 116.061 29.3054 116.065 29.253C116.069 29.1784 116.083 29.1039 116.091 29.0295C116.102 28.9226 116.118 28.8106 116.12 28.703C116.122 28.611 116.124 28.527 116.077 28.442C116.025 28.3469 115.959 28.2632 115.901 28.1729" stroke="#FF0000" stroke-width="0.3" stroke-linecap="round"/>
<path d="M115.886 28.2094C115.902 28.3975 115.911 28.5886 115.901 28.777C115.894 28.9114 115.909 29.0508 115.929 29.1837C115.93 29.1896 115.93 29.2254 115.944 29.2187C115.998 29.1919 115.983 29.0325 115.983 28.9904C115.982 28.8641 115.964 28.7402 115.95 28.6151C115.946 28.5792 115.941 28.5486 115.93 28.5147" stroke="#FF0000" stroke-width="0.3" stroke-linecap="round"/>
<path d="M115.997 28.2879C116.033 28.2895 116.066 28.3325 116.091 28.3553C116.119 28.3822 116.15 28.4147 116.171 28.4481C116.2 28.4958 116.207 28.5544 116.229 28.6055C116.263 28.6846 116.266 28.7833 116.269 28.8678C116.272 28.9393 116.261 29.007 116.252 29.0779C116.237 29.1919 116.225 29.3067 116.202 29.4194C116.174 29.5507 116.158 29.6875 116.115 29.8152C116.077 29.9279 116.05 30.0376 116.043 30.1564C116.038 30.2526 116.02 30.3456 116.024 30.4427C116.026 30.4832 116.025 30.5286 116.019 30.5686" stroke="#FF0000" stroke-width="0.3" stroke-linecap="round"/>
<path d="M115.875 29.2647C115.819 29.1404 115.78 29.0109 115.719 28.8878C115.685 28.8173 115.644 28.7496 115.604 28.6819C115.582 28.6438 115.565 28.6044 115.539 28.5682C115.482 28.4878 115.413 28.4179 115.343 28.3488C115.272 28.2781 115.208 28.2006 115.137 28.1294C115.124 28.1165 115.111 28.1043 115.102 28.0889" stroke="#FF0000" stroke-width="0.3" stroke-linecap="round"/>
<path d="M114.795 27.8927C114.392 27.9591 113.979 27.9027 113.574 27.9044C113.332 27.9055 113.088 27.9374 112.848 27.963C112.582 27.9914 112.323 28.0049 112.055 28.0169C111.869 28.0253 111.684 28.0446 111.498 28.0457C111.27 28.047 111.045 28.0825 110.818 28.0802C110.274 28.0749 109.733 27.9846 109.19 27.9766C108.914 27.9725 108.637 27.9546 108.365 27.9159C108.024 27.8675 107.692 27.7745 107.355 27.7082C107.023 27.643 106.68 27.5425 106.343 27.515C106.183 27.5019 105.993 27.5064 105.84 27.4688" stroke="#FF0000" stroke-width="0.3" stroke-linecap="round"/>
<path d="M99.2358 27.1201C99.3613 27.1045 99.4875 27.116 99.6136 27.1165C99.7716 27.1171 99.9287 27.102 100.086 27.1134C100.29 27.1282 100.491 27.1277 100.694 27.1268C100.879 27.126 101.061 27.1371 101.245 27.1283C101.708 27.1063 102.18 27.1002 102.642 27.1426C102.771 27.1544 102.899 27.1769 103.027 27.1941C103.161 27.212 103.296 27.2164 103.429 27.2344C103.787 27.2828 104.145 27.3145 104.505 27.3405C104.718 27.3558 104.924 27.416 105.138 27.4278C105.483 27.4469 105.83 27.4536 106.174 27.4817" stroke="#FF0000" stroke-width="0.3" stroke-linecap="round"/>
<path d="M105.931 27.5096C105.805 27.5321 105.682 27.5621 105.555 27.583C105.336 27.6191 105.121 27.6162 104.899 27.6212C104.64 27.6269 104.376 27.6099 104.118 27.5864C103.96 27.572 103.787 27.5625 103.631 27.5282C103.387 27.4743 103.131 27.4434 102.882 27.4119C102.614 27.378 102.347 27.338 102.079 27.3035C101.788 27.2662 101.502 27.2356 101.21 27.2682C100.892 27.3037 100.572 27.3175 100.253 27.333C100.015 27.3446 99.7891 27.3197 99.5535 27.3073C99.4674 27.3028 99.3787 27.2671 99.2939 27.2515C99.1854 27.2316 99.077 27.2129 98.9678 27.1973" stroke="#FF0000" stroke-width="0.3" stroke-linecap="round"/>
<path d="M100.557 31.8892L100.811 27.2865" stroke="#FF0000" stroke-width="0.3"/>
<path d="M105.16 32.1441L105.414 27.5413" stroke="#FF0000" stroke-width="0.3"/>
<path d="M109.762 32.398L110.016 27.7952" stroke="#FF0000" stroke-width="0.3"/>
<path d="M113.872 32.7339L114.126 28.1312" stroke="#FF0000" stroke-width="0.3"/>
<path d="M113.948 27.9619C113.97 28.0037 114.007 28.0383 114.029 28.0801C114.042 28.1058 114.056 28.1306 114.067 28.1578C114.088 28.2099 114.097 28.265 114.111 28.3192C114.111 28.3198 114.117 28.3499 114.119 28.3445C114.124 28.3231 114.13 28.3017 114.136 28.2805C114.146 28.2485 114.156 28.215 114.173 28.1858C114.191 28.1545 114.218 28.128 114.232 28.0943C114.238 28.0774 114.245 28.0615 114.254 28.0459" stroke="#FF0000" stroke-width="0.3" stroke-linecap="round"/>
<path d="M98.1857 28.1638C98.2449 28.0373 98.3267 27.9349 98.4206 27.8322C98.4761 27.7716 98.5363 27.715 98.5977 27.6605C98.6752 27.5917 98.7501 27.5199 98.8395 27.4661C98.9131 27.4218 98.9976 27.3906 99.0762 27.3561C99.1315 27.3318 99.1864 27.3166 99.2456 27.3059C99.3494 27.2871 99.4499 27.2565 99.5508 27.2267" stroke="#FF0000" stroke-width="0.3" stroke-linecap="round"/>
<path d="M100.765 27.6509C100.714 27.5416 100.631 27.4646 100.552 27.3748C100.527 27.3461 100.484 27.3104 100.47 27.2754" stroke="#FF0000" stroke-width="0.3" stroke-linecap="round"/>
<path d="M100.867 27.5657C100.905 27.5069 100.934 27.4484 100.987 27.4023C101.011 27.3809 101.032 27.3506 101.058 27.3325C101.094 27.3076 101.132 27.2762 101.173 27.2622" stroke="#FF0000" stroke-width="0.3" stroke-linecap="round"/>
<path d="M105.12 31.905C105.099 31.9202 105.081 31.9375 105.061 31.9541C105.044 31.9679 105.032 31.9853 105.016 31.999C104.98 32.0307 104.942 32.0729 104.892 32.0812" stroke="#FF0000" stroke-width="0.3" stroke-linecap="round"/>
<path d="M105.236 31.957C105.271 31.9726 105.29 32.0013 105.321 32.0216C105.346 32.0377 105.38 32.0469 105.407 32.0599C105.47 32.0911 105.538 32.0842 105.604 32.1021" stroke="#FF0000" stroke-width="0.3" stroke-linecap="round"/>
<path d="M117.156 19.3816C116.807 19.9657 116.742 20.6077 116.635 21.2727C116.543 21.8461 116.514 22.7079 116.055 23.132C115.827 23.3425 115.466 23.6782 115.148 23.7307C114.987 23.7573 114.805 23.663 114.661 23.6183" stroke="#FF0000" stroke-width="2" stroke-linecap="round"/>
<path d="M114.584 23.6307C114.334 22.1188 114.887 20.6352 115.044 19.1447C115.096 18.6538 115.716 18.58 116.125 18.5281C116.432 18.4894 116.726 18.5382 117.03 18.5652C117.464 18.6038 117.928 18.538 118.365 18.529C118.68 18.5226 119.134 18.4924 119.434 18.6111" stroke="#FF0000" stroke-width="2" stroke-linecap="round"/>
<path d="M119.459 19.0018C119.36 19.3399 119.395 19.7038 119.347 20.0499C119.317 20.2671 119.165 20.4655 119.08 20.6635C118.915 21.0497 118.796 21.51 118.71 21.9251C118.662 22.1553 118.665 22.3865 118.563 22.5979C118.467 22.7955 118.413 23.0425 118.355 23.2543C118.185 23.8788 117.495 24.0374 116.921 24.065C116.509 24.0847 116.097 23.8591 115.686 23.8042C115.419 23.7686 115.452 23.7779 115.646 23.6137" stroke="#FF0000" stroke-width="2" stroke-linecap="round"/>
<path d="M116.772 23.2692C117.518 22.5328 117.916 21.4658 118.255 20.4921C118.417 20.0253 118.529 19.5459 118.619 19.0606C118.681 18.7226 118.61 19.0448 118.585 19.1494C118.36 20.0938 118.237 21.056 118.099 22.0163C118.055 22.3192 118.029 22.5253 118.077 22.8172" stroke="#FF0000" stroke-width="2" stroke-linecap="round"/>
<path d="M101.063 22.9417C100.422 22.9781 99.9354 21.7979 99.7128 21.346C99.5338 20.9827 99.312 20.6454 99.1339 20.2804C98.9309 19.8643 98.6595 19.4921 98.4095 19.103C98.2403 18.8396 98.0451 18.6199 97.936 18.3311" stroke="#FF0000" stroke-width="2" stroke-linecap="round"/>
<path d="M97.9359 18.3314C97.8916 18.921 97.685 19.4549 97.604 20.038C97.5501 20.4264 97.6209 20.824 97.5339 21.2063C97.464 21.5135 97.4568 21.8258 97.4403 22.1397C97.4235 22.4591 97.4253 22.6351 97.8074 22.5721C98.2585 22.4977 98.9323 22.3155 99.3278 22.6521C99.3971 22.7111 98.941 22.7794 98.8901 22.7878C98.7276 22.8146 98.5555 22.8629 98.3907 22.868C97.8931 22.8834 98.1956 21.6116 98.2863 21.3582C98.359 21.1551 98.4896 21.0187 98.6666 20.9012C98.9261 20.7287 99.0442 20.9144 99.2273 21.1395C99.4948 21.4685 99.8283 21.934 100.303 21.9238" stroke="#FF0000" stroke-width="2" stroke-linecap="round"/>
<path d="M101.108 22.2642C101.152 21.9935 101.195 21.6897 101.265 21.4322C101.304 21.2885 101.28 21.1978 101.266 21.053C101.251 20.9029 101.297 20.7867 101.306 20.6455C101.323 20.3642 101.453 20.084 101.413 19.8085C101.358 19.4283 101.444 19.0382 101.38 18.6485C101.351 18.4737 100.275 18.7224 100.08 18.7359C99.6383 18.7664 99.2454 18.7063 98.8497 18.505C98.6686 18.4129 99.1381 18.8759 99.1795 18.9238C99.5267 19.3261 99.8121 19.7313 100.211 20.09C100.461 20.3146 100.515 20.8189 100.605 21.1248" stroke="#FF0000" stroke-width="2" stroke-linecap="round"/>
<path d="M99.2383 27.6607C99.0605 27.7399 98.9971 27.7765 98.9114 27.9446C98.7748 28.2125 98.6453 28.4958 98.5613 28.785C98.4327 29.2279 98.3926 29.626 98.4089 30.0878C98.4187 30.3685 98.4944 30.8086 98.6783 31.0239C98.9201 31.307 99.3044 31.3826 99.6303 31.5089C100.224 31.7388 100.885 31.9064 101.523 31.9377C102.044 31.9632 102.555 31.9829 103.074 32.0268C103.699 32.0796 104.33 32.0237 104.957 32.0532C106.046 32.1046 107.134 32.1645 108.223 32.2157C109.221 32.2625 110.207 32.397 111.198 32.5234C112.223 32.6543 113.246 32.7132 114.279 32.6317C114.548 32.6104 114.834 32.5864 115.096 32.5128C115.281 32.4609 115.364 32.3096 115.451 32.1507C115.689 31.7207 115.897 31.2485 115.989 30.7636C116.09 30.2323 116.142 29.6918 116.214 29.1565C116.23 29.0424 116.212 28.9263 116.187 28.8145C116.15 28.6521 116.08 28.6426 115.926 28.618C115.681 28.5789 115.395 28.6633 115.15 28.6853C114.596 28.7351 114.027 28.6997 113.472 28.6921C112.776 28.6826 112.094 28.6561 111.397 28.7006C110.417 28.7633 109.435 28.7086 108.454 28.747C106.946 28.806 105.438 28.7966 103.934 28.6685C103.519 28.6332 103.099 28.617 102.688 28.5514C102.125 28.4616 101.567 28.3382 101.008 28.2248C100.57 28.1359 100.13 28.061 99.6926 27.9755C99.5775 27.953 99.4525 27.915 99.3342 27.9324C99.0128 27.9797 99.4957 27.9084 99.5684 27.9001C100.283 27.8193 100.994 27.971 101.701 28.0578C103.213 28.2434 104.729 28.466 106.253 28.5143C107.396 28.5506 108.528 28.5311 109.669 28.628C110.277 28.6797 110.867 28.7345 111.47 28.8308C111.864 28.8936 112.257 28.9568 112.65 29.0242C113.022 29.0878 113.396 29.1129 113.772 29.0867C113.976 29.0724 114.173 29.082 114.376 29.1068C114.591 29.1331 114.866 29.1421 115.066 29.2341C115.085 29.2426 114.504 30.3362 114.46 30.417C114.27 30.7592 114.017 31.107 113.734 31.38C113.719 31.3941 113.514 31.544 113.602 31.5295C113.804 31.4962 113.918 31.3185 113.817 31.1299C113.752 31.0098 113.488 31.0675 113.375 31.0623C112.782 31.0355 112.215 30.7975 111.637 30.675C110.91 30.521 110.17 30.4571 109.433 30.3677C108.543 30.2598 107.651 30.1549 106.764 30.0255C105.726 29.8741 104.689 29.7295 103.651 29.5856C102.84 29.4733 102.032 29.3459 101.231 29.1767C100.656 29.0552 100.14 28.7579 99.5677 28.6221C99.4046 28.5834 99.2385 28.5461 99.0739 28.5135C98.9959 28.4981 99.1012 28.5863 99.1098 28.5955C99.3412 28.8431 99.5166 29.1492 99.62 29.4711C99.7195 29.7812 99.8781 30.0347 100.091 30.2815C100.516 30.7759 101.238 30.9135 101.845 31.0429C103.539 31.4037 105.307 31.3134 107.026 31.4756C107.597 31.5296 108.169 31.6489 108.744 31.6121" stroke="#FF0000" stroke-width="2" stroke-linecap="round"/>
<path d="M103.983 47.3906L104.017 47.597" stroke="#FF0000" stroke-width="2" stroke-linecap="round"/>
<path d="M103.983 47.3903C103.571 47.241 103.156 47.1104 102.821 46.8105C101.975 46.0528 101.344 45.1443 100.613 44.2922C99.7645 43.3038 98.8832 42.4003 97.8557 41.5906C97.6078 41.3953 97.5153 41.3982 97.3421 41.6901C97.1074 42.0854 96.9885 42.4687 96.829 42.8995C96.4069 44.0399 96.457 45.4039 96.5506 46.6023C96.587 47.0682 96.637 47.5184 96.7131 47.98C96.7807 48.3895 96.7922 48.868 97.0081 49.2327C97.4719 50.0165 98.8052 49.6223 99.5318 49.5025C100.791 49.2947 102.004 49.1176 103.059 48.3612C103.362 48.1443 103.677 47.931 104 47.7466C104.054 47.7158 104.114 47.6246 104.18 47.6227C104.408 47.6164 104.722 47.9202 104.896 48.0347C105.458 48.4042 105.912 48.8115 106.392 49.2717C106.896 49.754 107.494 50.0767 108.036 50.5053C108.893 51.1835 109.908 51.3781 110.881 51.832C111.619 52.1762 111.929 51.5344 112.034 50.8615C112.084 50.5437 112.063 50.2322 112.137 49.9141C112.222 49.5493 112.381 49.2064 112.491 48.8487C112.738 48.0442 112.835 47.2464 112.938 46.4194C113.011 45.8367 113.199 45.2998 113.13 44.7066C113.087 44.3344 113.045 43.9195 112.94 43.5572C112.872 43.3213 112.125 43.5561 111.961 43.5832C111.272 43.6969 110.557 43.9718 109.941 44.2934C109.052 44.7567 108.135 45.2094 107.293 45.7548C106.511 46.2615 105.64 46.6812 104.894 47.2399C104.717 47.3727 104.496 47.4871 104.336 47.6383C104.304 47.6678 104.203 47.7197 104.245 47.7298C104.882 47.8835 105.646 47.7003 106.257 47.5393C107.253 47.2764 108.168 46.8113 109.118 46.4255C109.674 46.1996 110.234 45.9896 110.741 45.6631C111.028 45.478 111.386 45.3123 111.648 45.0953C111.731 45.027 112.191 44.8142 112.205 44.9534C112.257 45.4714 112.03 46.0773 111.897 46.5677C111.688 47.3337 111.47 48.0866 111.307 48.8644C111.218 49.29 111.212 49.983 110.837 50.2611C110.806 50.2838 110.548 50.5003 110.505 50.4425C110.128 49.9453 110.334 48.8852 110.43 48.3467C110.5 47.9513 110.607 47.5581 110.734 47.1775C110.761 47.0996 110.862 47.0253 110.829 46.9499C110.822 46.9331 110.058 47.6294 110.043 47.6449C109.513 48.2005 109.1 48.8199 108.843 49.5447C108.828 49.5873 108.629 50.0436 108.733 50.0928C108.881 50.1627 109.089 49.9021 109.107 49.7897C109.24 48.9577 108.309 48.1821 107.744 47.7356C107.48 47.5274 107.048 47.1556 106.669 47.218C106.431 47.2574 106.593 47.8724 106.616 48.0041C106.701 48.4891 106.907 49.053 107.469 49.1059C107.553 49.1138 107.741 49.1271 107.826 49.0883C107.962 49.0256 107.526 49.0541 107.379 49.0207C106.62 48.8485 105.909 48.4856 105.124 48.4534C104.884 48.4436 104.644 48.4283 104.404 48.4279C103.696 48.4267 103.043 47.8312 102.424 47.5444C102.003 47.3494 101.391 46.9498 100.92 46.9945C100.719 47.0136 100.162 47.0203 100.012 47.1678C99.7913 47.3856 99.6189 47.7458 99.4817 48.0209C99.3827 48.2194 99.3169 48.2497 99.0971 48.367C98.6494 48.6059 98.1164 48.8594 97.6056 48.6425C97.3498 48.5338 97.6828 48.4503 97.8061 48.4121C98.5274 48.1886 99.2473 48.2544 99.9891 48.2228C100.348 48.2075 100.785 48.1725 101.119 48.0217C101.162 48.0024 101.039 47.9708 100.996 47.9537C100.812 47.8814 100.641 47.796 100.475 47.6892C99.4742 47.046 98.9528 45.9721 98.8657 44.8042C98.8138 44.1086 98.4626 43.8533 97.9544 43.3851C97.8824 43.3188 97.5848 42.8725 97.5183 43.1155C97.3003 43.9126 97.3704 44.8381 97.3603 45.6561C97.3526 46.281 97.3447 46.9037 97.3276 47.5282C97.3251 47.6176 97.2454 48.4607 97.4847 48.3739C98.0304 48.1759 98.323 47.3585 98.4787 46.8672C98.7024 46.1617 98.7626 45.4296 98.7976 44.6947C98.8063 44.5121 98.7258 44.212 98.9989 44.2728C99.442 44.3716 99.7418 44.8689 99.9946 45.2039C100.189 45.4623 100.343 45.7693 100.571 46.001C100.706 46.1389 100.891 46.1681 101.068 46.2311C101.434 46.3614 101.798 46.4423 102.188 46.4173C102.625 46.3894 103.161 46.6894 103.523 46.9038C104.044 47.2133 103.641 47.2109 103.511 46.9057C103.312 46.4363 103.722 46.043 104.118 45.8546C104.508 45.6689 104.721 45.8199 105.026 46.0758C105.257 46.27 105.307 46.4233 105.353 46.6991C105.426 47.1445 105.628 47.6683 105.89 48.0296" stroke="#FF0000" stroke-width="2" stroke-linecap="round"/>
<path d="M102.244 48.7386C101.676 49.1083 101.126 49.5696 100.596 49.9939C100.231 50.2862 99.8653 50.5632 99.4713 50.8154C99.1977 50.9906 98.8964 51.0369 98.5949 51.1425C97.7982 51.4216 96.443 52.2251 95.7442 51.3536C95.4342 50.967 95.5837 50.4448 95.6724 50.0081C95.8235 49.2648 96.096 48.5108 96.3972 47.8157C96.4256 47.7503 96.6311 47.1814 96.6808 47.3391C96.8854 47.9883 96.675 48.7984 96.6266 49.4562C96.5901 49.9533 96.5527 50.5432 96.635 51.0418" stroke="#FF0000" stroke-width="2" stroke-linecap="round"/>
<path d="M93.7997 17.8684C93.8185 18.9229 93.7373 19.9741 93.7624 21.0313C93.7723 21.4451 93.7119 21.8224 93.6787 22.2289C93.6194 22.9545 93.4995 23.3304 92.7834 23.4909C92.4773 23.5596 92.2495 23.61 92.1384 23.2575C92.0196 22.8806 92.0719 22.4832 92.1042 22.0977C92.168 21.3356 92.2159 20.5713 92.271 19.8085C92.2756 19.7439 92.1837 18.7506 92.2764 18.6896C92.2963 18.6765 92.8745 20.632 92.9093 20.8432" stroke="#FF0000" stroke-width="2" stroke-linecap="round"/>
<path d="M123.305 25.3004C123.239 24.6452 123.513 23.99 123.619 23.3487C123.786 22.3355 124.06 21.3444 124.221 20.3338C124.301 19.8311 124.246 19.3142 124.378 18.8245C124.507 18.3433 124.867 18.3897 125.299 18.4936C126.383 18.7543 126.615 19.672 126.669 20.6679C126.704 21.3088 126.629 21.9441 126.539 22.5784C126.459 23.1441 126.408 23.7684 126.218 24.3084C126.009 24.901 125.686 25.2983 124.994 25.0839C124.649 24.9772 124.474 24.4579 124.444 24.1407C124.355 23.2009 124.483 22.2496 124.451 21.3079C124.445 21.104 124.31 20.3781 124.471 20.1866C124.646 19.9783 124.902 20.1964 124.989 20.3605C125.511 21.3429 125.24 22.5812 125.278 23.6413C125.293 24.0464 125.04 23.6992 124.855 23.5322" stroke="#FF0000" stroke-width="2" stroke-linecap="round"/>
<path d="M123.526 20.6599C123.648 20.2368 123.701 18.9281 123.772 19.3624C123.876 19.9925 123.766 20.6682 123.815 21.3064C123.86 21.8768 123.739 22.4932 123.696 23.0652C123.673 23.3767 123.691 23.677 123.681 23.9885" stroke="#FF0000" stroke-width="2" stroke-linecap="round"/>
<path d="M103.586 59.0716C103.427 59.1403 103.5 59.2455 103.488 59.3875" stroke="#FF0000" stroke-width="4" stroke-linecap="round"/>
<path d="M102.524 68.9886C102.535 69.1552 102.486 69.2896 102.45 69.4504" stroke="#FF0000" stroke-width="4" stroke-linecap="round"/>
<rect x="1" y="70" width="212" height="47" fill="white" fill-opacity="0.61" stroke="#FF0000" stroke-width="2" stroke-linecap="square" stroke-dasharray="2 4 6 8"/>
<path d="M157.998 89.3576L159.419 87.4961H164.857L166.176 89.3576V98.7497L164.837 100.527H159.419L157.998 98.7497V89.3576ZM156.33 87.9615C156.247 88.0884 156 88.3845 156 88.8076V99.2573C156 99.5112 156.021 99.8919 156.288 100.188L158.348 102.642C158.472 102.769 158.719 102.938 159.007 102.938H165.228H165.352C165.516 102.938 165.743 102.917 165.928 102.642L167.865 100.146C167.947 100.019 168.174 99.6804 168.174 99.2573V88.8922C168.174 88.6807 168.091 88.3422 167.885 88.0884L166.031 85.4231C165.908 85.2538 165.619 85 165.29 85H159.007C158.884 85 158.595 85 158.348 85.2961L156.33 87.9615Z" fill="#FF0000"/>
<path d="M176.948 101.838L171.195 108.776L172.665 110.553L183.436 97.5651C183.652 97.3112 183.739 97.0151 183.739 96.6766V85H181.641V96.169L178.44 100.019L173.098 93.5459V85H171V94.0536C171 94.3921 171.087 94.6882 171.303 94.9421L176.948 101.838Z" fill="#FF0000"/>
<path d="M143 77V79.8573H149.505V103.097H151.696V79.8573H158.223V77H143Z" fill="#FF0000"/>
<path d="M40.2645 76V78.7616H42.5326V76H40.2645ZM40.2645 84.2847V103.616H42.5326V84.2847H40.2645Z" fill="#FF0000"/>
<path d="M21 76V103.706H23.245V95.3763H29.0772C29.4475 95.3763 29.7253 95.1047 29.8178 94.9688L34.3309 89.491C34.6086 89.1741 34.6781 88.7666 34.6781 88.5403V82.4739C34.6781 82.0211 34.4235 81.659 34.3309 81.5231L29.7253 76.1811C29.5864 76 29.4707 76 29.2392 76H21ZM23.245 78.8521H28.8226L32.4562 83.0171V87.997L28.5912 92.7053H23.245V78.8521Z" fill="#FF0000"/>
<path d="M47.9705 84.6689V87.4305H59.2647L47.9705 104H63.8472V101.284H52.5761L63.8472 84.6689H47.9705Z" fill="#FF0000"/>
<path d="M67.235 84.6689V87.4305H78.5292L67.235 104H83.1117V101.284H71.8406L83.1117 84.6689H67.235Z" fill="#FF0000"/>
<path d="M99.847 101.311H91.5823L89.8637 99.2756V97.6024L91.6076 95.6127H99.847V101.311ZM102.299 101.311V88.6937C102.299 88.4676 102.248 88.1058 101.945 87.7893L99.5437 85.0759C99.4426 84.9403 99.0635 84.6689 98.6591 84.6689H89.8131V87.337H98.1789L99.847 89.2364V92.9898H91.1021C90.8999 92.9898 90.5208 93.035 90.2175 93.3516L87.8165 96.1101C87.7154 96.2458 87.4626 96.6075 87.4626 97.0598V99.7731C87.4626 99.954 87.5132 100.406 87.8165 100.723L90.1923 103.527C90.2934 103.662 90.6472 103.933 91.0516 103.933H104.801V101.311H102.299Z" fill="#FF0000"/>
<path d="M114 89.5986V91.808H127.197V89.5986H114ZM114 96.1873V98.3967H127.197V96.1873H114Z" fill="#FF0000"/>
<path d="M129.658 85.1574L137.107 94.19L129.658 103.384C129.578 103.606 129.517 103.807 129.517 104.049C129.517 104.13 129.538 104.191 129.538 104.271C129.578 104.594 129.658 104.916 129.86 105.118C130.021 105.32 130.222 105.441 130.464 105.481H130.504C130.725 105.481 130.927 105.34 131.108 105.239L139 95.3191V93.061L131.068 83.1815C130.886 83.0605 130.746 83 130.564 83C130.484 83 130.464 83.0202 130.383 83.0202C130.121 83.0605 129.86 83.1815 129.699 83.4234C129.538 83.6654 129.397 83.9476 129.397 84.2702C129.397 84.5928 129.497 84.9154 129.658 85.1574Z" fill="#FF0000"/>
</svg>
