<svg width="37" height="125" viewBox="0 0 37 125" fill="none" xmlns="http://www.w3.org/2000/svg">
<rect x="-0.495156" y="-0.504797" width="12.3673" height="12.3673" transform="matrix(0.00964065 -0.999954 -0.999954 -0.00964065 12.6535 94.3614)" fill="white" stroke="white"/>
<rect x="-0.495156" y="-0.504797" width="12.3673" height="12.3673" transform="matrix(0.00964065 -0.999954 -0.999954 -0.00964065 25.8913 107.858)" fill="white" stroke="white"/>
<rect x="-0.495156" y="-0.504797" width="12.3673" height="12.3673" transform="matrix(0.00964065 -0.999954 -0.999954 -0.00964065 12.3957 121.095)" fill="white" stroke="white"/>
<rect x="-0.495156" y="-0.504797" width="12.3673" height="12.3673" transform="matrix(0.00964065 -0.999954 -0.999954 -0.00964065 13.4267 14.1612)" fill="white" stroke="white"/>
<rect x="-0.495156" y="-0.504797" width="12.3673" height="12.3673" transform="matrix(0.00964065 -0.999954 -0.999954 -0.00964065 13.1692 40.8946)" fill="white" stroke="white"/>
<rect x="-0.495156" y="-0.504797" width="12.3673" height="12.3673" transform="matrix(0.00964065 -0.999954 -0.999954 -0.00964065 26.6648 27.6563)" fill="white" stroke="white"/>
<rect x="-0.495156" y="-0.504797" width="12.3673" height="12.3673" transform="matrix(0.00964065 -0.999954 -0.999954 -0.00964065 26.1491 81.1231)" fill="white" stroke="white"/>
<rect x="-0.495156" y="-0.504797" width="12.3673" height="12.3673" transform="matrix(0.00964065 -0.999954 -0.999954 -0.00964065 12.9113 67.628)" fill="white" stroke="white"/>
<rect x="-0.495156" y="-0.504797" width="12.3673" height="12.3673" transform="matrix(0.00964065 -0.999954 -0.999954 -0.00964065 26.4069 54.3907)" fill="white" stroke="white"/>
<line x1="33.8377" y1="124.803" x2="35.0378" y2="0.326088" stroke="white" stroke-width="2.5" stroke-dasharray="5 5"/>
</svg>
