<svg width="149" height="75" viewBox="0 0 149 75" fill="none" xmlns="http://www.w3.org/2000/svg">
<line y1="73.75" x2="149" y2="73.75" stroke="#FF0000" stroke-width="2.5" stroke-dasharray="5 5"/>
<line y1="1.75" x2="149" y2="1.75" stroke="#FF0000" stroke-width="2.5" stroke-dasharray="5 5"/>
<path d="M71.852 7.86565C71.564 8.44165 71.132 9.80965 70.844 10.8896C70.232 13.4816 70.016 13.7696 68.576 13.5176L67.388 13.3376L66.236 16.7936C65.588 18.7016 65.156 20.3936 65.264 20.5376C65.372 20.7176 66.2 21.1496 67.1 21.5096C68.036 21.8336 68.684 22.3016 68.612 22.5536C68.54 22.7696 68 24.6416 67.424 26.6576L66.38 30.4016L64.04 30.1496C61.7 29.8976 54.788 28.9617 49.568 28.1337C46.616 27.7017 45.68 27.8096 45.68 28.6736C45.68 28.9616 45.536 29.6097 45.32 30.1137C44.996 31.0137 44.96 31.0137 43.628 30.4737C42.872 30.1857 41.864 29.7537 41.396 29.5017C40.928 29.2857 39.488 29.0696 38.228 29.0696C36.104 29.0696 35.816 29.1776 35.096 30.0416L34.34 31.0496L30.128 30.4376L25.916 29.8256L25.052 30.6176C24.512 31.1216 23.972 31.3376 23.612 31.1936C23.144 31.0496 23 31.1576 23 31.7336C23 32.3456 23.216 32.4896 24.116 32.4896C24.908 32.4896 25.268 32.6696 25.412 33.2096C25.556 33.7136 25.916 33.9296 26.672 33.9296C27.464 33.9296 27.86 34.2176 28.436 35.1896C28.868 35.8736 29.3 36.4496 29.408 36.4496C29.984 36.4496 32.252 34.8296 33.044 33.8936C33.512 33.3176 34.232 32.8496 34.664 32.8136C35.348 32.8136 35.348 32.7776 34.52 32.4536C33.728 32.1296 33.44 32.3096 31.712 34.1096C29.912 35.9816 29.732 36.0896 29.264 35.4776C29.012 35.1176 28.76 34.6496 28.76 34.4336C28.76 34.2176 28.04 33.6416 27.14 33.1736C26.24 32.7056 25.556 32.1656 25.628 31.9496C25.88 31.2296 28.508 31.0136 30.164 31.5896C32.216 32.2736 32.684 32.2736 31.784 31.5536C31.1 31.0136 31.1 31.0136 31.82 31.1936C33.62 31.6616 35.852 32.2016 36.68 32.3456C37.544 32.5256 37.544 32.5256 36.896 31.9856C36.32 31.5176 36.284 31.4096 36.752 31.2296C37.652 30.8696 40.28 31.7336 40.28 32.3456C40.28 33.0656 39.416 33.3536 38.516 32.8496C38.084 32.6336 37.76 32.5976 37.76 32.7416C37.76 32.8856 38.3 33.2816 38.948 33.5696C39.74 33.9656 40.064 34.3256 40.028 34.8296C39.956 35.2256 39.848 36.3416 39.74 37.3496C39.452 40.1937 39.128 41.9217 38.948 41.7417C38.876 41.6337 37.616 42.2816 36.212 43.1456C34.772 44.0097 33.008 45.0537 32.252 45.4497C31.532 45.8457 30.92 46.3497 30.92 46.5297C30.92 46.7457 30.776 46.8897 30.56 46.8897C30.38 46.8897 30.2 46.6377 30.2 46.3497C30.2 45.6657 29.984 45.7017 28.4 46.4577C27.572 46.8537 26.816 47.6817 26.24 48.7617C25.16 50.7777 24.152 51.9297 23.468 51.9297C23.216 51.9297 23 52.1817 23 52.4697C23 53.1177 23.396 53.1537 24.548 52.6137C25.088 52.3617 25.916 51.2457 26.672 49.8057L27.896 47.4297L29.768 47.5377C31.424 47.6457 31.784 47.5377 33.152 46.4577C36.752 43.6137 37.616 43.2176 39.272 43.4696C41.612 43.8656 41.72 43.9736 41.144 45.8096C40.892 46.7096 40.172 49.1937 39.56 51.3897C37.868 57.4737 37.544 58.1217 36.068 59.0937C34.34 60.2097 33.08 61.3257 33.08 61.7217C33.08 61.8657 33.8 62.0097 34.7 62.0097C35.6 62.0097 36.32 62.1177 36.32 62.2617C36.32 62.4417 35.996 63.6657 35.636 65.0697C35.276 66.4377 35.024 67.6617 35.096 67.7337C35.456 68.0937 35.888 67.0497 36.5 64.5297C36.824 63.0537 37.436 60.8577 37.832 59.6697C41.36 48.6897 41.576 48.0417 42.08 44.9096C42.512 42.2816 43.952 37.3136 44.744 35.7656C45.068 35.1536 45.428 33.8936 45.572 32.9576C45.68 32.0576 46.148 30.7617 46.544 30.1137C47.228 29.0337 47.408 28.9617 48.74 29.1417C49.532 29.2497 50.756 29.4656 51.44 29.6456C53.6 30.1496 62.888 31.4096 64.688 31.4096C66.848 31.4096 68.216 31.0497 67.604 30.6897C67.28 30.4737 67.28 30.1496 67.748 29.1776C68.54 27.4496 69.08 25.2536 69.44 22.1216C69.584 20.6096 70.268 17.6216 70.952 15.4976C72.176 11.4296 72.5 11.1056 73.94 12.1136C74.912 12.7616 78.476 13.6616 81.932 14.0936C83.48 14.3096 85.784 14.7056 87.08 14.9936C88.376 15.2816 90.14 15.6416 91.04 15.7496C91.94 15.8576 93.596 16.1096 94.748 16.3256C95.864 16.5776 97.376 16.6496 98.06 16.5416C98.744 16.4336 99.392 16.4696 99.5 16.6496C99.68 16.9736 99.248 19.0616 98.636 20.7896C98.492 21.1856 97.988 22.6257 97.556 24.0297C97.088 25.3977 96.296 27.2696 95.72 28.1697C93.992 30.9417 92.984 34.0376 93.164 36.1256L93.236 37.0976L88.448 35.9096C82.76 34.5416 80.672 34.1456 81.032 34.5056C81.32 34.7576 91.94 37.5296 92.768 37.5296C93.056 37.5296 97.664 39.6896 103.028 42.3536C108.428 44.9817 113.504 47.4297 114.368 47.7537C119.372 49.6977 119.66 49.8777 120.02 51.2817C120.2 52.0017 120.632 52.2537 122.108 52.6137C123.152 52.8657 124.376 53.1897 124.88 53.3697C125.384 53.5497 126.212 53.7657 126.788 53.8737C128.408 54.2337 127.868 54.7737 126.068 54.5577C123.908 54.3417 121.676 53.9097 120.848 53.5497C120.488 53.4057 120.2 53.4417 120.2 53.5857C120.236 54.4857 121.064 54.8457 123.836 55.2057C128.912 55.8537 131 55.6377 131 54.4857C131 53.7297 128.84 52.8657 124.34 51.7857C121.28 51.0657 121.1 50.9577 120.92 49.9497C120.74 49.0137 120.38 48.7617 116.564 47.2137C114.26 46.3137 110.516 44.6576 108.284 43.5416C106.016 42.4616 101.768 40.4097 98.852 39.0056C94.388 36.8816 93.524 36.3056 93.74 35.8016C94.1 34.8656 96.44 28.4217 96.44 28.3137C96.44 28.2417 97.52 28.2416 98.852 28.2776L101.228 28.3497L102.416 25.1096C103.028 23.3096 103.676 21.6176 103.82 21.2936C104 20.8256 103.676 20.5736 102.236 20.0696C101.228 19.7456 100.328 19.3496 100.256 19.2056C100.148 19.0616 100.22 18.3776 100.4 17.6936C101.372 14.2376 101.768 12.1136 101.48 11.8616C101.336 11.6816 99.86 11.3216 98.204 11.0696C96.548 10.8176 91.688 10.0256 87.44 9.30565C83.192 8.62165 78.584 7.86565 77.18 7.64965C75.812 7.43365 74.156 7.18165 73.508 7.07365C72.536 6.89365 72.32 7.00165 71.852 7.86565ZM79.52 10.7096C81.212 10.9976 83.516 11.3936 84.668 11.6096C85.784 11.7896 87.62 12.1136 88.7 12.3296C89.78 12.5096 91.58 12.8336 92.66 13.0496C93.74 13.2296 95.54 13.5536 96.656 13.7696C97.772 13.9496 98.744 14.1656 98.816 14.2376C98.888 14.2736 98.852 14.7056 98.708 15.1376C98.492 16.0376 98.204 16.0736 96.44 15.5696C95.756 15.3536 93.74 14.9576 91.94 14.6696C88.952 14.2016 81.68 12.9056 76.388 11.8976C74.696 11.5736 74.12 11.3216 74.12 10.8896C74.12 9.98965 74.516 9.73765 75.56 9.98965C76.064 10.1336 77.828 10.4576 79.52 10.7096ZM70.52 14.9936C70.52 15.0296 70.376 15.5696 70.196 16.1456C70.016 16.7216 69.692 17.9096 69.404 18.8096C68.792 20.9696 68.648 21.1136 67.676 20.2136C67.1 19.6736 66.92 19.2416 67.1 18.6656C67.244 18.2696 67.424 17.4776 67.532 16.9016C67.748 15.8216 68.864 14.8496 69.872 14.8496C70.232 14.8496 70.52 14.9216 70.52 14.9936ZM100.868 20.9336C102.056 21.5456 102.056 22.0856 101.084 24.7136C100.4 26.4776 100.184 26.7297 99.068 26.9457C98.384 27.0897 97.736 27.0537 97.628 26.9457C97.196 26.5137 99.176 20.1056 99.644 20.3216C99.752 20.3936 100.292 20.6816 100.868 20.9336ZM39.128 29.5736C39.452 29.7896 40.388 30.0416 41.18 30.1856C42.512 30.4376 42.548 30.4736 41.576 30.6176C40.352 30.7616 37.4 30.0416 37.4 29.5736C37.4 29.1416 38.336 29.1776 39.128 29.5736ZM44.492 33.5336C44.096 35.2616 43.988 35.3696 43.16 35.1896C41.072 34.6496 40.892 34.6496 41.36 35.1896C41.612 35.4776 42.188 35.7296 42.656 35.7296C43.232 35.7296 43.52 35.9456 43.52 36.3416C43.52 37.5656 41.576 43.2897 41.18 43.2897C39.956 43.2897 39.848 42.2096 40.46 36.7016C40.676 34.9016 40.892 34.1456 41.432 33.7856C41.828 33.4976 42.044 33.1016 41.936 32.9216C41.648 32.4536 42.656 31.6256 43.124 31.9496C43.34 32.0576 43.808 32.0216 44.132 31.8056C44.492 31.6256 44.816 31.5176 44.852 31.5536C44.924 31.5896 44.744 32.4896 44.492 33.5336Z" fill="#FF0000"/>
<path d="M72.86 15.8216C72.752 16.3976 72.428 17.5496 72.14 18.4496C71.204 21.4376 71.168 21.4016 73.58 21.9056C76.676 22.5536 77.36 22.5176 77.36 21.7616C77.36 21.1496 78.296 18.1256 78.944 16.6136C79.124 16.1816 78.98 15.9656 78.476 15.8216C77.864 15.6776 77.756 15.7856 77.9 16.3976C78.008 16.8296 77.792 18.1616 77.432 19.3496L76.784 21.5096L74.876 21.4736C72.104 21.4016 71.78 20.6456 73.076 17.1896C73.472 16.1096 73.976 15.2816 74.156 15.3896C74.336 15.5336 74.48 15.4256 74.48 15.2456C74.48 15.0296 74.156 14.8496 73.76 14.8496C73.292 14.8496 73.004 15.1736 72.86 15.8216Z" fill="#FF0000"/>
<path d="M89.1321 21.2212C88.5561 22.9852 88.0161 24.5692 87.9441 24.7852C87.8361 25.0372 88.5561 25.2892 89.9961 25.4332C91.1841 25.5772 92.5881 25.8652 93.1281 26.0452C94.2081 26.4412 94.4961 26.2252 94.8201 24.7492C95.0001 23.8132 94.9641 23.7772 94.6761 24.4612C94.2441 25.3972 92.5881 25.5772 90.3201 24.8932C89.0241 24.4972 88.9881 24.4252 89.2401 23.4532C89.4201 22.8772 89.4921 22.4092 89.3841 22.4092C89.3121 22.4092 89.4561 21.9772 89.7081 21.4012C90.3201 20.2132 90.7521 18.0892 90.3921 18.0892C90.2481 18.0892 89.6721 19.4932 89.1321 21.2212Z" fill="#FF0000"/>
<path d="M95.72 20.6811C94.964 23.5611 95 23.6691 95.9 21.7251C96.872 19.6371 96.98 19.1691 96.44 19.1691C96.26 19.1691 95.936 19.8531 95.72 20.6811Z" fill="#FF0000"/>
<path d="M73.04 25.0736C73.04 25.7216 73.256 25.7576 74.3 25.2896C74.696 25.1096 74.84 24.9656 74.588 24.9656C74.372 24.9296 73.94 24.8216 73.616 24.7136C73.22 24.5696 73.04 24.6776 73.04 25.0736Z" fill="#FF0000"/>
<path d="M76.46 25.6854C76.712 26.0454 78.44 26.3334 78.44 26.0094C78.44 25.8654 77.972 25.6494 77.396 25.5774C76.784 25.5054 76.388 25.5414 76.46 25.6854Z" fill="#FF0000"/>
<path d="M79.484 26.478C79.664 26.658 80.168 26.73 80.636 26.658C81.356 26.55 81.32 26.478 80.312 26.334C79.592 26.226 79.268 26.262 79.484 26.478Z" fill="#FF0000"/>
<path d="M71.6721 27.8094C71.3121 29.2854 71.3841 29.6094 72.2481 29.6094C72.6801 29.6094 72.6801 29.5014 72.3201 29.0694C71.9961 28.6734 71.9961 28.2774 72.2481 27.4494C72.4641 26.8734 72.5001 26.3694 72.3561 26.3694C72.1761 26.3694 71.8881 27.0174 71.6721 27.8094Z" fill="#FF0000"/>
<path d="M83.48 27.414C85.568 27.918 87.728 28.206 86.9 27.846C86.504 27.666 85.28 27.45 84.2 27.342C82.688 27.162 82.544 27.198 83.48 27.414Z" fill="#FF0000"/>
<path d="M88.34 28.422C88.736 28.53 89.204 28.746 89.42 28.926C89.6 29.106 89.96 29.25 90.248 29.25C90.68 29.25 90.68 29.142 90.32 28.71C90.068 28.422 89.348 28.206 88.736 28.206C87.98 28.242 87.872 28.314 88.34 28.422Z" fill="#FF0000"/>
<path d="M68.576 31.3731C68.936 31.7331 77.612 33.9291 78.476 33.8931C79.16 33.8571 76.496 33.0291 72.356 31.9491C68.648 30.9771 68.036 30.8691 68.576 31.3731Z" fill="#FF0000"/>
<path d="M89.024 32.6703C88.88 32.9943 88.556 33.1743 88.268 33.0663C87.98 32.9583 87.872 33.0303 87.98 33.2103C88.268 33.6783 88.628 33.6783 89.42 33.1023C89.852 32.7423 89.96 32.5263 89.636 32.3463C89.42 32.2023 89.132 32.3463 89.024 32.6703Z" fill="#FF0000"/>
<path d="M68.576 39.2577C68.396 39.5817 66.956 44.3337 66.704 45.6297C66.56 46.1697 66.884 46.5657 67.784 47.1417C68.504 47.6097 69.332 47.9697 69.656 47.9697C70.808 47.9697 75.2 46.3497 75.38 45.8457C75.488 45.5937 75.236 44.8017 74.84 44.1177C74.444 43.4337 74.12 42.6777 74.12 42.4617C74.12 42.2097 73.76 41.6337 73.364 41.1297C72.968 40.6257 72.68 40.3737 72.752 40.5897C72.86 40.7697 73.292 41.7057 73.724 42.6777C74.948 45.3417 74.876 45.7737 73.22 46.3857C70.412 47.4657 69.296 47.4657 67.928 46.4217C67.352 45.9537 67.352 45.7737 68.036 43.2537C69.08 39.4377 69.188 38.9697 68.972 38.9697C68.864 38.9697 68.684 39.1137 68.576 39.2577Z" fill="#FF0000"/>
<path d="M84.3801 43.1095C85.0281 43.6135 85.0281 43.7935 84.6321 45.3775C84.3801 46.3135 83.7681 47.9335 83.2641 49.0135C82.6881 50.3095 82.5081 51.1015 82.7241 51.3175C83.1561 51.7495 83.0481 52.0015 84.5601 47.1415C85.6401 43.7215 85.6761 43.5775 85.0281 43.0735C84.6681 42.8215 84.2361 42.6055 84.0201 42.6055C83.8401 42.6055 83.9841 42.8215 84.3801 43.1095Z" fill="#FF0000"/>
<path d="M77.072 44.8735C76.424 45.3415 75.812 45.8095 75.704 45.9175C75.452 46.1335 77.252 49.0495 77.648 49.0495C77.792 49.0495 78.08 49.4095 78.26 49.8415C78.656 50.7055 79.736 51.4975 80.06 51.1375C80.168 51.0295 79.376 49.9855 78.296 48.8335C77.18 47.6455 76.28 46.5295 76.28 46.2775C76.28 46.0615 76.856 45.5215 77.54 45.0895C78.224 44.6575 78.8 44.2255 78.8 44.1535C78.8 43.8295 78.224 44.0815 77.072 44.8735Z" fill="#FF0000"/>
<path d="M68.7734 39.3905C68.8563 39.355 68.9238 39.2565 68.989 39.1965C69.0747 39.1178 69.1578 39.0239 69.2536 38.9574C69.5034 38.7839 69.7176 38.7751 70.012 38.829C70.2302 38.869 70.4438 38.9235 70.6431 39.0231C70.864 39.1335 71.0575 39.2903 71.2761 39.4042C71.6305 39.589 71.9517 39.8353 72.2363 40.1176C72.4193 40.299 72.6047 40.4936 72.7704 40.6908C72.8428 40.777 72.9097 40.8688 72.9752 40.9603C73.0567 41.0741 73.1605 41.1616 73.2495 41.268C73.3061 41.3355 73.3403 41.4186 73.3877 41.4924C73.447 41.5845 73.5204 41.6643 73.5807 41.754C73.6714 41.8889 73.7399 42.0282 73.8355 42.1597" stroke="#FF0000" stroke-width="0.3" stroke-linecap="round"/>
<path d="M68.5618 40.5367C68.6769 40.0883 68.8001 39.6439 69.1419 39.3128C69.2788 39.1802 69.4521 39.0703 69.6318 39.0061C69.8428 38.9308 70.0848 38.9316 70.3079 38.9316" stroke="#FF0000" stroke-width="0.3" stroke-linecap="round"/>
<path d="M70.0433 38.8432C69.8638 38.8432 69.6946 38.7973 69.5132 38.8178C69.2981 38.842 69.1593 38.93 68.9753 39.0294C68.8377 39.1038 68.7623 39.3058 68.6921 39.437C68.5869 39.6337 68.4806 39.8909 68.4559 40.1132" stroke="#FF0000" stroke-width="0.3" stroke-linecap="round"/>
<path d="M77.2574 48.4404C77.4352 48.5115 77.5262 48.7468 77.6407 48.8841C77.8867 49.1793 78.1052 49.4902 78.3381 49.7953C78.7747 50.3671 79.277 50.8596 79.8786 51.2523C80.1091 51.4028 80.3364 51.5047 80.6109 51.5453C80.9273 51.592 81.1933 51.5774 81.4932 51.4703C82.0921 51.2564 82.6631 51.0661 83.1128 50.5864" stroke="#FF0000" stroke-width="0.3" stroke-linecap="round"/>
<path d="M83.0822 51.1535C83.056 51.3279 82.8026 51.4885 82.6555 51.5375C82.3756 51.6308 82.0745 51.6934 81.7793 51.7019C81.5113 51.7096 81.2414 51.7018 80.9737 51.69C80.8024 51.6824 80.6338 51.6691 80.4696 51.6167C80.2103 51.5341 79.9484 51.413 79.7287 51.2523C79.5196 51.0993 79.3476 50.91 79.159 50.7345C79.0556 50.6383 78.9517 50.5594 78.8788 50.4365C78.8303 50.3545 78.7707 50.2792 78.7136 50.2031" stroke="#FF0000" stroke-width="0.3" stroke-linecap="round"/>
<path d="M79.296 50.6785C79.5585 50.7938 79.7895 50.9728 80.0335 51.1213C80.1816 51.2115 80.3448 51.2767 80.4959 51.3623C80.5945 51.4182 80.6949 51.4567 80.8084 51.473C81.1454 51.5215 81.5104 51.5238 81.8473 51.4722C82.0072 51.4477 82.1695 51.4163 82.3106 51.3342C82.4421 51.2576 82.5653 51.1629 82.6904 51.0762C82.7436 51.0393 83.1801 50.6432 83.1281 50.6172" stroke="#FF0000" stroke-width="0.3" stroke-linecap="round"/>
<path d="M82.9748 50.9541C82.8883 51.0872 82.7969 51.2247 82.6921 51.3441C82.6455 51.3972 82.5598 51.4256 82.4962 51.4531C82.2943 51.5404 82.069 51.5129 81.8558 51.5366" stroke="#FF0000" stroke-width="0.3" stroke-linecap="round"/>
<path d="M83.2202 50.4795C83.1846 50.7992 83.1128 51.1985 82.8932 51.4469C82.8503 51.4953 82.7915 51.566 82.7271 51.5831C82.4594 51.6545 82.1994 51.7352 81.919 51.7483C81.6477 51.761 81.3543 51.7152 81.0878 51.6657C80.8353 51.6189 80.5849 51.5757 80.3418 51.4912C80.0512 51.3901 79.7825 51.2501 79.5346 51.0671C79.3693 50.9451 79.2626 50.7797 79.1122 50.6481" stroke="#FF0000" stroke-width="0.3" stroke-linecap="round"/>
<path d="M78.2849 44.3205C78.6797 44.1859 79.0492 43.9126 79.4149 43.7134C79.8173 43.4942 80.2445 43.3258 80.6611 43.136C81.0517 42.958 81.4602 42.8131 81.8598 42.6569C82.1123 42.5583 82.361 42.4997 82.6329 42.5075C83.0819 42.5206 83.5033 42.6504 83.9432 42.715C84.2014 42.753 84.4183 42.8676 84.6451 42.9972" stroke="#FF0000" stroke-width="0.3" stroke-linecap="round"/>
<path d="M84.9012 43.2956C84.7005 43.286 84.4603 43.1322 84.2835 43.0407C84.0588 42.9245 83.7988 42.8031 83.5519 42.7514C83.2772 42.6938 83.0099 42.6059 82.7254 42.6375C82.4259 42.6708 82.0941 42.7369 81.8172 42.8593C81.5329 42.9848 81.231 43.0607 80.9338 43.1509C80.4828 43.288 80.0302 43.4567 79.5916 43.63C79.2455 43.7667 78.9076 43.9647 78.6027 44.1778C78.3672 44.3424 78.1486 44.5539 77.8794 44.6615" stroke="#FF0000" stroke-width="0.3" stroke-linecap="round"/>
<path d="M74.0533 15.1816C74.8079 15.4732 75.6174 15.6528 76.4048 15.8256C77.0953 15.9772 77.805 16.2983 78.52 16.2983" stroke="#FF0000" stroke-width="0.3" stroke-linecap="round"/>
<path d="M73.6425 15.0605C75.364 15.2346 76.9852 15.7778 78.6322 16.2719" stroke="#FF0000" stroke-width="0.3" stroke-linecap="round"/>
<path d="M78.4592 16.4457C78.1792 16.4457 77.9091 16.4167 77.6324 16.3688C77.1585 16.2867 76.7149 16.1335 76.2623 15.9762C75.7336 15.7924 75.1857 15.6627 74.6487 15.5051C74.4201 15.438 74.1762 15.3647 73.9437 15.3224C73.8827 15.3113 73.819 15.292 73.7578 15.292" stroke="#FF0000" stroke-width="0.3" stroke-linecap="round"/>
<path d="M73.902 15.0322C74.7307 15.0322 75.56 15.3262 76.3376 15.577C76.7795 15.7196 77.2251 15.8394 77.6676 15.9744C77.9798 16.0697 78.2869 16.1933 78.6033 16.2725" stroke="#FF0000" stroke-width="0.3" stroke-linecap="round"/>
<path d="M78.5457 16.0997C77.7402 15.8067 76.8863 15.7043 76.0604 15.4683C75.3739 15.2722 74.5879 15.2344 73.8732 15.2344" stroke="#FF0000" stroke-width="0.3" stroke-linecap="round"/>
<path d="M95.866 21.0645C95.4255 21.9454 95.0365 22.8553 94.6458 23.7588C94.4355 24.2451 94.2228 24.7333 94.0198 25.2229C93.9743 25.3325 93.9144 25.4505 93.8857 25.565" stroke="#FF0000" stroke-width="0.3" stroke-linecap="round"/>
<path d="M95.92 21.0469C95.8994 21.1702 95.8114 21.2785 95.756 21.3879C95.6209 21.6542 95.5089 21.9419 95.3879 22.215C95.2971 22.42 95.2237 22.6272 95.1269 22.8301C95.0186 23.0571 94.8919 23.2776 94.7978 23.5112C94.6589 23.8562 94.4957 24.2003 94.3918 24.5583C94.3413 24.7321 94.2947 24.8941 94.2278 25.0613" stroke="#FF0000" stroke-width="0.3" stroke-linecap="round"/>
<path d="M94.3539 25.1687C94.6486 24.7758 94.8153 24.2825 95.004 23.8336C95.2415 23.2684 95.3796 22.6627 95.569 22.0804C95.6776 21.7466 95.7741 21.4038 95.9101 21.0803C96.01 20.8424 96.1351 20.585 96.1721 20.3262" stroke="#FF0000" stroke-width="0.3" stroke-linecap="round"/>
<path d="M96.0101 20.8125C95.7979 21.3704 95.595 21.934 95.37 22.4867C95.1967 22.9124 94.9639 23.3174 94.8079 23.7498C94.7093 24.0234 94.6098 24.2972 94.5139 24.5719C94.4721 24.6916 94.4427 24.8199 94.3959 24.937C94.3646 25.015 94.3568 25.0955 94.2819 25.133" stroke="#FF0000" stroke-width="0.3" stroke-linecap="round"/>
<path d="M89.9794 20.4883C89.9359 20.8708 89.7887 21.2201 89.6513 21.5764C89.5778 21.7671 89.5062 21.9578 89.4203 22.1435C89.3345 22.329 89.2246 22.5119 89.1713 22.7105C89.13 22.8642 89.1135 23.0397 89.0493 23.1856C89.0041 23.2883 88.9942 23.4717 88.9172 23.5486" stroke="#FF0000" stroke-width="0.3" stroke-linecap="round"/>
<path d="M96.5321 19.4626C95.9167 19.4626 95.3173 19.3304 94.7138 19.2246C94.2044 19.1354 93.6916 19.0571 93.1897 18.9306C92.9451 18.8689 92.7051 18.8088 92.4536 18.7826C92.0144 18.7367 91.5872 18.6428 91.1494 18.5895C90.8674 18.5552 90.5757 18.5182 90.3033 18.4365" stroke="#FF0000" stroke-width="0.3" stroke-linecap="round"/>
<path d="M90.3574 18.2207C90.4564 18.2242 90.5414 18.2595 90.6365 18.2827C90.9582 18.3613 91.2925 18.4135 91.6176 18.4747C91.8733 18.5229 92.1303 18.5405 92.3877 18.5747C92.6588 18.6108 92.9222 18.6815 93.1877 18.7448C93.6019 18.8435 94.0206 18.9284 94.4399 19.0028C94.869 19.0789 95.2929 19.1824 95.722 19.2558C95.988 19.3013 96.2595 19.36 96.5141 19.4448" stroke="#FF0000" stroke-width="0.3" stroke-linecap="round"/>
<path d="M96.5141 19.354C96.1908 19.3246 95.8636 19.3218 95.54 19.2919C95.0233 19.2443 94.5004 19.1622 93.9858 19.0899C93.4226 19.0108 92.864 18.8842 92.3036 18.7859C91.8913 18.7135 91.484 18.6181 91.0705 18.5529C90.8782 18.5225 90.665 18.5074 90.4794 18.4498C90.4304 18.4346 90.3779 18.43 90.3474 18.3908C90.2767 18.3 90.3303 18.0538 90.4384 18.0058C90.5269 17.9665 90.7071 18.0164 90.7895 18.0408C91.2241 18.1696 91.6725 18.1974 92.1116 18.3058C92.5064 18.4033 92.9003 18.4783 93.3028 18.5349C93.5846 18.5745 93.8586 18.6488 94.1378 18.7019C94.3771 18.7474 94.6101 18.7983 94.8429 18.8689C95.0602 18.9348 95.308 19.0173 95.51 19.1199C95.7705 19.2522 96.0944 19.2431 96.3521 19.372" stroke="#FF0000" stroke-width="0.3" stroke-linecap="round"/>
<path d="M71.9642 29.6504C71.9642 29.6504 89.5263 32.8244 88.0358 33.3522" stroke="#FF0000" stroke-width="0.3"/>
<path d="M72.2992 29.7091C72.2716 29.6784 72.208 29.6841 72.1695 29.679C72.1038 29.6703 72.04 29.6401 71.989 29.5986C71.9001 29.5262 71.819 29.438 71.7592 29.3398C71.6848 29.2175 71.6764 29.0639 71.6643 28.9248" stroke="#FF0000" stroke-width="0.3" stroke-linecap="round"/>
<path d="M73.4102 29.9236C73.2007 29.8683 73.0178 29.7497 72.8298 29.6456C72.6385 29.5396 72.4304 29.4442 72.2629 29.3017C72.1765 29.2281 72.1009 29.1434 72.0149 29.0698C71.9759 29.0364 71.9391 28.9895 71.8977 28.9619" stroke="#FF0000" stroke-width="0.3" stroke-linecap="round"/>
<path d="M75.0068 30.2317C74.7565 30.2317 74.5004 30.2228 74.2516 30.1943C74.1001 30.177 73.9586 30.1344 73.8096 30.1061C73.6239 30.0708 73.4339 30.0374 73.2463 30.0133C73.1195 29.997 72.9938 29.9765 72.8672 29.9593C72.7474 29.9432 72.6338 29.8915 72.516 29.8655C72.3684 29.8328 72.1983 29.7721 72.0704 29.6896C71.9898 29.6376 71.9141 29.5808 71.8318 29.5314C71.7623 29.4897 71.7247 29.4406 71.6965 29.3634C71.6614 29.2673 71.6702 29.1702 71.6638 29.0703C71.6582 28.9836 71.6456 28.9003 71.6456 28.8125" stroke="#FF0000" stroke-width="0.3" stroke-linecap="round"/>
<path d="M72.3229 26.6918C72.4009 26.3406 72.6107 26.0138 72.841 25.7419C72.9512 25.6119 73.0895 25.5112 73.2219 25.4051C73.2972 25.3446 73.3927 25.3006 73.4599 25.2334" stroke="#FF0000" stroke-width="0.3" stroke-linecap="round"/>
<path d="M73.4022 25.0195C73.3485 25.033 73.2963 25.0898 73.2585 25.1266C73.1715 25.2112 73.0848 25.2963 73.0067 25.3894C72.9024 25.5137 72.8023 25.6657 72.7321 25.8123C72.6983 25.8829 72.6772 25.9588 72.6451 26.0302C72.6042 26.1211 72.5548 26.2078 72.5133 26.2985C72.4675 26.3984 72.4524 26.5075 72.4117 26.6097C72.3751 26.7015 72.3413 26.7943 72.3027 26.8853C72.2624 26.9804 72.2201 27.0756 72.1901 27.1746C72.1729 27.2312 72.1532 27.2832 72.1251 27.3348" stroke="#FF0000" stroke-width="0.3" stroke-linecap="round"/>
<path d="M72.0262 27.5492C72.0516 27.3234 72.1383 27.1198 72.2157 26.9083C72.3023 26.672 72.4254 26.4411 72.5472 26.2208C72.6304 26.0703 72.7028 25.9131 72.7742 25.7567C72.8418 25.6086 72.9165 25.4613 72.9719 25.3081C72.9994 25.2323 73.0338 25.1617 73.069 25.0893C73.0957 25.0344 73.1094 24.9694 73.144 24.919C73.1802 24.8664 73.2234 24.8242 73.2731 24.7844C73.2959 24.7662 73.3249 24.7725 73.3528 24.7725" stroke="#FF0000" stroke-width="0.3" stroke-linecap="round"/>
<path d="M88.9456 33.2658C88.8715 33.3114 88.8026 33.3476 88.7202 33.3751C88.6519 33.3978 88.5842 33.425 88.5139 33.4404C88.295 33.4883 88.0785 33.4984 87.8621 33.4302C87.7336 33.3897 87.6125 33.3413 87.4952 33.2743C87.3376 33.1843 87.186 33.0853 87.0371 32.9815C86.8882 32.8778 86.7332 32.7661 86.5636 32.6982" stroke="#FF0000" stroke-width="0.3" stroke-linecap="round"/>
<path d="M86.8586 32.8096C87.0613 32.9021 87.2621 32.9985 87.4684 33.0827C87.5304 33.108 87.5928 33.1347 87.6566 33.1552C87.728 33.1781 87.8022 33.1925 87.8751 33.2093C87.9369 33.2235 87.9953 33.2455 88.0559 33.2639C88.1224 33.2842 88.1873 33.2895 88.2565 33.292C88.3426 33.2951 88.4113 33.2953 88.4854 33.252" stroke="#FF0000" stroke-width="0.3" stroke-linecap="round"/>
<path d="M87.0508 32.8867C86.9848 32.871 86.9235 32.8447 86.8605 32.8203C86.7899 32.793 86.7169 32.7708 86.6445 32.7487C86.5657 32.7246 86.4863 32.7006 86.4093 32.671C86.321 32.6371 86.2333 32.6047 86.1487 32.5616C86.0939 32.5338 86.0349 32.5194 85.9805 32.4922" stroke="#FF0000" stroke-width="0.3" stroke-linecap="round"/>
<path d="M89.3672 32.9336C89.3082 33.0096 89.2309 33.0642 89.1508 33.1159C89.1228 33.134 89.0978 33.1557 89.0681 33.171C89.0495 33.1807 89.0303 33.19 89.0139 33.2031C88.989 33.223 88.954 33.2303 88.9303 33.2515C88.9208 33.2601 88.8957 33.2593 88.8906 33.2695" stroke="#FF0000" stroke-width="0.3" stroke-linecap="round"/>
<path d="M90 29C90 29 90 30 90 31C90 32 89.5 32.5 89.5 32.5" stroke="#FF0000" stroke-width="0.3"/>
<path d="M89.6311 32.6565C89.7447 32.6192 89.7943 32.4793 89.8402 32.3805C89.937 32.1721 89.9641 31.9369 89.9785 31.7098C89.9857 31.597 89.9896 31.4851 89.9896 31.3721C89.9896 31.3298 89.9901 31.2896 89.9947 31.248" stroke="#FF0000" stroke-width="0.3" stroke-linecap="round"/>
<path d="M89.9486 31.2373C89.893 31.4234 89.8202 31.6031 89.7472 31.783C89.6966 31.9077 89.6458 32.0353 89.5776 32.1512C89.4975 32.2873 89.3922 32.407 89.3124 32.5433C89.2733 32.6101 89.2254 32.6742 89.1923 32.7442C89.1721 32.7868 89.1594 32.8317 89.1445 32.8762" stroke="#FF0000" stroke-width="0.3" stroke-linecap="round"/>
<path d="M90.0529 30.9812C90.055 30.6708 90.1255 30.3763 90.2021 30.0769C90.2151 30.026 90.2184 29.9736 90.2302 29.9224C90.247 29.8496 90.2727 29.7783 90.2926 29.7062C90.3212 29.6025 90.3545 29.4945 90.3745 29.3888C90.3915 29.2984 90.4067 29.2157 90.3745 29.1243C90.3383 29.0219 90.2869 28.9285 90.2447 28.8301" stroke="#FF0000" stroke-width="0.3" stroke-linecap="round"/>
<path d="M90.2241 28.8643C90.2089 29.0524 90.1868 29.2424 90.1465 29.4268C90.1177 29.5582 90.109 29.6981 90.1077 29.8325C90.1076 29.8386 90.1017 29.8738 90.1164 29.8694C90.1747 29.8519 90.1855 29.6921 90.1921 29.6506C90.2121 29.5259 90.2146 29.4007 90.2207 29.2749C90.2224 29.2389 90.2227 29.2079 90.2173 29.1725" stroke="#FF0000" stroke-width="0.3" stroke-linecap="round"/>
<path d="M90.3201 28.96C90.3558 28.9675 90.3818 29.0154 90.4019 29.0418C90.4258 29.073 90.451 29.1102 90.4659 29.1465C90.487 29.1982 90.4846 29.2573 90.4978 29.3113C90.5183 29.3947 90.5053 29.4927 90.4948 29.5765C90.4859 29.6476 90.4635 29.7125 90.443 29.7809C90.4101 29.8911 90.3799 30.0024 90.3384 30.1098C90.2899 30.2349 90.2513 30.3672 90.1884 30.4862C90.1328 30.5912 90.0879 30.695 90.062 30.8112C90.0411 30.9053 90.0084 30.9941 89.9966 31.0906C89.9917 31.1307 89.9835 31.1754 89.9707 31.2139" stroke="#FF0000" stroke-width="0.3" stroke-linecap="round"/>
<path d="M90.0414 29.9032C90.0061 29.7714 89.9889 29.6373 89.9491 29.5059C89.9264 29.4308 89.8969 29.3573 89.8687 29.284C89.8529 29.2428 89.8431 29.2012 89.8234 29.1613C89.7798 29.0727 89.7235 28.9926 89.6657 28.9129C89.6066 28.8316 89.5561 28.7446 89.4976 28.6628C89.4871 28.6481 89.4765 28.6339 89.4698 28.6172" stroke="#FF0000" stroke-width="0.3" stroke-linecap="round"/>
<path d="M89.1985 28.3738C88.7905 28.3738 88.3926 28.2509 87.9919 28.1866C87.7537 28.1484 87.5073 28.1401 87.2667 28.1264C86.9998 28.1112 86.7412 28.0821 86.4756 28.0505C86.2904 28.0285 86.1051 28.0175 85.9206 27.9881C85.6959 27.9524 85.4678 27.9507 85.2443 27.9116C84.7081 27.8177 84.1894 27.6407 83.655 27.5444C83.3833 27.4954 83.1131 27.4327 82.8504 27.3501C82.5219 27.2469 82.2099 27.1012 81.8877 26.9808C81.5711 26.8625 81.2491 26.7076 80.9215 26.6256C80.765 26.5865 80.5773 26.5602 80.4324 26.498" stroke="#FF0000" stroke-width="0.3" stroke-linecap="round"/>
<path d="M73.973 25.0791C74.0994 25.0841 74.222 25.116 74.3464 25.137C74.5021 25.1634 74.6596 25.174 74.8133 25.2109C75.0117 25.2586 75.2097 25.2908 75.4109 25.3231C75.5929 25.3523 75.7706 25.3928 75.9543 25.4142C76.4144 25.4678 76.8815 25.5387 77.3305 25.6557C77.4556 25.6883 77.5779 25.7313 77.7014 25.7691C77.8306 25.8086 77.9632 25.8349 78.092 25.8744C78.4372 25.9804 78.7851 26.0698 79.1362 26.1541C79.3437 26.2039 79.5375 26.2969 79.7461 26.3433C80.0838 26.4183 80.4251 26.4814 80.7595 26.565" stroke="#FF0000" stroke-width="0.3" stroke-linecap="round"/>
<path d="M80.5156 26.5539C80.3876 26.5555 80.2607 26.565 80.1324 26.565C79.9105 26.565 79.6986 26.5272 79.4794 26.496C79.2226 26.4595 78.9651 26.3998 78.7142 26.3346C78.5601 26.2945 78.3909 26.257 78.2429 26.1978C78.0106 26.1049 77.7638 26.0328 77.5234 25.9612C77.2641 25.8841 77.0069 25.8012 76.7478 25.7234C76.4675 25.6394 76.1902 25.5626 75.8964 25.5472C75.5773 25.5306 75.2592 25.492 74.9421 25.4554C74.7055 25.4281 74.4863 25.3668 74.2558 25.3162C74.1716 25.2977 74.0899 25.2481 74.0088 25.2189C73.9049 25.1816 73.801 25.1455 73.6958 25.1123" stroke="#FF0000" stroke-width="0.3" stroke-linecap="round"/>
<path d="M74.5 30L75.5 25.5" stroke="#FF0000" stroke-width="0.3"/>
<path d="M79 31L80 26.5" stroke="#FF0000" stroke-width="0.3"/>
<path d="M83.5 32L84.5 27.5" stroke="#FF0000" stroke-width="0.3"/>
<path d="M87.5 33L88.5 28.5" stroke="#FF0000" stroke-width="0.3"/>
<path d="M88.3516 28.3047C88.3671 28.3496 88.3976 28.3897 88.4123 28.4345C88.4214 28.462 88.4312 28.4888 88.4375 28.5174C88.4495 28.5722 88.4499 28.6281 88.4549 28.6838C88.4549 28.6845 88.4559 28.7152 88.4581 28.7101C88.467 28.6897 88.476 28.6696 88.4859 28.6497C88.5009 28.6198 88.5163 28.5884 88.5375 28.5623C88.5603 28.5343 88.5915 28.5126 88.6102 28.4816C88.6197 28.466 88.6288 28.4513 88.6406 28.4375" stroke="#FF0000" stroke-width="0.3" stroke-linecap="round"/>
<path d="M72.7671 25.9378C72.8461 25.8226 72.9434 25.7349 73.0528 25.6489C73.1174 25.5981 73.1861 25.552 73.2555 25.5083C73.3432 25.453 73.4287 25.3943 73.5257 25.3558C73.6056 25.3241 73.694 25.307 73.7772 25.2858C73.8356 25.2708 73.8923 25.2648 73.9524 25.2639C74.058 25.2623 74.162 25.2484 74.2665 25.2354" stroke="#FF0000" stroke-width="0.3" stroke-linecap="round"/>
<path d="M75.3952 25.852C75.3623 25.7359 75.2929 25.6463 75.2299 25.545C75.2097 25.5125 75.1731 25.4702 75.1658 25.4336" stroke="#FF0000" stroke-width="0.3" stroke-linecap="round"/>
<path d="M75.51 25.7849C75.5564 25.7329 75.5953 25.68 75.6547 25.6431C75.6823 25.626 75.7073 25.5994 75.7361 25.5858C75.7755 25.5671 75.8184 25.5423 75.861 25.5352" stroke="#FF0000" stroke-width="0.3" stroke-linecap="round"/>
<path d="M79 30.7578C78.9768 30.7694 78.9561 30.7836 78.9338 30.7967C78.9152 30.8076 78.9004 30.8228 78.8824 30.8338C78.841 30.859 78.7971 30.8945 78.7461 30.8945" stroke="#FF0000" stroke-width="0.3" stroke-linecap="round"/>
<path d="M79.1055 30.8281C79.1379 30.8493 79.1522 30.8808 79.1797 30.9058C79.2015 30.9258 79.2331 30.9403 79.2574 30.9575C79.3154 30.9986 79.3826 31.0028 79.4453 31.0312" stroke="#FF0000" stroke-width="0.3" stroke-linecap="round"/>
<path d="M92.9135 20.3604C92.4745 20.88 92.3059 21.5028 92.0921 22.1415C91.9078 22.6923 91.7387 23.5378 91.2167 23.8815C90.9576 24.0522 90.5471 24.3247 90.2245 24.3247C90.0612 24.3247 89.8973 24.2021 89.762 24.1344" stroke="#FF0000" stroke-width="2" stroke-linecap="round"/>
<path d="M89.6841 24.134C89.6841 22.6017 90.4712 21.2279 90.8686 19.7828C90.9995 19.3068 91.6229 19.3349 92.0359 19.3505C92.3445 19.3621 92.6268 19.4581 92.9221 19.5342C93.3438 19.6429 93.8132 19.6536 94.245 19.7158C94.557 19.7607 95.0104 19.8049 95.2869 19.9708" stroke="#FF0000" stroke-width="2" stroke-linecap="round"/>
<path d="M95.248 20.3604C95.0951 20.6779 95.0706 21.0426 94.967 21.3763C94.9019 21.5857 94.7199 21.7568 94.6038 21.9383C94.3773 22.2924 94.1857 22.7273 94.0332 23.1228C93.9486 23.3422 93.9131 23.5706 93.7781 23.7627C93.652 23.9421 93.5582 24.1769 93.4668 24.3765C93.1975 24.965 92.4904 25.0092 91.9192 24.9429C91.5099 24.8954 91.14 24.6057 90.7433 24.4846C90.4858 24.4061 90.517 24.4207 90.7346 24.2901" stroke="#FF0000" stroke-width="2" stroke-linecap="round"/>
<path d="M91.9019 24.134C92.7577 23.5289 93.3247 22.5409 93.817 21.6353C94.053 21.2011 94.2421 20.7465 94.4093 20.2821C94.5257 19.9588 94.4033 20.2652 94.3617 20.3643C93.9855 21.2594 93.7074 22.1887 93.415 23.1138C93.3227 23.4056 93.2636 23.6047 93.2636 23.9006" stroke="#FF0000" stroke-width="2" stroke-linecap="round"/>
<path d="M76.4553 21.2544C75.8175 21.186 75.5293 19.9424 75.3832 19.4603C75.2657 19.0726 75.1018 18.7037 74.9855 18.3146C74.8529 17.871 74.6457 17.4596 74.4624 17.035C74.3383 16.7475 74.1814 16.4991 74.1208 16.1963" stroke="#FF0000" stroke-width="2" stroke-linecap="round"/>
<path d="M74.1208 16.1963C73.9811 16.7708 73.6904 17.2639 73.5156 17.8261C73.3992 18.2005 73.4043 18.6043 73.2562 18.9674C73.1373 19.2591 73.0793 19.5661 73.0119 19.8731C72.9434 20.1855 72.9165 20.3595 73.3038 20.3595C73.761 20.3595 74.4555 20.2894 74.7909 20.6859C74.8497 20.7553 74.3885 20.7485 74.337 20.7485C74.1722 20.7485 73.9946 20.7682 73.8312 20.7464C73.3377 20.6806 73.8431 19.475 73.9738 19.2398C74.0786 19.0512 74.2297 18.9379 74.4234 18.8507C74.7076 18.7228 74.794 18.9252 74.9379 19.1771C75.1483 19.5453 75.4016 20.0589 75.8717 20.126" stroke="#FF0000" stroke-width="2" stroke-linecap="round"/>
<path d="M76.6109 20.5934C76.6976 20.3333 76.7896 20.0406 76.9006 19.7979C76.9625 19.6625 76.9536 19.5691 76.9633 19.424C76.9733 19.2734 77.0378 19.1663 77.0692 19.0284C77.1316 18.7536 77.3059 18.4984 77.3113 18.22C77.3187 17.8359 77.4669 17.465 77.4669 17.07C77.4669 16.8929 76.3649 16.9631 76.17 16.9446C75.7296 16.9029 75.3518 16.7797 74.9941 16.5166C74.8304 16.3963 75.2183 16.9296 75.2513 16.9835C75.5284 17.437 75.7441 17.8832 76.0792 18.3021C76.2889 18.5643 76.2601 19.0707 76.2997 19.3872" stroke="#FF0000" stroke-width="2" stroke-linecap="round"/>
<path d="M73.8873 25.6133C73.699 25.6625 73.6305 25.6883 73.5185 25.8402C73.3402 26.0823 73.1663 26.3407 73.0363 26.6123C72.8373 27.0284 72.733 27.4147 72.6739 27.873C72.638 28.1516 72.641 28.5981 72.7874 28.8405C72.9799 29.1591 73.3468 29.2963 73.6477 29.474C74.1958 29.7974 74.8211 30.0704 75.4457 30.2051C75.9549 30.3149 76.4561 30.4176 76.9616 30.5455C77.5692 30.6992 78.2011 30.7468 78.8147 30.878C79.8808 31.1059 80.9443 31.342 82.0104 31.5697C82.9877 31.7785 83.9391 32.0716 84.8957 32.3576C85.8857 32.6536 86.8859 32.8783 87.918 32.9659C88.1877 32.9888 88.4736 33.0117 88.7438 32.9816C88.9344 32.9605 89.0409 32.8247 89.1535 32.6822C89.4581 32.2967 89.7399 31.8646 89.9098 31.4011C90.096 30.8933 90.2347 30.3685 90.3936 29.8521C90.4275 29.7421 90.4289 29.6246 90.422 29.5102C90.4119 29.344 90.3447 29.3232 90.1966 29.2738C89.9612 29.1954 89.6651 29.2321 89.4198 29.2139C88.865 29.1729 88.3102 29.0455 87.7636 28.9476C87.0779 28.8249 86.4095 28.6877 85.7151 28.6183C84.7375 28.5205 83.7775 28.3068 82.8031 28.185C81.3055 27.9978 79.8191 27.743 78.3562 27.3719C77.9531 27.2696 77.5408 27.1852 77.146 27.0535C76.6054 26.8733 76.0744 26.6607 75.5418 26.4579C75.1242 26.2989 74.7022 26.1533 74.2844 25.9978C74.1744 25.9568 74.0573 25.899 73.9377 25.8969C73.6129 25.8913 74.101 25.8995 74.1741 25.9032C74.8924 25.9398 75.5687 26.2051 76.2525 26.4059C77.7138 26.8351 79.1734 27.3015 80.6694 27.5972C81.7916 27.819 82.9111 27.984 84.0211 28.2653C84.6129 28.4153 85.1861 28.5654 85.7655 28.7585C86.1439 28.8847 86.5216 29.011 86.8985 29.1415C87.2546 29.2647 87.6199 29.3504 87.9953 29.3857C88.1989 29.4049 88.3913 29.4463 88.5878 29.5039C88.7953 29.5647 89.0651 29.6184 89.248 29.7418C89.2648 29.7531 88.5143 30.7378 88.457 30.8102C88.2142 31.117 87.9083 31.419 87.584 31.6422C87.5672 31.6538 87.3405 31.7683 87.4296 31.7683C87.6341 31.7683 87.7764 31.6116 87.7069 31.409C87.6626 31.28 87.3923 31.2938 87.2814 31.2703C86.7011 31.1475 86.1805 30.8203 85.63 30.6054C84.9376 30.335 84.2182 30.1516 83.5059 29.9435C82.6452 29.6922 81.7823 29.4435 80.9279 29.1714C79.9286 28.8531 78.9291 28.5417 77.9276 28.2307C77.1458 27.9879 76.3693 27.7307 75.6064 27.4333C75.059 27.2199 74.5985 26.8426 74.0559 26.6155C73.9012 26.5507 73.7434 26.4869 73.5863 26.428C73.5118 26.4 73.6014 26.5042 73.6084 26.5146C73.7964 26.7966 73.9196 27.1272 73.9692 27.4617C74.0169 27.7838 74.1322 28.0597 74.3017 28.3378C74.6412 28.8949 75.3307 29.1482 75.909 29.3747C77.5218 30.0064 79.2807 30.205 80.9499 30.6448C81.5053 30.7911 82.0502 31.0019 82.6234 31.0592" stroke="#FF0000" stroke-width="2" stroke-linecap="round"/>
<path d="M75.3573 45.8525V46.0617" stroke="#FF0000" stroke-width="2" stroke-linecap="round"/>
<path d="M75.3573 45.8522C74.9757 45.638 74.5871 45.4415 74.3056 45.091C73.5945 44.2058 73.1191 43.2066 72.5364 42.2469C71.8605 41.1336 71.138 40.0988 70.2559 39.1326C70.0431 38.8996 69.9514 38.8873 69.7329 39.1472C69.4371 39.499 69.2573 39.8579 69.0299 40.2569C68.4278 41.3134 68.2552 42.6674 68.1526 43.8651C68.1127 44.3307 68.0886 44.783 68.0886 45.2508C68.0886 45.6658 68.0222 46.1399 68.1758 46.5349C68.5059 47.3837 69.8855 47.2118 70.6219 47.2118C71.8982 47.2118 73.1236 47.2344 74.2882 46.6598C74.6221 46.4951 74.9676 46.3359 75.3166 46.2066C75.375 46.185 75.4484 46.1047 75.5141 46.1137C75.74 46.1444 76.0002 46.4954 76.1533 46.6366C76.6478 47.0927 77.0294 47.5685 77.4286 48.1008C77.847 48.6586 78.3847 49.0743 78.8492 49.5853C79.5844 50.3939 80.5546 50.7512 81.4406 51.3574C82.1125 51.8171 82.5227 51.2343 82.7363 50.5875C82.8371 50.2821 82.8673 49.9713 82.9919 49.6695C83.1349 49.3233 83.3485 49.011 83.5149 48.676C83.8891 47.9223 84.115 47.151 84.3515 46.3519C84.5182 45.7888 84.7909 45.2896 84.8193 44.693C84.8371 44.3187 84.8633 43.9026 84.8193 43.5281C84.7906 43.2843 84.0155 43.3945 83.8489 43.3945C83.1506 43.3945 82.4005 43.5494 81.7398 43.7663C80.788 44.0789 79.8091 44.3762 78.8899 44.7773C78.0358 45.15 77.1078 45.4223 76.2811 45.8522C76.0847 45.9543 75.8475 46.0312 75.6652 46.1543C75.6296 46.1784 75.521 46.2131 75.5606 46.2299C76.164 46.4851 76.9483 46.4289 77.5768 46.3693C78.6023 46.2721 79.5808 45.9621 80.5807 45.736C81.1661 45.6036 81.7531 45.4876 82.3063 45.2479C82.6199 45.112 83.0001 45.0069 83.2941 44.8354C83.3866 44.7814 83.8751 44.6464 83.8664 44.786C83.8339 45.3057 83.5114 45.8665 83.2999 46.3286C82.9695 47.0505 82.6315 47.7578 82.3441 48.4988C82.1868 48.9042 82.0681 49.5869 81.6527 49.8003C81.6187 49.8177 81.3291 49.9893 81.2953 49.9252C81.0049 49.3733 81.3808 48.3609 81.5626 47.8451C81.6961 47.4664 81.8655 47.0958 82.0536 46.7412C82.0921 46.6685 82.2043 46.6118 82.1843 46.532C82.1799 46.5143 81.3124 47.0769 81.2953 47.0898C80.6822 47.5517 80.1734 48.0956 79.8021 48.7689C79.7803 48.8085 79.51 49.2264 79.6046 49.2919C79.7388 49.3848 79.9869 49.1616 80.0229 49.0536C80.2893 48.2543 79.4969 47.3375 79.0119 46.8051C78.7857 46.5567 78.4194 46.1195 78.0358 46.1195C77.7941 46.1195 77.8545 46.7527 77.8557 46.8864C77.8602 47.3787 77.9716 47.9686 78.518 48.1124C78.5993 48.1338 78.7826 48.1776 78.8725 48.153C79.0178 48.1134 78.582 48.0704 78.4425 48.0136C77.7225 47.7202 77.0798 47.2464 76.3102 47.0869C76.075 47.0381 75.8405 46.9839 75.6042 46.9445C74.9053 46.828 74.3587 46.1343 73.7943 45.7505C73.4106 45.4896 72.8718 44.9958 72.3999 44.9632C72.1988 44.9494 71.6477 44.8653 71.476 44.9865C71.2225 45.1654 70.9937 45.4927 70.8137 45.7418C70.6836 45.9216 70.6138 45.9408 70.3779 46.0207C69.8972 46.1835 69.33 46.3469 68.8614 46.0497C68.6267 45.9009 68.9689 45.8727 69.0967 45.8551C69.8448 45.7519 70.5444 45.9341 71.2814 46.0236C71.6379 46.0669 72.0748 46.1035 72.4289 46.0091C72.4742 45.997 72.3588 45.946 72.3185 45.9219C72.1492 45.8207 71.9946 45.7087 71.8479 45.5762C70.9649 44.7787 70.6252 43.6343 70.7294 42.4677C70.7914 41.773 70.4865 41.4639 70.0612 40.9193C70.001 40.8421 69.78 40.3534 69.6748 40.5823C69.33 41.3333 69.2485 42.2579 69.1054 43.0633C68.9961 43.6785 68.887 44.2917 68.7684 44.9051C68.7515 44.9929 68.5356 45.8117 68.7859 45.765C69.3565 45.6585 69.7782 44.8997 70.0118 44.4403C70.3473 43.7806 70.5259 43.068 70.68 42.3486C70.7183 42.1699 70.6877 41.8606 70.9473 41.9651C71.3685 42.1347 71.5834 42.6741 71.7782 43.0458C71.9284 43.3325 72.0301 43.6604 72.2168 43.9261C72.3279 44.0842 72.5057 44.1431 72.67 44.234C73.0102 44.4222 73.3555 44.5611 73.7449 44.6001C74.1804 44.6436 74.661 45.027 74.9825 45.2973C75.4466 45.6876 75.0493 45.6196 74.9709 45.2973C74.8503 44.8017 75.3189 44.4804 75.7407 44.359C76.1562 44.2394 76.3417 44.4229 76.6007 44.725C76.7972 44.9543 76.8215 45.1136 76.8215 45.3932C76.8215 45.8446 76.9356 46.3943 77.1352 46.7934" stroke="#FF0000" stroke-width="2" stroke-linecap="round"/>
<path d="M73.4224 46.8987C72.8016 47.171 72.1839 47.5367 71.5922 47.869C71.1845 48.098 70.7786 48.3118 70.3488 48.4965C70.0503 48.6248 69.7455 48.6215 69.4308 48.6766C68.5993 48.8224 67.1314 49.3946 66.5838 48.421C66.3408 47.9891 66.5733 47.4981 66.7319 47.0817C67.002 46.3729 67.3935 45.6733 67.8039 45.0365C67.8425 44.9766 68.1379 44.4487 68.1612 44.6124C68.2575 45.2863 67.918 46.0513 67.7632 46.6924C67.6463 47.177 67.5134 47.753 67.5134 48.2583" stroke="#FF0000" stroke-width="2" stroke-linecap="round"/>
<path d="M70.1151 15.0664C69.962 16.11 69.7107 17.134 69.5635 18.1811C69.5059 18.591 69.3848 18.9534 69.2859 19.3491C69.1093 20.0554 68.9299 20.4067 68.1972 20.4486C67.884 20.4665 67.6511 20.4792 67.5988 20.1133C67.5429 19.7221 67.6592 19.3385 67.7538 18.9633C67.9408 18.2218 68.1125 17.4755 68.291 16.7319C68.3061 16.6689 68.377 15.6738 68.4784 15.6288C68.5002 15.6191 68.7524 17.6427 68.7524 17.8566" stroke="#FF0000" stroke-width="2" stroke-linecap="round"/>
<path d="M98.0173 27.2011C98.0593 26.5439 98.4358 25.942 98.6446 25.3265C98.9744 24.3539 99.406 23.4207 99.7297 22.4498C99.8907 21.9669 99.92 21.4478 100.13 20.9862C100.336 20.5325 100.683 20.6367 101.092 20.8095C102.119 21.2432 102.2 22.1865 102.091 23.178C102.021 23.816 101.843 24.4306 101.651 25.0417C101.48 25.5868 101.329 26.1946 101.053 26.6964C100.75 27.247 100.367 27.5866 99.7189 27.2624C99.3961 27.101 99.3075 26.56 99.3295 26.2422C99.3948 25.3004 99.6758 24.3826 99.7982 23.4483C99.8247 23.2461 99.8102 22.508 100 22.3452C100.207 22.1682 100.424 22.4251 100.483 22.6012C100.838 23.6554 100.369 24.833 100.234 25.8853C100.183 26.2874 99.9902 25.9037 99.8342 25.7086" stroke="#FF0000" stroke-width="2" stroke-linecap="round"/>
<path d="M98.9907 22.659C99.1795 22.2614 99.4449 20.9787 99.4449 21.4189C99.4449 22.0575 99.226 22.7062 99.1709 23.344C99.1217 23.9139 98.9027 24.5026 98.7671 25.0599C98.6933 25.3634 98.6624 25.6628 98.6013 25.9683" stroke="#FF0000" stroke-width="2" stroke-linecap="round"/>
<path d="M73.0646 57.3125C72.8969 57.3544 72.9513 57.47 72.9167 57.6083" stroke="#FF0000" stroke-width="4" stroke-linecap="round"/>
<path d="M70.4029 66.9248C70.3863 67.0909 70.3162 67.2155 70.255 67.3684" stroke="#FF0000" stroke-width="4" stroke-linecap="round"/>
</svg>
