<svg width="228" height="119" viewBox="0 0 228 119" fill="none" xmlns="http://www.w3.org/2000/svg">
<g filter="url(#filter0_d_97_1436)">
<path d="M119.424 0.081604C119.312 0.187344 118.12 0.363574 116.816 0.434067C115.475 0.50456 113.649 0.645551 112.755 0.786537C111.861 0.892277 110.52 1.06851 109.812 1.139C109.104 1.17425 107.838 1.35048 107.018 1.45622C106.198 1.56196 104.522 1.73819 103.293 1.84393C99.4554 2.12591 97.3692 2.37264 96.2143 2.61936C95.6183 2.7251 94.1654 2.86608 93.0477 2.90133C90.2164 3.00707 88.3165 3.39478 87.7949 4.02922C87.4969 4.31119 87.3106 5.79155 87.2734 7.62437C87.2361 9.31621 87.0871 10.9023 86.9753 11.0785C86.8263 11.29 86.2303 11.5368 85.6342 11.6425C85.0381 11.7835 84.4421 12.1359 84.3303 12.4884C83.9205 13.8983 83.9578 19.573 84.4048 20.2074C84.5538 20.4541 85.4107 20.7009 86.3048 20.8419C87.1989 20.9476 88.0184 21.1238 88.1302 21.1943C88.2792 21.3706 88.3537 25.7764 88.242 28.3142C88.2047 29.3363 88.0557 29.442 86.64 29.6888C85.746 29.8298 84.5166 29.9355 83.9205 29.9003C83.2872 29.865 82.2813 30.006 81.6853 30.2175C81.1265 30.429 79.599 30.6757 78.3697 30.7814C77.103 30.8872 75.6129 31.0986 74.9795 31.2396C74.0109 31.5216 71.6267 31.7331 69.9503 31.6978C69.6522 31.6978 68.4974 31.9093 67.4542 32.1913C65.4425 32.72 65.3308 32.861 65.4798 34.8348L65.517 35.7159H61.4936C58.1035 35.6807 57.2466 35.7864 55.98 36.4209C55.1604 36.8438 54.4153 37.4783 54.3781 37.8307C54.1918 38.7824 53.7448 39.1349 52.5526 39.2406C45.1018 40.016 44.8038 40.0865 43.947 41.2144C43.6862 41.5316 42.7548 41.9898 41.898 42.2013C39.6255 42.73 37.1667 43.6464 37.1667 43.8932C37.1667 44.1046 35.3413 46.1842 34.0001 47.5236C33.5158 48.017 33.7394 49.0039 36.0864 57.0401L38.7314 65.9928L41.0039 66.169C45.0273 66.4157 48.3802 66.3452 48.641 65.9928C48.79 65.7813 49.3861 65.3936 49.9821 65.1116C51.2115 64.5124 51.8821 63.2083 52.2546 60.7058C52.5526 58.4852 52.8134 58.2033 54.9369 57.9566C55.9055 57.8508 56.8741 57.5688 57.0604 57.2869C58.029 56.0532 59.4074 54.4319 60.525 53.1983C61.1956 52.4933 61.7544 51.7884 61.7544 51.6122C61.7544 51.4712 62.6485 51.3654 63.7288 51.3654H65.7033L65.6288 64.9001C65.5543 75.7561 65.666 78.5758 66.0386 79.1045C66.4111 79.598 67.0444 79.8094 68.3111 79.8799C69.3169 79.9152 70.7326 80.0914 71.4777 80.2676L72.8188 80.6201L74.7905 80.9999L77.2905 81.4999L80.7905 82.0001C81.6474 82.4231 79.2905 82.0003 83.7905 82.9997C85.5042 82.5415 88.0082 83.0702 88.7905 82.9997C89.6101 82.894 89.2847 83.8978 90.2905 83.6158C91.2964 83.3339 87.5002 82.0001 94.0002 83.6155C95.6768 82.2093 93.7552 83.9328 94.5002 83.6155C96.4002 82.7696 100.708 84.7973 100 82.9997C99.2552 81.1669 93.234 82.7702 98.6358 83.6161C99.1574 83.6866 101.318 84.0038 103.479 84.321C105.64 84.603 107.726 84.9202 108.136 84.9907C110.669 85.4137 111.824 85.5546 114.655 85.7661C116.406 85.8719 117.896 86.0128 118.008 86.0833C118.194 86.1891 122.627 86.7178 123.596 86.7178C124.08 86.7178 143.937 81.607 147.327 80.5849C148.519 80.2324 148.854 79.7037 149.115 77.8356C149.19 77.3069 149.711 76.1085 150.233 75.1569C150.978 73.888 151.276 72.7954 151.425 70.7863C151.611 68.2838 151.686 68.0723 152.431 68.0723C153.511 68.1076 153.735 66.6625 152.691 66.3452C152.133 66.2042 151.872 65.7108 151.686 64.4772C151.35 62.3271 151.238 59.7541 151.499 59.2959C151.686 58.9787 151.872 57.6393 152.021 55.8418C152.058 55.2073 152.915 54.8196 154.703 54.6786C159.956 54.2909 161.558 54.6081 163.644 56.5467C165.581 58.309 166.811 58.8377 169.381 59.014C170.722 59.1197 172.101 59.1902 172.399 59.1902C172.697 59.1549 173.479 59.2254 174.112 59.3312C175.23 59.4722 175.342 59.6484 176.087 62.1861C176.832 64.9001 177.987 66.5215 179.104 66.5215C179.44 66.5215 179.85 66.6625 180.073 66.8387C180.483 67.2264 184.134 68.2133 185.438 68.2838C187.636 68.46 188.791 68.2838 188.791 67.7551C188.791 67.4731 186.63 59.8951 183.948 50.872C181.302 41.8489 179.104 34.4118 179.104 34.3766C179.104 34.3061 177.205 34.3413 174.932 34.4471C171.095 34.5881 164.911 34.5528 161.595 34.4118C160.887 34.3413 159.285 34.3766 158.056 34.4471C155.15 34.5881 154.442 34.5176 154.666 34.1298C154.778 33.9889 154.666 33.5659 154.405 33.2487C153.958 32.6495 151.574 32.2265 146.656 31.7683C145.464 31.6626 144.086 31.5216 143.639 31.4159C143.154 31.3101 142.298 31.2044 141.664 31.1339C140.584 31.0281 138.609 30.7109 136.635 30.3585C136.113 30.2527 135.182 30.147 134.549 30.0765C133.915 30.0412 133.245 29.865 133.021 29.7593C132.798 29.6183 131.866 29.4421 130.972 29.3363C127.992 29.0543 126.018 28.7724 124.9 28.4199C124.304 28.2437 123.298 28.0674 122.739 28.0322C121.212 27.9264 120.914 27.3272 120.988 24.86C121.175 19.291 121.175 19.2558 124.565 18.5508C126.204 18.1984 126.576 17.9869 126.614 17.3877C126.725 14.8499 126.949 11.854 127.098 10.5498C127.284 8.99899 127.135 8.82276 125.645 8.61128C125.235 8.57604 124.714 8.39981 124.453 8.25882C124.229 8.11783 123.782 8.11783 123.447 8.22357C122.665 8.50554 122.516 8.01209 122.367 4.20546C122.292 2.40788 122.069 0.786539 121.882 0.610306C121.435 0.187347 119.722 -0.165122 119.424 0.081604ZM118.641 4.94563C118.753 5.08662 118.641 5.19236 118.343 5.22761C118.045 5.22761 117.412 5.29811 116.89 5.3686C116.369 5.43909 114.879 5.61532 113.537 5.72106C112.196 5.8268 110.632 6.00303 109.998 6.07352C109.402 6.14402 107.391 6.32026 105.528 6.42599C103.702 6.53173 101.765 6.67272 101.244 6.77846C100.051 6.98994 95.0222 7.4129 93.7928 7.4129C92.2281 7.37765 91.9301 7.30716 91.9301 6.98994C91.9301 6.8137 93.234 6.60223 94.8359 6.49649C96.4006 6.39075 98.3751 6.21451 99.1946 6.10877C100.014 6.00303 102.026 5.8268 103.665 5.72106C105.304 5.65057 107.242 5.47434 107.949 5.3686C108.657 5.26286 110.147 5.12187 111.265 5.01613C112.383 4.94564 113.351 4.76941 113.426 4.69891C113.686 4.45219 118.343 4.69891 118.641 4.94563Z" fill="white"/>
<path d="M130.564 83H124.228V80.216L120.612 83.064C120.185 83.2347 119.652 83.32 119.012 83.32C117.134 83.32 115.78 82.8613 114.948 81.944C114.116 81.0053 113.7 79.8747 113.7 78.552C113.7 77.784 113.966 77.0267 114.5 76.28C115.033 75.512 115.812 74.7867 116.836 74.104H124.228V72.376C124.228 69.88 122.894 68.632 120.228 68.632C118.884 68.632 117.198 69.3893 115.172 70.904L114.212 69.56L118.788 65.944C119.769 65.7307 120.836 65.624 121.988 65.624C124.014 65.624 125.582 66.1147 126.692 67.096C127.822 68.0773 128.388 69.496 128.388 71.352V80.44L131.268 81.56L130.564 83ZM120.164 80.28C121.422 80.28 122.777 79.7147 124.228 78.584V75.576H118.66C118.404 75.896 118.222 76.216 118.116 76.536C118.009 76.856 117.956 77.208 117.956 77.592C117.956 78.3387 118.158 78.9787 118.564 79.512C118.969 80.024 119.502 80.28 120.164 80.28Z" fill="white"/>
<path d="M67.0356 77.4658C67.4227 77.8528 67.7378 78.2533 68.0502 78.6995C68.4858 79.3219 69.3274 79.686 69.954 80.071C72.6665 81.7378 76.3389 82.1622 79.448 82.5134C82.5746 82.8666 85.7081 83.115 88.8417 83.3902C91.9399 83.6622 95.0228 83.5837 98.1228 83.7534C102.053 83.9685 106.05 84.1536 109.959 84.6552C112.013 84.9187 114.005 85.493 116.065 85.7386C117.398 85.8976 118.739 85.9452 120.079 86.0079C121.613 86.0797 123.529 86.2227 125.014 85.6948C126.371 85.2124 128.049 85.3544 129.486 85.2439" stroke="white" stroke-width="3" stroke-linecap="round"/>
<path d="M151.64 66.6816C151.895 69.0422 151.738 71.5487 151.516 73.9055C151.375 75.4066 151.162 76.9072 150.933 78.3964C150.875 78.7702 150.507 79.0145 150.218 79.1967C147.555 80.8715 144.461 81.9299 141.449 82.7724C137.184 83.9653 132.799 84.6268 128.551 85.8671C127.83 86.0775 127.084 86.2297 126.38 86.4928C125.967 86.6469 125.555 86.815 125.12 86.893C124.106 87.0746 122.998 87.1174 121.974 87.0547C117.118 86.7578 112.41 85.5323 107.624 84.7816C105.848 84.5031 104.22 83.8739 102.524 83.3088" stroke="white" stroke-width="3" stroke-linecap="round"/>
<path d="M139.84 76.7957C140.491 76.6243 141.201 76.6059 141.866 76.5318C143.197 76.3837 144.524 76.2166 145.85 76.038C146.487 75.9524 146.685 75.9486 147.051 76.4637C147.464 77.0454 147.917 77.2276 148.549 76.8085C148.8 76.6425 149.096 76.3867 149.209 76.0934C149.392 75.6172 148.65 76.9542 148.456 77.4258C148.206 78.0309 148.646 78.1616 149.103 77.8046C149.823 77.2422 149.669 76.2822 149.724 75.4932" stroke="white" stroke-width="3" stroke-linecap="round"/>
<path d="M177.399 36.2867C175.699 36.2867 180.783 35.9378 182.464 35.6816C183.767 35.4831 185.922 34.7265 187.283 35.0765C187.95 35.248 188.745 35.9803 189.165 36.3764C191.243 38.3349 192.945 40.6437 194.589 42.9653C195.494 44.2432 196.287 46.0495 197.525 47.0891C197.918 47.4191 197.685 47.6806 197.514 48.2432C196.517 51.517 195.254 54.7306 194.006 57.9138C193.211 59.9419 192.387 62.6646 191.025 64.4803C190.517 65.1587 189.051 65.5601 188.336 65.9371C187.6 66.3252 186.892 66.7817 186.073 66.9456" stroke="white" stroke-width="3" stroke-linecap="round"/>
<path d="M186.988 67.1471C188.612 67.1471 190.65 67.4606 192.206 66.913C193.882 66.3228 195.243 64.8307 196.442 63.5909C197.82 62.1675 198.481 60.8862 199.047 59.0248C199.724 56.8009 199.426 54.7391 197.943 52.8049C197.844 52.6768 196.543 51.3459 196.574 51.7366C196.69 53.1981 197.182 54.5948 196.925 56.0758C196.671 57.5455 196.034 59.0266 195.008 60.1224C194.274 60.9071 193.353 61.4211 192.593 62.142C191.735 62.957 194.48 63.6513 195.008 62.8884C195.623 62.0005 196.055 60.8005 196.896 60.0931C197.992 59.1713 195.304 62.531 194.189 63.4299C193.545 63.9486 193.109 64.2249 192.389 64.5129" stroke="white" stroke-width="3" stroke-linecap="round"/>
<path d="M199.369 47.3906C199.869 48.1406 200.394 48.8517 200.994 49.5273C201.393 49.9778 202.053 50.4862 202.003 51.1664C201.978 51.5141 201.828 52.0151 201.711 52.308C200.9 54.3283 199.78 56.258 198.74 58.1619C197.763 59.9493 196.761 61.732 195.681 63.4597" stroke="white" stroke-width="3" stroke-linecap="round"/>
<path d="M199.446 49.1722C198.997 49.6035 198.845 49.5224 199.232 50.122C200.37 51.8838 201.151 53.759 201.834 55.7411C202.21 56.83 202.558 58.4611 202.256 59.6142C202.101 60.2044 201.394 60.7551 200.991 61.146C199.409 62.6815 197.549 63.8221 195.58 64.7984C194.697 65.2358 193.786 65.5433 192.877 65.9088C192.282 66.148 192.64 66.1312 193.145 65.9356C195.28 65.1072 197.233 63.7623 198.911 62.2163C199.453 61.7172 200.637 60.6677 200.637 59.7613C200.637 58.8068 200.647 57.8873 200.69 56.9317C200.738 55.8823 200.342 54.9909 199.727 54.1557C198.331 52.2587 196.874 50.4761 195.566 48.5032C193.52 45.4152 191.275 42.3029 188.623 39.7001C187.997 39.0861 186.906 37.5558 185.927 37.4859C184.683 37.3971 183.579 37.1055 182.308 37.205C181.846 37.2411 179.323 37.1544 179.137 37.6532C178.948 38.1618 179.767 38.539 180.121 38.9509C181.908 41.0344 183.544 43.2329 185.024 45.5465C186.952 48.5606 188.77 51.7545 189.827 55.1925C190.298 56.7249 190.834 58.5536 190.844 60.1828C190.851 61.4353 189.867 60.9328 189.118 60.3834C185.91 58.0327 183.787 54.4693 183.425 50.5033C183.381 50.0207 183.19 48.8838 183.639 49.0651C183.884 49.1638 184.027 49.4305 184.168 49.6538C184.516 50.2088 184.813 50.7957 185.098 51.3863C186.7 54.7167 187.803 58.2447 188.623 61.8417C188.678 62.0849 189.036 63.5447 188.991 64.0626C188.984 64.1368 188.906 64.2854 188.85 64.2365C188.651 64.0626 188.543 63.8032 188.422 63.5675C186.701 60.2075 185.924 56.4603 184.529 52.9717C183.673 50.8309 181.985 48.9729 181.653 46.6302C181.479 45.4094 181.36 43.7191 181.987 42.5899C183.053 40.6717 184.232 46.4474 184.235 46.4697C184.452 48.0479 183.885 51.4543 185.827 52.2158C186.972 52.6649 189.026 52.3748 189.673 51.1856C189.977 50.6278 189.119 49.7759 189.459 51.2391C189.698 52.2668 190.324 53.9293 190.663 54.8313C190.911 55.4901 191.164 56.1474 191.432 56.798C191.598 57.2001 191.772 57.6001 191.967 57.9887C192.04 58.1322 192.075 58.38 192.235 58.39C192.865 58.4294 193.096 53.1334 193.091 52.9717C193.058 51.8353 192.777 49.8509 192.369 48.7307C192.047 47.8479 191.739 47.6101 191.352 48.6236C191.004 49.5338 190.528 52.1265 190.416 53.0118C190.313 53.823 190.203 55.0151 190.442 55.8748C190.48 56.0089 190.849 56.6767 191.098 56.7043C191.982 56.8025 192.407 54.2556 192.462 54.0085C192.795 52.5138 192.812 51.8655 192.978 50.3896C193.024 49.9715 192.964 48.8933 193.285 49.1655C193.55 49.3905 193.812 50.7903 193.82 50.8311C194.011 51.7688 194.074 52.3827 194.182 53.3195C194.207 53.5437 194.269 54.2158 194.222 53.9951C193.832 52.1626 194.001 52.5373 193.386 50.2291C192.92 48.4821 192.376 44.8724 190.201 44.2756C189.617 44.1152 188.457 43.6411 187.86 43.7939C186.755 44.0769 187.446 46.9906 187.646 47.5667C187.952 48.4477 189.66 50.4816 189.078 47.9815C188.903 47.2291 188.143 44.8736 187.86 44.1552C187.75 43.8749 187.718 43.4814 187.446 43.3525C187.274 43.2712 187.347 43.7245 187.352 43.9144C187.367 44.4473 187.444 44.9769 187.506 45.5064C187.608 46.3816 187.762 47.553 187.974 48.443C188.132 49.1086 188.203 49.0601 188.168 48.3895C188.038 45.9367 187.669 43.4463 187.265 41.0246C187.118 40.1434 186.91 40.2816 186.101 40.2486C184.799 40.1955 183.56 39.9534 182.281 39.7402C181.595 39.6258 183.379 40.599 183.967 40.9711C186.027 42.2748 188.063 43.6224 190.161 44.8642C190.493 45.0606 190.914 45.1468 191.165 45.4395C191.387 45.6985 190.538 45.1663 190.242 44.998C188.141 43.8068 186.181 42.3658 184.194 40.9978C183.867 40.7725 183.992 40.807 184.375 41.0246C185.158 41.4692 185.601 41.7881 186.335 42.3959C186.546 42.5702 189.091 45.3276 189.372 45.1786C189.972 44.8612 189.374 42.3459 189.265 41.8674C189.048 40.9209 188.928 40.8513 188.248 41.3457" stroke="white" stroke-width="3" stroke-linecap="round"/>
<path d="M190.895 47.0573C189.949 46.8437 189.019 46.3767 188.147 45.9583C187.544 45.6689 189.427 46.3481 190.057 46.573C190.273 46.6503 190.588 46.6012 190.709 46.7966C191.643 48.3072 191.446 52.076 191.519 53.5213C191.607 55.2685 191.683 57.6589 191.705 59.501C191.706 59.594 191.922 60.4205 191.528 60.4697C190.912 60.5467 190.265 60.5326 189.721 60.8888C189.155 61.2595 190.082 61.5197 190.299 61.7364C190.414 61.8517 188.406 62.569 188.045 62.6492" stroke="white" stroke-width="3" stroke-linecap="round"/>
</g>
<g filter="url(#filter1_d_97_1436)">
<rect x="13" y="63.999" width="199" height="47" fill="white"/>
</g>
<path d="M197.846 45.7044C199.075 46.355 200.165 47.3552 201.303 48.1556C202.282 48.844 203.177 49.6328 204.038 50.463C204.51 50.9191 204.911 51.2189 204.856 51.9161C204.563 55.6379 203.61 59.42 202.449 62.9582C202.248 63.5689 202.026 64.1713 201.774 64.7627C201.712 64.9091 201.635 65.1711 201.511 65.2896C201.177 65.607 199.197 63.9279 198.948 63.7487C198.551 63.4631 198.146 63.2117 197.742 62.9423C197.61 62.8541 198.735 62.9216 198.796 62.9343C199.205 63.0193 199.527 63.2696 199.922 63.3654C200.719 63.5591 201.2 61.9344 201.343 61.5011C202.25 58.7531 202.048 55.8479 202.473 53.0219C202.507 52.7924 202.448 52.2243 202.644 52.3473C202.735 52.404 202.471 53.5538 202.461 53.6167C202.397 54.0245 202.328 54.4328 202.277 54.8423C202.217 55.3214 202.511 53.9018 202.557 53.4211C202.681 52.0966 202.665 50.7545 202.437 49.441C202.335 48.8521 202.274 48.5389 201.71 48.435C200.352 48.1848 199.411 47.1963 198.389 46.3152C197.436 45.4945 196.506 44.6423 195.515 43.8681C194.308 42.9262 192.999 42.155 191.69 41.369C191.013 40.9625 190.349 40.5346 189.706 40.0756C189.559 39.9708 189.447 39.9001 189.367 39.7402" stroke="white" stroke-width="3" stroke-linecap="round"/>
<path d="M89.393 33.2361C88.579 33.6431 88.3077 34.1364 87.7033 36.3194C87.2593 37.8981 87.062 39.5014 87.062 41.4994C87.062 43.9784 87.2593 45.2241 88.135 48.1471C88.4557 49.2571 89.245 49.9108 90.318 49.9848C90.9963 50.0341 91.1937 49.9724 95.3377 48.2334C97.7057 47.2344 99.753 46.3711 99.8887 46.3094C102.022 45.3474 102.405 45.2734 102.516 45.8038C102.565 46.0381 103.021 46.3958 103.527 46.5808C104.107 46.7904 106.894 46.7904 107.486 46.5808C107.733 46.4944 108.164 46.1984 108.436 45.9148L108.941 45.4091L109.718 45.7298C110.15 45.9024 112.617 46.9384 115.207 48.0361C120.362 50.1944 120.584 50.2561 121.608 49.7628C122.15 49.4914 122.656 48.8501 122.866 48.1471C123.741 45.2241 123.939 43.9784 123.939 41.4994C123.939 38.9958 123.692 37.5281 122.841 34.7778C122.73 34.4324 122.471 33.9761 122.261 33.7418C121.423 32.8661 120.448 32.7674 118.907 33.4088C116.6 34.3831 110.434 36.9731 109.706 37.2814L108.917 37.6021L108.633 37.2568C108.423 37.0224 108.201 36.9114 107.905 36.8991C107.548 36.8744 107.511 36.8498 107.671 36.7264C108.016 36.4674 107.597 36.3811 105.821 36.3318C104.057 36.2948 103.058 36.4428 103.231 36.7141C103.293 36.8004 103.256 36.8251 103.132 36.7758C103.009 36.7388 102.824 36.8374 102.651 37.0348C102.491 37.2074 102.454 37.2814 102.577 37.1951C102.762 37.0471 102.787 37.0471 102.725 37.1951C102.688 37.2938 102.54 37.4294 102.38 37.4911C102.121 37.6144 101.48 37.4048 99.8887 36.6894C99.753 36.6278 97.718 35.7644 95.3623 34.7778C90.688 32.8168 90.392 32.7428 89.393 33.2361ZM106.734 36.5661C106.734 36.6401 106.105 36.6771 105.143 36.6648C104.267 36.6401 103.613 36.5908 103.675 36.5414C103.897 36.4181 106.734 36.4428 106.734 36.5661ZM107.35 36.5661C107.511 36.6771 107.511 36.6894 107.35 36.6894C107.252 36.6894 107.079 36.6278 106.98 36.5661C106.82 36.4551 106.82 36.4428 106.98 36.4428C107.079 36.4428 107.252 36.5044 107.35 36.5661ZM102.75 38.2558C102.701 38.2928 102.627 38.2928 102.577 38.2558C102.54 38.2064 102.577 38.1694 102.664 38.1694C102.75 38.1694 102.787 38.2064 102.75 38.2558ZM102.75 38.7491C102.701 38.7861 102.664 38.7491 102.664 38.6628C102.664 38.5764 102.701 38.5394 102.75 38.5764C102.787 38.6258 102.787 38.6998 102.75 38.7491Z" fill="#D62E2E"/>
<path d="M102.645 38.7939C102.678 38.6605 102.839 38.6197 102.93 38.5395C103.14 38.3569 103.295 38.1102 103.533 37.9623C103.957 37.6988 104.457 37.6045 104.951 37.5701C105.336 37.5432 105.734 37.5404 106.121 37.5426C106.547 37.5449 106.991 37.5876 107.406 37.6895C107.842 37.7966 108.218 38.0211 108.598 38.2535C109.483 38.7938 110.248 39.4794 110.979 40.2106" stroke="#D62E2E" stroke-width="3" stroke-linecap="round"/>
<path d="M188.4 46.1387C187.758 47.3303 186.895 48.365 186.243 49.5375" stroke="#D62E2E" stroke-width="2" stroke-linecap="round"/>
<path d="M186 34.499C186.54 34.1955 188.91 32.668 189.509 32.668C191.06 32.668 192.552 33.1411 194.001 33.6474C195.366 34.1241 196.772 34.614 198.055 35.2852C199.379 35.9771 203.908 40.4832 205 41.499C205.738 42.1856 208.327 47.2496 209 47.999C211 51.499 208.779 52.1753 210.5 53.499C211.612 54.3543 206 55.236 206 56.499" stroke="white" stroke-width="2" stroke-linecap="round"/>
<path d="M204.472 57.6094C205.036 57.1217 205.339 56.4322 205.651 55.7675C205.787 55.4765 205.969 55.2266 206.139 54.9547C206.399 54.5395 206.539 54.0859 206.76 53.6535C207.186 52.818 207.914 52.1681 208.162 51.2394C208.358 50.508 208.246 49.7346 208.428 49.0068" stroke="white" stroke-width="2" stroke-linecap="round"/>
<path d="M195.173 37.6753C194.672 37.317 194.178 36.9523 193.688 36.5788C193.329 36.3046 192.942 35.9538 192.5 35.8157C192.33 35.7627 192.153 35.7762 191.978 35.772C191.693 35.7652 191.428 35.7186 191.151 35.6571C190.825 35.5849 189.875 35.2642 189.588 35.6157C189.346 35.9111 189.503 36.4582 189.661 36.7512C189.977 37.3356 190.704 37.6883 191.254 37.9971C192.685 38.8008 194.19 39.4626 195.651 40.2084C196.371 40.5755 197.053 40.9928 197.716 41.4542C197.92 41.5966 198.078 41.7213 198.235 41.8955" stroke="#D62E2E" stroke-width="3" stroke-linecap="round"/>
<path d="M205.023 52.7772C205.157 52.9109 205.277 53.0564 205.388 53.2097C205.562 53.4503 205.828 53.4376 206.115 53.3348C206.781 53.0955 206.66 52.6299 206.618 52.0215C206.592 51.6434 206.538 51.3388 206.417 50.9792C205.869 49.3526 205.246 47.8101 204.304 46.367C203.075 44.486 201.38 43.003 199.733 41.4942C198.635 40.4882 197.528 39.5005 196.299 38.6592" stroke="#D62E2E" stroke-width="3" stroke-linecap="round"/>
<path d="M196.299 38.7539C197 40.5529 198.313 41.9355 199.538 43.3869C200.673 44.7323 201.768 46.1394 202.777 47.5822C203.32 48.3597 203.917 49.2121 204.171 50.1411C204.297 50.604 204.454 51.0545 204.601 51.5117" stroke="#D62E2E" stroke-width="3" stroke-linecap="round"/>
<path d="M204.883 46.6331C204.571 45.605 204.151 44.4636 203.449 43.6313C202.885 42.9616 202.162 42.394 201.534 41.7838C200.983 41.2479 200.442 40.6836 199.822 40.2255C197.969 38.8556 196.104 37.5045 194.001 36.5488" stroke="#D62E2E" stroke-width="3" stroke-linecap="round"/>
<path d="M179.04 64.9332C179.386 64.5054 179.956 64.1937 180.399 63.8817C181.395 63.1813 182.376 62.4628 183.354 61.7385C186.07 59.7275 188.657 57.5154 191.438 55.5951C193.875 53.9121 196.201 52.0627 198.669 50.4264C199.66 49.7699 200.779 49.2268 201.621 48.3848" stroke="#D62E2E" stroke-width="3" stroke-linecap="round"/>
<path d="M202.341 50.2666C200.856 51.4292 199.146 52.1693 197.526 53.1077C195.823 54.0939 194.219 55.2906 192.625 56.4408C191.503 57.2498 190.425 58.1067 189.316 58.9313C188.019 59.8963 186.619 60.702 185.31 61.6494C184.448 62.2732 183.548 62.873 182.748 63.5773C182.405 63.8795 181.998 64.0502 181.648 64.3399C181.064 64.8228 180.46 65.2294 179.926 65.7635" stroke="#D62E2E" stroke-width="3" stroke-linecap="round"/>
<path d="M182.416 64.1578C183.036 64.1578 183.891 64.2226 184.415 63.8626C185.108 63.3858 185.744 62.9803 186.124 62.2207" stroke="#D62E2E" stroke-width="3" stroke-linecap="round"/>
<path d="M186.567 61.8889C187.061 61.7266 187.584 61.5819 188.099 61.5138C188.303 61.4868 188.414 61.3898 188.597 61.2985C189.121 61.0365 189.638 60.7831 190.15 60.496C191.363 59.8145 192.452 58.8269 193.43 57.8486" stroke="#D62E2E" stroke-width="3" stroke-linecap="round"/>
<path d="M193.596 58.458C193.977 58.458 194.393 58.5106 194.74 58.3196C195.621 57.8333 196.517 57.3773 197.408 56.9083C198.863 56.1426 200.466 55.6969 201.91 54.8974C202.442 54.6027 202.999 54.3553 203.53 54.0549C203.832 53.8846 204.684 53.5639 204.711 53.1386C204.768 52.2282 203.375 52.1981 202.826 52.4191C201.61 52.9089 200.614 53.8147 199.573 54.5838" stroke="#D62E2E" stroke-width="3" stroke-linecap="round"/>
<path d="M195.938 42.9431C194.845 42.2735 193.753 41.5265 192.589 40.9875C192.156 40.787 191.748 40.6851 191.338 40.4218C190.906 40.1439 190.443 39.8793 189.954 39.7146C189.687 39.6246 189.434 39.4691 189.161 39.4009C188.75 39.2982 188.533 39.9908 188.377 40.2557C188.018 40.8657 187.589 41.3692 187.279 42.0145C186.541 43.5545 186.401 45.3036 185.508 46.7773C185.165 47.3435 184.764 47.8736 184.5 48.4838C184.144 49.3051 183.872 50.1564 183.528 50.9806C183.218 51.7227 182.827 52.427 182.519 53.1729C182.164 54.035 181.941 54.9302 181.631 55.808C180.788 58.1914 179.782 60.5239 179.168 62.9784" stroke="#D62E2E" stroke-width="3" stroke-linecap="round"/>
<path d="M180.154 73.9083C180.073 73.3855 180.33 72.9256 180.496 72.4441C180.688 71.8888 180.721 71.2691 180.714 70.683C180.705 70.0195 180.605 69.3533 180.584 68.6887C180.573 68.369 180.509 68.0535 180.465 67.7374C180.429 67.4813 180.424 67.2208 180.408 66.9629" stroke="#D62E2E" stroke-linecap="round"/>
<path d="M179.796 66.4922C179.629 66.52 179.324 66.6818 179.419 66.8701" stroke="#D62E2E" stroke-linecap="round"/>
<path d="M189.621 61.4536C190.134 61.4215 190.656 61.2303 191.137 61.0664C191.417 60.971 191.709 60.8743 191.972 60.7375C192.026 60.7095 192.461 60.4223 192.243 60.5928C191.842 60.9067 191.492 61.29 191.03 61.5189C190.841 61.6123 190.642 61.6606 190.444 61.7265C190.343 61.7603 190.588 61.6905 190.596 61.6868C190.751 61.6143 190.84 61.5137 190.923 61.3696" stroke="#D62E2E" stroke-linecap="round"/>
<path d="M179.265 73.8145C179.447 74.0627 179.736 74.1731 179.988 74.3298C180.089 74.3926 180.182 74.4748 180.292 74.522C180.373 74.5564 180.461 74.5847 180.544 74.6079C180.662 74.6405 180.656 74.606 180.732 74.6006" stroke="#D62E2E" stroke-linecap="round"/>
<path d="M205.151 54.999C204.958 55.0017 204.794 55.0259 204.616 55.0939C204.003 55.3273 203.376 55.5208 202.762 55.7506C202.274 55.9331 201.81 56.1519 201.395 56.4692C201.071 56.718 200.756 56.9191 200.386 57.0942C200 57.2771 199.625 57.4671 199.221 57.6092C198.676 57.8004 198.123 58.0066 197.602 58.2583C197.307 58.4009 197.03 58.576 196.742 58.7289C196.517 58.8482 196.267 58.9096 196.041 59.0301" stroke="#D62E2E" stroke-width="2" stroke-linecap="round"/>
<path d="M187.605 34.3238L187.606 34.3229C187.709 34.1772 187.888 34.0017 188.095 33.8346C188.302 33.6682 188.532 33.5135 188.734 33.4079C189.225 33.1669 189.542 33.0555 189.98 33.0663C190.425 33.0774 190.997 33.2142 191.998 33.4848L191.999 33.4849C200.237 35.6746 206.861 42.424 208.961 50.7348L208.961 50.735C209.15 51.4743 209.248 51.9004 209.272 52.2286C209.296 52.5521 209.249 52.7816 209.142 53.1288L209.142 53.1295C209.029 53.5125 208.72 53.9946 208.381 54.3826C208.213 54.5759 208.038 54.7434 207.88 54.8619C207.801 54.9211 207.727 54.9672 207.66 54.9983C207.594 55.0296 207.538 55.0438 207.496 55.0438C207.477 55.0438 207.456 55.0491 207.438 55.0543C207.418 55.0602 207.394 55.0685 207.366 55.079C207.31 55.0999 207.235 55.1304 207.146 55.1691C206.967 55.2466 206.724 55.3583 206.434 55.4957C205.855 55.7706 205.09 56.1489 204.279 56.5631L204.279 56.5631C201.186 58.1458 198.704 59.2246 195.323 60.4296L195.323 60.4297C194.674 60.6643 194.104 60.8991 193.645 61.1209C193.187 61.3421 192.834 61.5522 192.62 61.7381L192.62 61.7382C191.642 62.5919 190.287 63.1451 188.824 63.27L188.824 63.27C188.804 63.2718 188.785 63.2736 188.765 63.2753C188.449 63.3041 188.205 63.3262 188.008 63.3602C187.798 63.3964 187.637 63.4468 187.494 63.5365C187.351 63.626 187.231 63.7515 187.1 63.9297C186.973 64.1032 186.831 64.3309 186.644 64.63L186.631 64.6512L186.631 64.6514C186.255 65.2607 185.952 65.6168 185.527 65.8378C185.1 66.0601 184.542 66.1499 183.642 66.2039L187.605 34.3238ZM187.605 34.3238C187.346 34.6789 187.186 35.232 187.143 35.8125C187.101 36.3924 187.177 36.9878 187.378 37.4246L187.379 37.4252L187.685 38.1092L187.697 38.1382L187.683 38.1665L186.693 40.1283C183.797 45.9207 179.496 56.7531 177.499 63.2658C177.333 63.8194 177.211 64.2475 177.14 64.5996C177.069 64.9514 177.049 65.2231 177.083 65.4645C177.152 65.9457 177.439 66.3229 178.025 66.9821L178.026 66.9822C178.455 67.4663 178.722 67.9398 178.86 68.5669C178.997 69.191 179.005 69.964 178.924 71.0454L178.924 71.0458C178.816 72.3877 178.772 73.2065 178.803 73.7592C178.834 74.3074 178.939 74.5869 179.127 74.8531C179.585 75.46 180.153 75.7089 180.647 75.6453C181.139 75.5819 181.58 75.2053 181.782 74.5138L181.782 74.5138L181.782 74.5126C181.957 73.9515 181.959 73.4424 181.797 72.0745C181.662 70.9832 181.594 69.9184 181.597 69.022C181.599 68.1283 181.671 67.3942 181.819 66.9687C181.819 66.9687 181.819 66.9686 181.819 66.9685L182.035 66.3388L182.049 66.2965L182.094 66.2939L183.642 66.2039L187.605 34.3238ZM192.664 61.7884C191.674 62.6524 190.306 63.2104 188.83 63.3364L192.664 61.7884ZM192.664 61.7884C193.078 61.4284 194.05 60.9604 195.346 60.4924M192.664 61.7884L195.346 60.4924M195.346 60.4924C198.73 59.2864 201.214 58.2064 204.31 56.6224C205.93 55.7944 207.37 55.1104 207.496 55.1104C207.946 55.1104 208.972 53.9404 209.206 53.1484L195.346 60.4924ZM180.717 74.5847C180.649 74.6388 180.59 74.6826 180.536 74.7119C180.48 74.7417 180.424 74.7589 180.364 74.7542C180.305 74.7495 180.251 74.724 180.197 74.6856C180.143 74.6475 180.084 74.5935 180.017 74.5256C179.879 74.3876 179.801 74.2337 179.768 73.9715C179.736 73.7146 179.745 73.3484 179.781 72.7823C179.853 71.5687 179.875 70.5089 179.849 69.6656C179.822 68.8196 179.745 68.1991 179.623 67.859L179.623 67.859L179.622 67.8575C179.5 67.4909 179.092 66.8325 178.7 66.3865L178.7 66.3865L178.699 66.3853C178.509 66.16 178.333 65.943 178.204 65.773C178.139 65.6882 178.086 65.6141 178.048 65.556C178.03 65.5271 178.014 65.501 178.003 65.4788C177.997 65.4677 177.992 65.4565 177.988 65.4458C177.985 65.4359 177.981 65.4219 177.981 65.4064C177.981 65.3824 177.993 65.3653 177.998 65.3579C178.005 65.3492 178.013 65.3422 178.019 65.3369C178.033 65.3261 178.05 65.3152 178.069 65.3045C178.107 65.2827 178.161 65.2562 178.229 65.226C178.365 65.1653 178.561 65.0866 178.803 64.9953C179.285 64.8127 179.952 64.5783 180.691 64.3351L180.691 64.3351C183.822 63.3092 190.533 60.8262 191.898 60.1979L191.898 60.1977C192.236 60.0448 192.495 59.9314 192.681 59.8609C192.774 59.8256 192.851 59.8002 192.911 59.786C192.941 59.7789 192.969 59.7742 192.993 59.7728C193.017 59.7715 193.043 59.7728 193.068 59.783C193.096 59.7948 193.118 59.8179 193.126 59.8514C193.133 59.8799 193.126 59.9074 193.119 59.9283C193.103 59.9707 193.07 60.021 193.026 60.0767C192.937 60.1903 192.788 60.3504 192.585 60.557C191.546 61.6322 190.271 62.1955 188.512 62.3588C188.119 62.4035 187.726 62.4706 187.411 62.542C187.254 62.5777 187.117 62.6143 187.01 62.6494C186.901 62.6855 186.831 62.7174 186.801 62.7411C186.766 62.7677 186.716 62.8202 186.654 62.8961C186.593 62.9709 186.522 63.065 186.448 63.1721C186.298 63.3862 186.133 63.6497 185.99 63.9086L185.99 63.9093C185.835 64.1816 185.663 64.4451 185.506 64.6525C185.427 64.7561 185.352 64.8466 185.284 64.9174C185.218 64.9858 185.155 65.0407 185.1 65.0689C185.044 65.1017 184.954 65.1278 184.847 65.1495C184.737 65.172 184.6 65.1914 184.447 65.2073C184.14 65.239 183.765 65.2571 183.394 65.2571C182.547 65.2571 182.026 65.3347 181.665 65.5787C181.305 65.8211 181.09 66.2371 180.884 66.9549L180.884 66.9555C180.582 67.9667 180.598 69.0683 180.922 72.9249L180.922 72.9252C180.967 73.4995 180.986 73.8571 180.96 74.0963C180.947 74.2171 180.923 74.3119 180.882 74.3911C180.841 74.471 180.786 74.5309 180.717 74.5847ZM180.717 74.5847C180.717 74.5846 180.717 74.5846 180.717 74.5845L180.676 74.5324L180.717 74.5849C180.717 74.5848 180.717 74.5847 180.717 74.5847ZM192.846 34.6891L192.847 34.6892C195.21 35.4828 196.673 36.1872 198.424 37.3428C202.197 39.8161 205.104 43.3004 206.927 47.524C207.297 48.3817 207.653 49.3832 207.917 50.2651C208.049 50.7061 208.158 51.1178 208.234 51.4673C208.31 51.8154 208.354 52.1059 208.354 52.3024C208.354 53.1977 207.771 53.8984 207.048 54.2174C206.324 54.5365 205.446 54.4795 204.855 53.8417L204.855 53.8417C204.741 53.7184 204.585 53.4783 204.427 53.1943C204.268 52.9087 204.105 52.5731 203.978 52.2552C202.164 47.7837 199.417 44.1581 195.828 41.502L195.827 41.5015C195.004 40.8753 193.299 39.8876 192.059 39.2947C191.13 38.8637 190.17 38.4023 189.602 38.1295C189.411 38.0378 189.265 37.9673 189.179 37.9267L189.178 37.9263C188.272 37.4823 187.764 36.4424 188.064 35.5592C188.36 34.6726 189.229 33.9838 190.072 33.9838C190.169 33.9838 190.319 34.0052 190.505 34.0415C190.691 34.0782 190.918 34.1308 191.168 34.1951C191.669 34.3238 192.269 34.4997 192.846 34.6891ZM185.073 45.918L186.296 46.0079L186.297 46.008C186.8 46.0439 187.131 46.0478 187.411 46.0041C187.689 45.9606 187.92 45.8696 188.222 45.7095L188.224 45.709C189.655 44.9843 190.431 43.3411 190.043 41.8431L190.043 41.8429C189.794 40.8644 189.316 40.1449 188.635 39.7605L188.635 39.7606L188.632 39.759C188.483 39.6658 188.359 39.5571 188.279 39.4499C188.202 39.347 188.152 39.2269 188.191 39.121C188.2 39.0969 188.207 39.0757 188.214 39.0552C188.217 39.0461 188.22 39.037 188.223 39.0279C188.232 39.0007 188.243 38.9712 188.259 38.9461C188.277 38.9189 188.301 38.8953 188.336 38.8817C188.369 38.8689 188.406 38.8672 188.445 38.8711C188.521 38.8787 188.631 38.9107 188.791 38.9648C188.905 39.0031 189.048 39.0537 189.228 39.1175C189.305 39.1451 189.39 39.175 189.482 39.2075C190.062 39.4072 191.326 39.9849 192.298 40.4893L192.299 40.4894L194.081 41.4254L194.175 41.4752L194.089 41.5383L193.423 42.0243L193.423 42.0244C192.965 42.3562 192.665 42.6131 192.423 42.9124C192.181 43.2115 191.995 43.5562 191.771 44.0672L191.77 44.0677C190.76 46.3196 191.752 49.0371 194.009 50.2457C194.536 50.5265 195.027 50.6338 196.048 50.6338C196.633 50.6338 196.995 50.6156 197.313 50.5432C197.63 50.4711 197.907 50.3442 198.319 50.1201C198.79 49.8538 199.288 49.4488 199.669 49.0523C199.86 48.854 200.019 48.6594 200.131 48.4868C200.244 48.3113 200.301 48.1689 200.301 48.0724H200.301L200.301 48.0697C200.302 48.0387 200.307 48.0091 200.317 47.9836C200.327 47.9575 200.345 47.931 200.376 47.9161C200.407 47.9012 200.439 47.9035 200.465 47.9112C200.49 47.9188 200.515 47.9329 200.539 47.9495C200.629 48.0142 200.749 48.1558 200.886 48.3489C201.163 48.7396 201.533 49.3728 201.921 50.1301L201.921 50.1309C202.273 50.8436 202.683 51.7676 202.992 52.5248C203.146 52.9033 203.276 53.2411 203.36 53.4905C203.402 53.6149 203.433 53.719 203.451 53.7958C203.459 53.8338 203.465 53.8678 203.467 53.8955C203.467 53.9091 203.467 53.9242 203.464 53.9386C203.462 53.9516 203.455 53.9745 203.434 53.9917L203.428 53.9966L203.421 54.0001C203.411 54.0052 203.369 54.0277 203.303 54.0632C203.136 54.1521 202.818 54.3224 202.468 54.5036L202.467 54.5043L201.549 54.9543L201.485 54.9857L201.458 54.9197L201.134 54.1281C201.134 54.128 201.134 54.128 201.134 54.128C200.958 53.706 200.497 53.0666 200.108 52.7311C197.785 50.7623 194.396 51.4694 192.939 54.2415L192.939 54.2417C192.721 54.6503 192.604 55.3661 192.6 56.0919C192.595 56.8178 192.703 57.5331 192.921 57.9411L192.921 57.9411L192.922 57.9439C193.003 58.1152 193.076 58.2737 193.126 58.392C193.15 58.4509 193.17 58.5011 193.183 58.5383C193.189 58.5566 193.194 58.5739 193.197 58.5885C193.199 58.5955 193.2 58.6047 193.2 58.6145C193.2 58.6195 193.2 58.6462 193.179 58.6676L193.171 58.6752L193.161 58.6801C192.977 58.7721 192.339 59.021 191.749 59.2409C191.453 59.3513 191.167 59.4549 190.954 59.5289C190.847 59.5658 190.759 59.5955 190.695 59.6149C190.664 59.6245 190.638 59.632 190.619 59.6365C190.609 59.6387 190.599 59.6408 190.59 59.6417C190.586 59.6421 190.579 59.6427 190.57 59.6417C190.566 59.6412 190.558 59.64 190.549 59.6361C190.543 59.6333 190.534 59.6279 190.525 59.6182C190.516 59.6081 190.506 59.5936 190.498 59.5806C190.487 59.564 190.473 59.5422 190.457 59.5163C190.426 59.4645 190.384 59.3943 190.336 59.3109C190.279 59.2126 190.211 59.0953 190.138 58.9676C190.087 58.879 190.033 58.7855 189.978 58.6898L189.978 58.6896C189.02 57.0229 187.282 56.1682 185.126 56.293C184.266 56.3468 183.627 56.4719 183.067 56.7367C182.506 57.0015 182.018 57.4084 181.464 58.0346L181.463 58.0353C180.928 58.624 180.573 59.1921 180.361 59.8317C180.148 60.4717 180.076 61.1874 180.112 62.0734C180.112 62.0735 180.112 62.0736 180.112 62.0738L180.184 63.4409L180.187 63.491L180.139 63.5074L179.203 63.8314L179.203 63.8314L179.202 63.8318L178.266 64.1378L178.14 64.1793L178.183 64.053L179.623 59.823L179.623 59.8228C180.883 56.1497 183.476 49.3797 184.629 46.7854L184.629 46.7848L185.007 45.9568L185.026 45.9146L185.073 45.918ZM202.99 56.2139L202.99 56.214C201.682 56.8721 199.651 57.7683 197.927 58.4773C197.065 58.8319 196.279 59.14 195.697 59.3484C195.407 59.4524 195.166 59.5321 194.993 59.5801C194.906 59.604 194.834 59.6207 194.78 59.6283C194.753 59.6321 194.728 59.6341 194.706 59.6328C194.695 59.6321 194.683 59.6305 194.671 59.6266C194.66 59.623 194.644 59.6162 194.632 59.6027C194.593 59.5634 194.575 59.5121 194.589 59.4543C194.601 59.403 194.638 59.3543 194.685 59.3077C194.782 59.2133 194.955 59.0988 195.214 58.9558C195.735 58.6685 196.624 58.2534 198 57.6416C199.728 56.8677 201.833 55.896 202.678 55.4826C203.281 55.1857 203.686 55.0078 203.976 54.9227C204.266 54.8376 204.452 54.8417 204.61 54.9248C204.649 54.9437 204.687 54.9657 204.715 54.9933C204.745 55.0229 204.766 55.0627 204.763 55.1119C204.759 55.1571 204.734 55.1977 204.703 55.234C204.67 55.2711 204.624 55.3105 204.565 55.3534C204.33 55.5238 203.843 55.783 202.99 56.2139Z" fill="#D62E2E" stroke="#D62E2E" stroke-width="0.133333"/>
<path d="M185.729 48.9956L185.728 48.9957C183.835 49.9868 183.314 52.2598 184.613 53.7344C184.988 54.1536 185.327 54.4345 185.706 54.6115C186.083 54.7884 186.505 54.864 187.047 54.864C188.529 54.864 189.655 54.0024 190.043 52.5554L190.043 52.555C190.377 51.3433 189.851 50.163 188.96 49.4291C188.07 48.6952 186.825 48.4169 185.729 48.9956Z" fill="#D62E2E" stroke="#D62E2E" stroke-width="0.133333"/>
<path d="M180.866 61.2802C181.612 59.6548 182.339 58.0392 183.197 56.4651C185.089 52.9925 187.402 49.7572 189.19 46.2292C189.827 44.9705 190.322 43.6236 191.035 42.4042C191.269 42.0034 191.493 41.6965 191.76 41.3157C191.882 41.1422 192.002 40.9681 192.126 40.7961C192.24 40.6375 192.503 40.1459 192.495 40.341C192.489 40.4893 192.413 40.6268 192.36 40.7653C192.2 41.1806 192.027 41.5908 191.855 42.0014C190.879 44.3372 190.673 44.7429 189.654 47.2408C188.376 50.3731 187.378 53.6457 185.915 56.6988C183.803 61.1071 186.516 55.3742 184.833 58.8604C184.751 59.029 184.61 59.1867 184.605 59.3739C184.602 59.4928 184.763 59.1947 184.827 59.0941C185.079 58.6938 185.316 58.2835 185.552 57.8734C187.545 54.4159 189.479 50.9391 191.649 47.5883C191.863 47.258 192.073 46.9248 192.292 46.5982C192.43 46.3928 192.366 46.5145 192.261 46.7734C191.249 49.2765 190.112 51.7308 188.971 54.1775C188.959 54.2047 188.604 54.9562 188.516 55.1553C188.501 55.1903 188.455 55.289 188.486 55.266C188.772 55.0512 189 54.7674 189.248 54.5096C190.494 53.2165 191.716 51.9011 192.925 50.5739C193.739 49.6806 194.16 49.2059 194.93 48.3385C195.22 48.012 195.475 47.6472 195.813 47.3699C195.935 47.2695 195.746 47.6823 195.677 47.825C195.023 49.1875 194.289 50.5146 193.522 51.8161C193.028 52.6537 192.645 53.2531 192.126 54.0361C192.039 54.1676 191.947 54.2962 191.859 54.4266C191.637 54.7519 191.852 54.4387 191.874 54.4081C193.035 52.7522 194.14 51.0668 195.256 49.3808" stroke="#D62E2E" stroke-width="3" stroke-linecap="round"/>
<path d="M179.823 67.2422C179.823 67.7505 179.959 68.2353 179.99 68.7418C180.038 69.5231 180.078 70.298 180.078 71.081C180.078 71.4547 180.065 71.8323 180.079 72.2061C180.087 72.4287 180.126 72.6465 180.126 72.8704C180.126 73.1144 180.034 73.4733 180.12 73.7071C180.185 73.8841 180.347 73.959 180.499 74.0491C180.623 74.123 180.535 74.4799 180.709 74.2781C180.94 74.0118 181.025 73.6156 181.129 73.2887C181.204 73.0538 181.255 72.84 181.248 72.5933C181.246 72.5286 181.205 72.4359 181.146 72.4068" stroke="#D62E2E" stroke-linecap="round"/>
<path d="M180.342 66.6181C180.363 66.4098 180.699 66.2691 180.846 66.1562" stroke="#D62E2E" stroke-linecap="round"/>
<path d="M207.677 53.2555C208.074 53.2195 208.209 52.7309 208.267 52.4115C208.302 52.221 208.279 52.0673 208.222 51.8835C208.103 51.504 208.044 51.1196 207.951 50.734C207.78 50.0183 207.448 49.3728 207.105 48.7279C206.673 47.9145 206.372 46.9849 205.844 46.2292C205.272 45.4122 204.614 44.6326 203.975 43.8677C203.231 42.9775 202.378 42.195 201.54 41.3939C201.218 41.0854 200.866 40.7885 200.607 40.4211C200.511 40.2842 200.422 40.1634 200.306 40.0469" stroke="#D62E2E" stroke-width="2" stroke-linecap="round"/>
<path d="M200.83 39.7099C200.83 39.476 200.733 39.4074 200.555 39.2484C200.197 38.9275 199.854 38.6329 199.425 38.4148C199.032 38.2151 198.708 37.9045 198.323 37.6893C197.947 37.4793 197.546 37.2811 197.144 37.1239C196.833 37.0021 196.523 36.9239 196.223 36.7705C195.951 36.6313 195.546 36.5395 195.313 36.3381C195.26 36.2923 195.453 36.3392 195.523 36.3464C195.8 36.3752 196.061 36.43 196.317 36.5439C197.363 37.0106 194.051 36.1904 192.935 35.9307" stroke="#D62E2E" stroke-width="2" stroke-linecap="round"/>
<path d="M188.668 35.8184C188.505 35.9635 187.939 36.2864 188.219 36.5667" stroke="#D62E2E" stroke-width="2" stroke-linecap="round"/>
<path d="M31.112 86.712C32.4987 86.712 33.5867 86.3173 34.376 85.528C35.1867 84.7387 35.592 83.6507 35.592 82.264C35.592 80.3653 35.112 78.808 34.152 77.592C33.2133 76.376 31.8267 75.768 29.992 75.768C28.584 75.768 27.3253 76.1627 26.216 76.952V96.248L31.304 97.592L30.568 99.032H18.856V97.88L21.864 95.512V76.376L18.472 75.288L19.208 73.848H23.24C25.2667 73.848 27.2613 73.784 29.224 73.656C30.7173 73.5707 31.8053 73.528 32.488 73.528C34.024 73.528 35.3787 73.848 36.552 74.488C37.7467 75.128 38.664 76.0027 39.304 77.112C39.9653 78.2 40.296 79.4267 40.296 80.792C40.296 82.2853 39.7413 83.704 38.632 85.048C37.5227 86.3707 36.1147 87.4053 34.408 88.152C32.7013 88.8987 31.0267 89.2293 29.384 89.144L27.912 88.12L28.648 86.68H31.08L31.112 86.712ZM55.7593 99H46.6073V97.848L49.4553 95.576V86.616L46.6073 84.664V83.512L52.2393 81.336H53.6153V96.504L56.4953 97.56L55.7593 99ZM51.4073 71.736C52.1113 71.736 52.6873 71.992 53.1353 72.504C53.5833 72.9947 53.8073 73.6027 53.8073 74.328C53.8073 74.84 53.6473 75.3307 53.3273 75.8C53.0073 76.248 52.6019 76.6107 52.1113 76.888C51.6206 77.144 51.1406 77.272 50.6713 77.272C49.9886 77.272 49.4233 77.0267 48.9753 76.536C48.5273 76.0453 48.3033 75.4267 48.3033 74.68C48.3033 74.168 48.4633 73.688 48.7833 73.24C49.1033 72.7707 49.5086 72.408 49.9993 72.152C50.4899 71.8747 50.9593 71.736 51.4073 71.736ZM75.0418 94.84L76.4178 92.184L77.5378 92.536V99.576L75.6178 99H62.5618V97.624L73.1538 86.104H65.3458L64.0658 88.472L62.9458 88.088V81.368L64.8658 81.944H77.9218V83.32L67.3938 94.84H75.0418ZM97.703 94.84L99.079 92.184L100.199 92.536V99.576L98.279 99H85.223V97.624L95.815 86.104H88.007L86.727 88.472L85.607 88.088V81.368L87.527 81.944H100.583V83.32L90.055 94.84H97.703ZM124.396 99H118.06V96.216L114.444 99.064C114.018 99.2347 113.484 99.32 112.844 99.32C110.967 99.32 109.612 98.8613 108.78 97.944C107.948 97.0053 107.532 95.8747 107.532 94.552C107.532 93.784 107.799 93.0267 108.332 92.28C108.866 91.512 109.644 90.7867 110.668 90.104H118.06V88.376C118.06 85.88 116.727 84.632 114.06 84.632C112.716 84.632 111.031 85.3893 109.004 86.904L108.044 85.56L112.62 81.944C113.602 81.7307 114.668 81.624 115.82 81.624C117.847 81.624 119.415 82.1147 120.524 83.096C121.655 84.0773 122.22 85.496 122.22 87.352V96.44L125.1 97.56L124.396 99ZM113.996 96.28C115.255 96.28 116.61 95.7147 118.06 94.584V91.576H112.492C112.236 91.896 112.055 92.216 111.948 92.536C111.842 92.856 111.788 93.208 111.788 93.592C111.788 94.3387 111.991 94.9787 112.396 95.512C112.802 96.024 113.335 96.28 113.996 96.28ZM165.17 81.432L164.05 81.816L159.73 75.48H156.018V96.472L159.41 97.56L158.706 99H148.658V97.848L151.666 95.48V75.48H148.05L143.73 81.816L142.61 81.432V73.272L144.466 73.848H163.314L165.17 73.272V81.432ZM178.597 81.624C180.047 81.624 181.338 81.9973 182.469 82.744C183.621 83.4693 184.517 84.4613 185.157 85.72C185.797 86.9787 186.117 88.376 186.117 89.912C186.117 91.576 185.605 93.1333 184.581 94.584C183.578 96.0133 182.309 97.1653 180.773 98.04C179.237 98.8933 177.754 99.32 176.325 99.32C174.895 99.32 173.605 98.9573 172.453 98.232C171.322 97.4853 170.426 96.4827 169.765 95.224C169.125 93.9653 168.805 92.568 168.805 91.032C168.805 89.368 169.306 87.8213 170.309 86.392C171.333 84.9413 172.613 83.7893 174.149 82.936C175.685 82.0613 177.167 81.624 178.597 81.624ZM176.741 84.536C174.437 84.536 173.285 86.1893 173.285 89.496C173.285 91.48 173.701 93.1333 174.533 94.456C175.386 95.7787 176.602 96.44 178.181 96.44C179.311 96.44 180.165 96.0133 180.741 95.16C181.317 94.3067 181.605 93.0587 181.605 91.416C181.605 89.4533 181.178 87.8213 180.325 86.52C179.493 85.1973 178.298 84.536 176.741 84.536ZM210.046 83.096L201.95 99L195.102 107.448L193.726 106.36C194.899 105.059 195.795 103.917 196.414 102.936C197.054 101.955 197.502 100.973 197.758 99.992C198.014 99.0107 198.152 97.8587 198.174 96.536L194.238 86.936L191.23 85.176V84.024L197.022 81.336L198.238 86.168L202.078 95.48L206.462 86.488L202.142 83.384L202.846 81.944H210.046V83.096Z" fill="#D62E2E"/>
<path d="M184.241 34.404C185.349 34.3579 186.419 33.8325 187.365 33.2938C188.06 32.8976 188.804 32.6312 189.505 32.247C189.828 32.0699 189.9 32.0326 189.475 32.0528C188.446 32.1018 187.182 32.3751 186.28 32.9013C185.486 33.3644 184.729 33.89 183.929 34.3449C183.614 34.5239 183.204 34.6981 182.945 34.957C182.474 35.4283 184.047 34.1982 184.646 33.9059C185.339 33.5678 186.09 33.3701 186.799 33.0701C187.692 32.6923 188.877 32.3131 189.864 32.2765C190.702 32.2455 191.511 32.1112 192.346 32.3103C192.838 32.4277 193.309 32.6133 193.781 32.7915C194.043 32.8905 194.429 32.9466 194.668 33.0955C194.933 33.2612 193.999 33.1339 193.739 32.9604" stroke="white" stroke-width="2" stroke-linecap="round"/>
<path d="M188.8 31.8206C190.058 31.8206 191.307 31.8115 192.561 31.8966C193.678 31.9723 194.8 32.4642 195.782 32.9772C197.666 33.9609 199.438 34.9849 201.177 36.2191C202.059 36.8451 202.771 37.6201 203.566 38.3466C204.456 39.1594 205.284 39.9934 205.93 41.0187C206.828 42.4431 207.642 43.9215 208.497 45.3708C209.1 46.3937 209.551 47.4429 209.957 48.562C210.26 49.3985 210.649 50.2717 210.801 51.1539C211.059 52.6465 210.95 53.8505 209.911 54.9994C208.936 56.0766 207.736 56.6678 206.546 57.4689C205.664 58.0629 204.726 58.5869 203.845 59.1742" stroke="white" stroke-width="2" stroke-linecap="round"/>
<defs>
<filter id="filter0_d_97_1436" x="29.7905" y="0" width="178.08" height="96.582" filterUnits="userSpaceOnUse" color-interpolation-filters="sRGB">
<feFlood flood-opacity="0" result="BackgroundImageFix"/>
<feColorMatrix in="SourceAlpha" type="matrix" values="0 0 0 0 0 0 0 0 0 0 0 0 0 0 0 0 0 0 127 0" result="hardAlpha"/>
<feOffset dy="4"/>
<feGaussianBlur stdDeviation="2"/>
<feComposite in2="hardAlpha" operator="out"/>
<feColorMatrix type="matrix" values="0 0 0 0 0 0 0 0 0 0 0 0 0 0 0 0 0 0 0.25 0"/>
<feBlend mode="normal" in2="BackgroundImageFix" result="effect1_dropShadow_97_1436"/>
<feBlend mode="normal" in="SourceGraphic" in2="effect1_dropShadow_97_1436" result="shape"/>
</filter>
<filter id="filter1_d_97_1436" x="9" y="63.999" width="207" height="55" filterUnits="userSpaceOnUse" color-interpolation-filters="sRGB">
<feFlood flood-opacity="0" result="BackgroundImageFix"/>
<feColorMatrix in="SourceAlpha" type="matrix" values="0 0 0 0 0 0 0 0 0 0 0 0 0 0 0 0 0 0 127 0" result="hardAlpha"/>
<feOffset dy="4"/>
<feGaussianBlur stdDeviation="2"/>
<feComposite in2="hardAlpha" operator="out"/>
<feColorMatrix type="matrix" values="0 0 0 0 0 0 0 0 0 0 0 0 0 0 0 0 0 0 0.25 0"/>
<feBlend mode="normal" in2="BackgroundImageFix" result="effect1_dropShadow_97_1436"/>
<feBlend mode="normal" in="SourceGraphic" in2="effect1_dropShadow_97_1436" result="shape"/>
</filter>
</defs>
</svg>
