<svg width="37" height="125" viewBox="0 0 37 125" fill="none" xmlns="http://www.w3.org/2000/svg">
<rect x="23.1341" y="94.8614" width="12.3673" height="12.3673" transform="rotate(-90.5524 23.1341 94.8614)" fill="white" stroke="white"/>
<rect x="9.89628" y="108.358" width="12.3673" height="12.3673" transform="rotate(-90.5524 9.89628 108.358)" fill="white" stroke="white"/>
<rect x="23.3919" y="121.595" width="12.3673" height="12.3673" transform="rotate(-90.5524 23.3919 121.595)" fill="white" stroke="white"/>
<rect x="22.3609" y="14.6612" width="12.3673" height="12.3673" transform="rotate(-90.5524 22.3609 14.6612)" fill="white" stroke="white"/>
<rect x="22.6184" y="41.3946" width="12.3673" height="12.3673" transform="rotate(-90.5524 22.6184 41.3946)" fill="white" stroke="white"/>
<rect x="9.12284" y="28.1563" width="12.3673" height="12.3673" transform="rotate(-90.5524 9.12284 28.1563)" fill="white" stroke="white"/>
<rect x="9.63847" y="81.6231" width="12.3673" height="12.3673" transform="rotate(-90.5524 9.63847 81.6231)" fill="white" stroke="white"/>
<rect x="22.8763" y="68.128" width="12.3673" height="12.3673" transform="rotate(-90.5524 22.8763 68.128)" fill="white" stroke="white"/>
<rect x="9.38065" y="54.8907" width="12.3673" height="12.3673" transform="rotate(-90.5524 9.38065 54.8907)" fill="white" stroke="white"/>
<line y1="-1.25" x2="124.483" y2="-1.25" transform="matrix(-0.00964065 -0.999954 -0.999954 0.00964065 1.19995 124.815)" stroke="white" stroke-width="2.5" stroke-dasharray="5 5"/>
</svg>
